<svg xmlns="http://www.w3.org/2000/svg" xmlns:xlink="http://www.w3.org/1999/xlink" xmlns:lucid="lucid" width="1562" height="1023"><g transform="translate(-3013 -141)" lucid:page-tab-id="HWEp-vi-RSFO"><path d="M0 0h4898.98v1763.84H0z" fill="#fff"/><path d="M3698.27 673H3980v163h-281.73z" stroke="#333" fill="#fff"/><path d="M3698.27 710.6H3980m-281.73 73.3H3980" stroke="#333" fill="none"/><use xlink:href="#a" transform="matrix(1,0,0,1,3706.2724728894646,681) translate(103.07499999999999 14.6)"/><use xlink:href="#b" transform="matrix(1,0,0,1,3710.2724728894646,718.6) translate(0 21.799999999999997)"/><use xlink:href="#c" transform="matrix(1,0,0,1,3710.2724728894646,718.6) translate(10.95 21.799999999999997)"/><use xlink:href="#d" transform="matrix(1,0,0,1,3710.2724728894646,718.6) translate(112.9 21.799999999999997)"/><use xlink:href="#e" transform="matrix(1,0,0,1,3710.2724728894646,718.6) translate(122.9 21.799999999999997)"/><use xlink:href="#b" transform="matrix(1,0,0,1,3710.2724728894646,718.6) translate(0 43.4)"/><use xlink:href="#f" transform="matrix(1,0,0,1,3710.2724728894646,718.6) translate(10.95 43.4)"/><use xlink:href="#d" transform="matrix(1,0,0,1,3710.2724728894646,718.6) translate(106.9 43.4)"/><use xlink:href="#g" transform="matrix(1,0,0,1,3710.2724728894646,718.6) translate(116.9 43.4)"/><path d="M3088.1 938.77h225.52v178h-225.5z" stroke="#333" fill="#fff"/><path d="M3088.1 976.37h225.52m-225.5 102.4h225.5" stroke="#333" fill="none"/><use xlink:href="#h" transform="matrix(1,0,0,1,3096.1069657346197,946.7663540208628) translate(86.525 14.6)"/><use xlink:href="#b" transform="matrix(1,0,0,1,3100.1069657346197,984.3663540208628) translate(0 14.69999999999999)"/><use xlink:href="#i" transform="matrix(1,0,0,1,3100.1069657346197,984.3663540208628) translate(10.95 14.69999999999999)"/><use xlink:href="#d" transform="matrix(1,0,0,1,3100.1069657346197,984.3663540208628) translate(60.900000000000006 14.69999999999999)"/><use xlink:href="#j" transform="matrix(1,0,0,1,3100.1069657346197,984.3663540208628) translate(70.9 14.69999999999999)"/><use xlink:href="#b" transform="matrix(1,0,0,1,3100.1069657346197,984.3663540208628) translate(0 36.29999999999999)"/><use xlink:href="#k" transform="matrix(1,0,0,1,3100.1069657346197,984.3663540208628) translate(10.95 36.29999999999999)"/><use xlink:href="#d" transform="matrix(1,0,0,1,3100.1069657346197,984.3663540208628) translate(104.9 36.29999999999999)"/><use xlink:href="#l" transform="matrix(1,0,0,1,3100.1069657346197,984.3663540208628) translate(114.9 36.29999999999999)"/><use xlink:href="#b" transform="matrix(1,0,0,1,3100.1069657346197,984.3663540208628) translate(0 57.89999999999999)"/><use xlink:href="#m" transform="matrix(1,0,0,1,3100.1069657346197,984.3663540208628) translate(10.95 57.89999999999999)"/><use xlink:href="#d" transform="matrix(1,0,0,1,3100.1069657346197,984.3663540208628) translate(116.65000000000002 57.89999999999999)"/><use xlink:href="#e" transform="matrix(1,0,0,1,3100.1069657346197,984.3663540208628) translate(126.65000000000002 57.89999999999999)"/><use xlink:href="#b" transform="matrix(1,0,0,1,3100.1069657346197,984.3663540208628) translate(0 79.5)"/><use xlink:href="#n" transform="matrix(1,0,0,1,3100.1069657346197,984.3663540208628) translate(10.95 79.5)"/><use xlink:href="#d" transform="matrix(1,0,0,1,3100.1069657346197,984.3663540208628) translate(44.900000000000006 79.5)"/><use xlink:href="#o" transform="matrix(1,0,0,1,3100.1069657346197,984.3663540208628) translate(54.900000000000006 79.5)"/><path d="M3781.33 837v178.77a12 12 0 0 1-12 12h-454.3" stroke="#333" fill="none"/><path d="M3781.8 837h-.94v-.5h.95z" stroke="#333" stroke-width=".05" fill="#333"/><path d="M3332.44 1037.77l-17.32-10 17.32-10" stroke="#333" fill="none"/><use xlink:href="#p" transform="matrix(1,0,0,1,3340.162735565359,1002.1663540208627) translate(0 14.4)"/><use xlink:href="#q" transform="matrix(1,0,0,1,3660.4833333333336,917.0761007460187) translate(0.005000000000002558 14.4)"/><use xlink:href="#r" transform="matrix(1,0,0,1,3660.4833333333336,917.0761007460187) translate(86.905 14.4)"/><path d="M3981 754.5h277.6" stroke="#333" fill="none"/><path d="M3981 754.98h-.5V754h.5z" stroke="#333" stroke-width=".05" fill="#333"/><path d="M4241.18 744.5l17.32 10-17.32 10" stroke="#333" fill="none"/><use xlink:href="#s" transform="matrix(1,0,0,1,4245.097937104409,768.5) translate(0 14.4)"/><use xlink:href="#t" transform="matrix(1,0,0,1,4051.525,728.9) translate(0.005000000000002558 14.4)"/><use xlink:href="#u" transform="matrix(1,0,0,1,4051.525,728.9) translate(17.005000000000003 14.4)"/><use xlink:href="#v" transform="matrix(1,0,0,1,4051.525,728.9) translate(42.005 14.4)"/><path d="M4260 644h240v221h-240z" stroke="#333" fill="#fff"/><path d="M4260 681.6h240m-240 145.6h240" stroke="#333" fill="none"/><use xlink:href="#w" transform="matrix(1,0,0,1,4268,652) translate(82.07499999999999 14.6)"/><use xlink:href="#b" transform="matrix(1,0,0,1,4272,689.6) translate(0 14.600000000000003)"/><use xlink:href="#i" transform="matrix(1,0,0,1,4272,689.6) translate(10.95 14.600000000000003)"/><use xlink:href="#d" transform="matrix(1,0,0,1,4272,689.6) translate(60.900000000000006 14.600000000000003)"/><use xlink:href="#j" transform="matrix(1,0,0,1,4272,689.6) translate(70.9 14.600000000000003)"/><use xlink:href="#b" transform="matrix(1,0,0,1,4272,689.6) translate(0 36.2)"/><use xlink:href="#n" transform="matrix(1,0,0,1,4272,689.6) translate(10.95 36.2)"/><use xlink:href="#d" transform="matrix(1,0,0,1,4272,689.6) translate(44.900000000000006 36.2)"/><use xlink:href="#j" transform="matrix(1,0,0,1,4272,689.6) translate(54.900000000000006 36.2)"/><use xlink:href="#b" transform="matrix(1,0,0,1,4272,689.6) translate(0 57.800000000000004)"/><use xlink:href="#x" transform="matrix(1,0,0,1,4272,689.6) translate(10.95 57.800000000000004)"/><use xlink:href="#d" transform="matrix(1,0,0,1,4272,689.6) translate(92.8 57.800000000000004)"/><use xlink:href="#e" transform="matrix(1,0,0,1,4272,689.6) translate(102.8 57.800000000000004)"/><use xlink:href="#b" transform="matrix(1,0,0,1,4272,689.6) translate(0 79.40000000000002)"/><use xlink:href="#y" transform="matrix(1,0,0,1,4272,689.6) translate(10.95 79.40000000000002)"/><use xlink:href="#d" transform="matrix(1,0,0,1,4272,689.6) translate(101.80000000000001 79.40000000000002)"/><use xlink:href="#j" transform="matrix(1,0,0,1,4272,689.6) translate(111.80000000000001 79.40000000000002)"/><use xlink:href="#b" transform="matrix(1,0,0,1,4272,689.6) translate(0 101.00000000000001)"/><use xlink:href="#z" transform="matrix(1,0,0,1,4272,689.6) translate(10.95 101.00000000000001)"/><use xlink:href="#j" transform="matrix(1,0,0,1,4272,689.6) translate(66.8 101.00000000000001)"/><use xlink:href="#b" transform="matrix(1,0,0,1,4272,689.6) translate(0 122.60000000000001)"/><use xlink:href="#A" transform="matrix(1,0,0,1,4272,689.6) translate(10.95 122.60000000000001)"/><use xlink:href="#o" transform="matrix(1,0,0,1,4272,689.6) translate(73.9 122.60000000000001)"/><path d="M4256.72 960H4500v134h-243.28z" stroke="#333" fill="#fff"/><path d="M4256.72 997.6H4500m-243.28 59.2H4500" stroke="#333" fill="none"/><g><use xlink:href="#B" transform="matrix(1,0,0,1,4264.718627952698,968) translate(8.800000000000026 14.6)"/></g><g><use xlink:href="#b" transform="matrix(1,0,0,1,4268.718627952698,1005.6) translate(0 14.799999999999999)"/><use xlink:href="#C" transform="matrix(1,0,0,1,4268.718627952698,1005.6) translate(10.95 14.799999999999999)"/><use xlink:href="#d" transform="matrix(1,0,0,1,4268.718627952698,1005.6) translate(120.85000000000001 14.799999999999999)"/><use xlink:href="#j" transform="matrix(1,0,0,1,4268.718627952698,1005.6) translate(130.85000000000002 14.799999999999999)"/><use xlink:href="#b" transform="matrix(1,0,0,1,4268.718627952698,1005.6) translate(0 36.4)"/><use xlink:href="#D" transform="matrix(1,0,0,1,4268.718627952698,1005.6) translate(10.95 36.4)"/><use xlink:href="#d" transform="matrix(1,0,0,1,4268.718627952698,1005.6) translate(130.8 36.4)"/><use xlink:href="#E" transform="matrix(1,0,0,1,4268.718627952698,1005.6) translate(140.8 36.4)"/></g><path d="M3360 1040h100v20h-100z" fill="none"/><g><use xlink:href="#F" transform="matrix(1,0,0,1,3360,1040) translate(25.549999999999997 14.4)"/><use xlink:href="#G" transform="matrix(1,0,0,1,3360,1040) translate(36.5 14.4)"/></g><path d="M4140 720h100v20h-100z" fill="none"/><g><use xlink:href="#F" transform="matrix(1,0,0,1,4140,720) translate(18.575000000000003 14.4)"/><use xlink:href="#H" transform="matrix(1,0,0,1,4140,720) translate(29.525000000000002 14.4)"/></g><path d="M3892 837v178a12 12 0 0 0 12 12h351.3" stroke="#333" fill="none"/><path d="M3892.47 837h-.94v-.5h.94z" stroke="#333" stroke-width=".05" fill="#333"/><path d="M4237.9 1017l17.32 10-17.32 10" stroke="#333" fill="none"/><g><use xlink:href="#p" transform="matrix(1,0,0,1,4211.823021655999,1031) translate(0 14.4)"/></g><g><use xlink:href="#I" transform="matrix(1,0,0,1,3900,919.8666666666667) translate(0.0049999999999954525 14.4)"/><use xlink:href="#J" transform="matrix(1,0,0,1,3900,919.8666666666667) translate(47.004999999999995 14.4)"/><use xlink:href="#K" transform="matrix(1,0,0,1,3900,919.8666666666667) translate(72.955 14.4)"/><use xlink:href="#L" transform="matrix(1,0,0,1,3900,919.8666666666667) translate(150.95499999999998 14.4)"/><use xlink:href="#M" transform="matrix(1,0,0,1,3900,919.8666666666667) translate(175.95499999999998 14.4)"/><use xlink:href="#u" transform="matrix(1,0,0,1,3900,919.8666666666667) translate(214.95499999999998 14.4)"/><use xlink:href="#N" transform="matrix(1,0,0,1,3900,919.8666666666667) translate(239.95499999999998 14.4)"/></g><path d="M3940 1037.46h260V1060h-260z" fill="none"/><g><use xlink:href="#F" transform="matrix(1,0,0,1,3940,1037.463041352251) translate(26.075000000000017 15.1)"/><use xlink:href="#O" transform="matrix(1,0,0,1,3940,1037.463041352251) translate(37.02500000000002 15.1)"/></g><path d="M3300 170.3a8 8 0 0 1 8-8h949.77a8 8 0 0 1 8 8v66.32a8 8 0 0 1-8 8H3308a8 8 0 0 1-8-8z" stroke="#000" stroke-opacity="0" fill="#fff" fill-opacity="0"/><g><use xlink:href="#P" transform="matrix(1,0,0,1,3304.0000000000014,166.31044791301258) translate(249.66061728395061 44.08444444444444)"/><use xlink:href="#Q" transform="matrix(1,0,0,1,3304.0000000000014,166.31044791301258) translate(348.430987654321 44.08444444444444)"/><use xlink:href="#R" transform="matrix(1,0,0,1,3304.0000000000014,166.31044791301258) translate(489.37543209876543 44.08444444444444)"/><use xlink:href="#S" transform="matrix(1,0,0,1,3304.0000000000014,166.31044791301258) translate(505.3272839506173 44.08444444444444)"/><use xlink:href="#T" transform="matrix(1,0,0,1,3304.0000000000014,166.31044791301258) translate(613.0569135802469 44.08444444444444)"/></g><path d="M3612.5 241.94h351.62M3612.5 241.94h-.5M3964.1 241.94h.52" stroke="#a9afb8" fill="none"/><path d="M3300 252.62a8 8 0 0 1 8-8h950.85a8 8 0 0 1 8 8v21.7a8 8 0 0 1-8 8H3308a8 8 0 0 1-8-8z" stroke="#000" stroke-opacity="0" fill="#fff" fill-opacity="0"/><g><use xlink:href="#U" transform="matrix(1,0,0,1,3304,248.62089582649077) translate(353.5350514403292 19.39925925925926)"/><use xlink:href="#V" transform="matrix(1,0,0,1,3304,248.62089582649077) translate(406.94461934156374 19.39925925925926)"/><use xlink:href="#W" transform="matrix(1,0,0,1,3304,248.62089582649077) translate(465.4954423868312 19.39925925925926)"/><use xlink:href="#X" transform="matrix(1,0,0,1,3304,248.62089582649077) translate(477.94492798353906 19.39925925925926)"/><use xlink:href="#Y" transform="matrix(1,0,0,1,3304,248.62089582649077) translate(552.5993518518518 19.39925925925926)"/><use xlink:href="#Z" transform="matrix(1,0,0,1,3304,248.62089582649077) translate(578.0931790123457 19.39925925925926)"/></g><path d="M3060 684h281.73v141H3060z" stroke="#333" fill="#fff"/><path d="M3060 721.6h281.73M3060 773.3h281.73" stroke="#333" fill="none"/><g><use xlink:href="#aa" transform="matrix(1,0,0,1,3068,692) translate(73.14999999999999 14.6)"/></g><path d="M3700 360h281.73v184H3700z" stroke="#333" fill="#fff"/><path d="M3700 397.6h281.73M3700 492.5h281.73" stroke="#333" fill="none"/><g><use xlink:href="#ab" transform="matrix(1,0,0,1,3708,368) translate(84.6 14.6)"/></g><g><use xlink:href="#b" transform="matrix(1,0,0,1,3712,405.6) translate(0 21.5)"/><use xlink:href="#ac" transform="matrix(1,0,0,1,3712,405.6) translate(10.95 21.5)"/><use xlink:href="#d" transform="matrix(1,0,0,1,3712,405.6) translate(136.85 21.5)"/><use xlink:href="#j" transform="matrix(1,0,0,1,3712,405.6) translate(146.85 21.5)"/><use xlink:href="#b" transform="matrix(1,0,0,1,3712,405.6) translate(0 43.1)"/><use xlink:href="#ad" transform="matrix(1,0,0,1,3712,405.6) translate(10.95 43.1)"/><use xlink:href="#d" transform="matrix(1,0,0,1,3712,405.6) translate(54.85000000000001 43.1)"/><use xlink:href="#e" transform="matrix(1,0,0,1,3712,405.6) translate(64.85000000000001 43.1)"/><use xlink:href="#b" transform="matrix(1,0,0,1,3712,405.6) translate(0 64.7)"/><use xlink:href="#ae" transform="matrix(1,0,0,1,3712,405.6) translate(10.95 64.7)"/><use xlink:href="#g" transform="matrix(1,0,0,1,3712,405.6) translate(147.89999999999998 64.7)"/></g><path d="M3343.14 754.5h353.72M3360.55 764.5l-17.32-10 17.32-10M3679.45 744.5l17.32 10-17.32 10" stroke="#333" fill="none"/><g><use xlink:href="#s" transform="matrix(1,0,0,1,3680.7909103728402,768.5) translate(0 14.4)"/></g><g><use xlink:href="#af" transform="matrix(1,0,0,1,3342.727527,768.5) translate(0 14.4)"/><use xlink:href="#ag" transform="matrix(1,0,0,1,3342.727527,768.5) translate(5 14.4)"/></g><g><use xlink:href="#ah" transform="matrix(1,0,0,1,3478.049999944732,728.9) translate(0.005000000000002558 14.4)"/><use xlink:href="#ai" transform="matrix(1,0,0,1,3478.049999944732,728.9) translate(58.955000000000005 14.4)"/></g><path d="M3360 720h100v20h-100z" fill="none"/><g><use xlink:href="#F" transform="matrix(1,0,0,1,3360,720) translate(0 14.4)"/><use xlink:href="#aj" transform="matrix(1,0,0,1,3360,720) translate(10.95 14.4)"/></g><path d="M3620 720h100v20h-100z" fill="none"/><g><use xlink:href="#ak" transform="matrix(1,0,0,1,3620,720) translate(0 14.4)"/><use xlink:href="#al" transform="matrix(1,0,0,1,3620,720) translate(15 14.4)"/></g><path d="M3840.86 545.4V672M3830.86 562.82l10-17.32 10 17.32" stroke="#333" fill="none"/><path d="M3841.34 672.5h-.95v-.5h.94z" stroke="#333" stroke-width=".05" fill="#333"/><g><use xlink:href="#p" transform="matrix(1,0,0,1,3815.863763530612,559.4968836166928) translate(0 14.4)"/></g><g><use xlink:href="#ah" transform="matrix(1,0,0,1,3848.8637635306122,621.2) translate(0.0049999999999954525 14.4)"/><use xlink:href="#am" transform="matrix(1,0,0,1,3848.8637635306122,621.2) translate(58.955 14.4)"/><use xlink:href="#an" transform="matrix(1,0,0,1,3848.8637635306122,621.2) translate(118.85499999999999 14.4)"/></g><path d="M3840 569.3h182.76V589H3840z" fill="none"/><g><use xlink:href="#F" transform="matrix(1,0,0,1,3840,569.3030206874712) translate(12.599999999999994 14.4)"/><use xlink:href="#ao" transform="matrix(1,0,0,1,3840,569.3030206874712) translate(23.549999999999994 14.4)"/></g><defs><path fill="#333" d="M24-248c93 1 206-16 204 79-1 75-69 88-152 82V0H24v-248zm52 121c47 0 100 7 100-41 0-47-54-39-100-39v80" id="ap"/><path fill="#333" d="M185-48c-13 30-37 53-82 52C43 2 14-33 14-96s30-98 90-98c62 0 83 45 84 108H66c0 31 8 55 39 56 18 0 30-7 34-22zm-45-69c5-46-57-63-70-21-2 6-4 13-4 21h74" id="aq"/><path fill="#333" d="M88-194c31-1 46 15 58 34l-1-101h50l1 261h-48c-2-10 0-23-3-31C134-8 116 4 84 4 32 4 16-41 15-95c0-56 19-97 73-99zm17 164c33 0 40-30 41-66 1-37-9-64-41-64s-38 30-39 65c0 43 13 65 39 65" id="ar"/><path fill="#333" d="M25-224v-37h50v37H25zM25 0v-190h50V0H25" id="as"/><path fill="#333" d="M110-194c64 0 96 36 96 99 0 64-35 99-97 99-61 0-95-36-95-99 0-62 34-99 96-99zm-1 164c35 0 45-28 45-65 0-40-10-65-43-65-34 0-45 26-45 65 0 36 10 65 43 65" id="at"/><g id="a"><use transform="matrix(0.05,0,0,0.05,0,0)" xlink:href="#ap"/><use transform="matrix(0.05,0,0,0.05,12,0)" xlink:href="#aq"/><use transform="matrix(0.05,0,0,0.05,22,0)" xlink:href="#ar"/><use transform="matrix(0.05,0,0,0.05,32.95,0)" xlink:href="#as"/><use transform="matrix(0.05,0,0,0.05,37.95,0)" xlink:href="#ar"/><use transform="matrix(0.05,0,0,0.05,48.900000000000006,0)" xlink:href="#at"/></g><path fill="#333" d="M16-82v-28h88v28H16" id="au"/><use transform="matrix(0.05,0,0,0.05,0,0)" xlink:href="#au" id="b"/><path fill="#333" d="M59-47c-2 24 18 29 38 22v24C64 9 27 4 27-40v-127H5v-23h24l9-43h21v43h35v23H59v120" id="av"/><path fill="#333" d="M141-36C126-15 110 5 73 4 37 3 15-17 15-53c-1-64 63-63 125-63 3-35-9-54-41-54-24 1-41 7-42 31l-33-3c5-37 33-52 76-52 45 0 72 20 72 64v82c-1 20 7 32 28 27v20c-31 9-61-2-59-35zM48-53c0 20 12 33 32 33 41-3 63-29 60-74-43 2-92-5-92 41" id="aw"/><path fill="#333" d="M141 0L90-78 38 0H4l68-98-65-92h35l48 74 47-74h35l-64 92 68 98h-35" id="ax"/><path fill="#333" d="M30 0v-248h187v28H63v79h144v27H63v87h162V0H30" id="ay"/><path fill="#333" d="M117-194c89-4 53 116 60 194h-32v-121c0-31-8-49-39-48C34-167 62-67 57 0H25l-1-190h30c1 10-1 24 2 32 11-22 29-35 61-36" id="az"/><path fill="#333" d="M114-163C36-179 61-72 57 0H25l-1-190h30c1 12-1 29 2 39 6-27 23-49 58-41v29" id="aA"/><path fill="#333" d="M100-194c63 0 86 42 84 106H49c0 40 14 67 53 68 26 1 43-12 49-29l28 8c-11 28-37 45-77 45C44 4 14-33 15-96c1-61 26-98 85-98zm52 81c6-60-76-77-97-28-3 7-6 17-6 28h103" id="aB"/><path fill="#333" d="M177-190C167-65 218 103 67 71c-23-6-38-20-44-43l32-5c15 47 100 32 89-28v-30C133-14 115 1 83 1 29 1 15-40 15-95c0-56 16-97 71-98 29-1 48 16 59 35 1-10 0-23 2-32h30zM94-22c36 0 50-32 50-73 0-42-14-75-50-75-39 0-46 34-46 75s6 73 46 73" id="aC"/><g id="c"><use transform="matrix(0.05,0,0,0.05,0,0)" xlink:href="#av"/><use transform="matrix(0.05,0,0,0.05,5,0)" xlink:href="#aw"/><use transform="matrix(0.05,0,0,0.05,15,0)" xlink:href="#ax"/><use transform="matrix(0.05,0,0,0.05,24,0)" xlink:href="#aw"/><use transform="matrix(0.05,0,0,0.05,34,0)" xlink:href="#ay"/><use transform="matrix(0.05,0,0,0.05,46,0)" xlink:href="#az"/><use transform="matrix(0.05,0,0,0.05,56,0)" xlink:href="#av"/><use transform="matrix(0.05,0,0,0.05,61,0)" xlink:href="#aA"/><use transform="matrix(0.05,0,0,0.05,66.95,0)" xlink:href="#aB"/><use transform="matrix(0.05,0,0,0.05,76.95,0)" xlink:href="#aC"/><use transform="matrix(0.05,0,0,0.05,86.95,0)" xlink:href="#aw"/></g><path fill="#333" d="M33-154v-36h34v36H33zM33 0v-36h34V0H33" id="aD"/><use transform="matrix(0.05,0,0,0.05,0,0)" xlink:href="#aD" id="d"/><path fill="#333" d="M85-194c31 0 48 13 60 33l-1-100h32l1 261h-30c-2-10 0-23-3-31C134-8 116 4 85 4 32 4 16-35 15-94c0-66 23-100 70-100zm9 24c-40 0-46 34-46 75 0 40 6 74 45 74 42 0 51-32 51-76 0-42-9-74-50-73" id="aE"/><path fill="#333" d="M100-194c62-1 85 37 85 99 1 63-27 99-86 99S16-35 15-95c0-66 28-99 85-99zM99-20c44 1 53-31 53-75 0-43-8-75-51-75s-53 32-53 75 10 74 51 75" id="aF"/><path fill="#333" d="M84 4C-5 8 30-112 23-190h32v120c0 31 7 50 39 49 72-2 45-101 50-169h31l1 190h-30c-1-10 1-25-2-33-11 22-28 36-60 37" id="aG"/><path fill="#333" d="M115-194c53 0 69 39 70 98 0 66-23 100-70 100C84 3 66-7 56-30L54 0H23l1-261h32v101c10-23 28-34 59-34zm-8 174c40 0 45-34 45-75 0-40-5-75-45-74-42 0-51 32-51 76 0 43 10 73 51 73" id="aH"/><path fill="#333" d="M24 0v-261h32V0H24" id="aI"/><g id="e"><use transform="matrix(0.05,0,0,0.05,0,0)" xlink:href="#aE"/><use transform="matrix(0.05,0,0,0.05,10,0)" xlink:href="#aF"/><use transform="matrix(0.05,0,0,0.05,20,0)" xlink:href="#aG"/><use transform="matrix(0.05,0,0,0.05,30,0)" xlink:href="#aH"/><use transform="matrix(0.05,0,0,0.05,40,0)" xlink:href="#aI"/><use transform="matrix(0.05,0,0,0.05,43.95,0)" xlink:href="#aB"/></g><path fill="#333" d="M30-248c87 1 191-15 191 75 0 78-77 80-158 76V0H30v-248zm33 125c57 0 124 11 124-50 0-59-68-47-124-48v98" id="aJ"/><path fill="#333" d="M24-231v-30h32v30H24zM24 0v-190h32V0H24" id="aK"/><g id="f"><use transform="matrix(0.05,0,0,0.05,0,0)" xlink:href="#aE"/><use transform="matrix(0.05,0,0,0.05,10,0)" xlink:href="#aw"/><use transform="matrix(0.05,0,0,0.05,20,0)" xlink:href="#av"/><use transform="matrix(0.05,0,0,0.05,25,0)" xlink:href="#aw"/><use transform="matrix(0.05,0,0,0.05,35,0)" xlink:href="#aJ"/><use transform="matrix(0.05,0,0,0.05,47,0)" xlink:href="#aB"/><use transform="matrix(0.05,0,0,0.05,57,0)" xlink:href="#aE"/><use transform="matrix(0.05,0,0,0.05,67,0)" xlink:href="#aK"/><use transform="matrix(0.05,0,0,0.05,70.95,0)" xlink:href="#aE"/><use transform="matrix(0.05,0,0,0.05,80.95,0)" xlink:href="#aF"/></g><path fill="#333" d="M30 0v-248h33v221h125V0H30" id="aL"/><path fill="#333" d="M96-169c-40 0-48 33-48 73s9 75 48 75c24 0 41-14 43-38l32 2c-6 37-31 61-74 61-59 0-76-41-82-99-10-93 101-131 147-64 4 7 5 14 7 22l-32 3c-4-21-16-35-41-35" id="aM"/><path fill="#333" d="M30-248c118-7 216 8 213 122C240-48 200 0 122 0H30v-248zM63-27c89 8 146-16 146-99s-60-101-146-95v194" id="aN"/><g id="g"><use transform="matrix(0.05,0,0,0.05,0,0)" xlink:href="#aL"/><use transform="matrix(0.05,0,0,0.05,10,0)" xlink:href="#aF"/><use transform="matrix(0.05,0,0,0.05,20,0)" xlink:href="#aM"/><use transform="matrix(0.05,0,0,0.05,29,0)" xlink:href="#aw"/><use transform="matrix(0.05,0,0,0.05,39,0)" xlink:href="#aI"/><use transform="matrix(0.05,0,0,0.05,42.95,0)" xlink:href="#aN"/><use transform="matrix(0.05,0,0,0.05,55.900000000000006,0)" xlink:href="#aw"/><use transform="matrix(0.05,0,0,0.05,65.9,0)" xlink:href="#av"/><use transform="matrix(0.05,0,0,0.05,70.9,0)" xlink:href="#aB"/></g><path fill="#333" d="M24 0v-248h52V0H24" id="aO"/><path fill="#333" d="M115-3C79 11 28 4 28-45v-112H4v-33h27l15-45h31v45h36v33H77v99c-1 23 16 31 38 25v30" id="aP"/><path fill="#333" d="M220-157c-53 9-28 100-34 157h-49v-107c1-27-5-49-29-50C55-147 81-57 75 0H25l-1-190h47c2 12-1 28 3 38 10-53 101-56 108 0 13-22 24-43 59-42 82 1 51 116 57 194h-49v-107c-1-25-5-48-29-50" id="aQ"/><g id="h"><use transform="matrix(0.05,0,0,0.05,0,0)" xlink:href="#aO"/><use transform="matrix(0.05,0,0,0.05,5,0)" xlink:href="#aP"/><use transform="matrix(0.05,0,0,0.05,10.95,0)" xlink:href="#aq"/><use transform="matrix(0.05,0,0,0.05,20.95,0)" xlink:href="#aQ"/></g><path fill="#333" d="M210-169c-67 3-38 105-44 169h-31v-121c0-29-5-50-35-48C34-165 62-65 56 0H25l-1-190h30c1 10-1 24 2 32 10-44 99-50 107 0 11-21 27-35 58-36 85-2 47 119 55 194h-31v-121c0-29-5-49-35-48" id="aR"/><g id="i"><use transform="matrix(0.05,0,0,0.05,0,0)" xlink:href="#az"/><use transform="matrix(0.05,0,0,0.05,10,0)" xlink:href="#aF"/><use transform="matrix(0.05,0,0,0.05,20,0)" xlink:href="#aR"/><use transform="matrix(0.05,0,0,0.05,34.95,0)" xlink:href="#aB"/></g><path fill="#333" d="M185-189c-5-48-123-54-124 2 14 75 158 14 163 119 3 78-121 87-175 55-17-10-28-26-33-46l33-7c5 56 141 63 141-1 0-78-155-14-162-118-5-82 145-84 179-34 5 7 8 16 11 25" id="aS"/><g id="j"><use transform="matrix(0.05,0,0,0.05,0,0)" xlink:href="#aS"/><use transform="matrix(0.05,0,0,0.05,12,0)" xlink:href="#av"/><use transform="matrix(0.05,0,0,0.05,17,0)" xlink:href="#aA"/><use transform="matrix(0.05,0,0,0.05,22.95,0)" xlink:href="#aK"/><use transform="matrix(0.05,0,0,0.05,26.899999999999995,0)" xlink:href="#az"/><use transform="matrix(0.05,0,0,0.05,36.9,0)" xlink:href="#aC"/></g><path fill="#333" d="M145-31C134-9 116 4 85 4 32 4 16-35 15-94c0-59 17-99 70-100 32-1 48 14 60 33 0-11-1-24 2-32h30l-1 268h-32zM93-21c41 0 51-33 51-76s-8-73-50-73c-40 0-46 35-46 75s5 74 45 74" id="aT"/><g id="k"><use transform="matrix(0.05,0,0,0.05,0,0)" xlink:href="#aT"/><use transform="matrix(0.05,0,0,0.05,10,0)" xlink:href="#aG"/><use transform="matrix(0.05,0,0,0.05,20,0)" xlink:href="#aw"/><use transform="matrix(0.05,0,0,0.05,30,0)" xlink:href="#az"/><use transform="matrix(0.05,0,0,0.05,40,0)" xlink:href="#av"/><use transform="matrix(0.05,0,0,0.05,45,0)" xlink:href="#aK"/><use transform="matrix(0.05,0,0,0.05,48.95,0)" xlink:href="#aE"/><use transform="matrix(0.05,0,0,0.05,58.95,0)" xlink:href="#aw"/><use transform="matrix(0.05,0,0,0.05,68.95,0)" xlink:href="#aE"/><use transform="matrix(0.05,0,0,0.05,78.95,0)" xlink:href="#aB"/></g><g id="l"><use transform="matrix(0.05,0,0,0.05,0,0)" xlink:href="#aK"/><use transform="matrix(0.05,0,0,0.05,3.95,0)" xlink:href="#az"/><use transform="matrix(0.05,0,0,0.05,13.949999999999998,0)" xlink:href="#av"/></g><path fill="#333" d="M108 0H70L1-190h34L89-25l56-165h34" id="aU"/><path fill="#333" d="M232-93c-1 65-40 97-104 97C67 4 28-28 28-90v-158h33c8 89-33 224 67 224 102 0 64-133 71-224h33v155" id="aV"/><g id="m"><use transform="matrix(0.05,0,0,0.05,0,0)" xlink:href="#aU"/><use transform="matrix(0.05,0,0,0.05,9,0)" xlink:href="#aw"/><use transform="matrix(0.05,0,0,0.05,19,0)" xlink:href="#aI"/><use transform="matrix(0.05,0,0,0.05,22.95,0)" xlink:href="#aF"/><use transform="matrix(0.05,0,0,0.05,32.95,0)" xlink:href="#aA"/><use transform="matrix(0.05,0,0,0.05,38.900000000000006,0)" xlink:href="#aV"/><use transform="matrix(0.05,0,0,0.05,51.85,0)" xlink:href="#az"/><use transform="matrix(0.05,0,0,0.05,61.85,0)" xlink:href="#aK"/><use transform="matrix(0.05,0,0,0.05,65.80000000000001,0)" xlink:href="#av"/><use transform="matrix(0.05,0,0,0.05,70.80000000000001,0)" xlink:href="#aw"/><use transform="matrix(0.05,0,0,0.05,80.80000000000001,0)" xlink:href="#aA"/><use transform="matrix(0.05,0,0,0.05,86.75000000000001,0)" xlink:href="#aK"/><use transform="matrix(0.05,0,0,0.05,90.70000000000002,0)" xlink:href="#aF"/></g><path fill="#333" d="M115-194c55 1 70 41 70 98S169 2 115 4C84 4 66-9 55-30l1 105H24l-1-265h31l2 30c10-21 28-34 59-34zm-8 174c40 0 45-34 45-75s-6-73-45-74c-42 0-51 32-51 76 0 43 10 73 51 73" id="aW"/><g id="n"><use transform="matrix(0.05,0,0,0.05,0,0)" xlink:href="#av"/><use transform="matrix(0.05,0,0,0.05,5,0)" xlink:href="#aK"/><use transform="matrix(0.05,0,0,0.05,8.95,0)" xlink:href="#aW"/><use transform="matrix(0.05,0,0,0.05,18.95,0)" xlink:href="#aF"/></g><g id="o"><use transform="matrix(0.05,0,0,0.05,0,0)" xlink:href="#aS"/><use transform="matrix(0.05,0,0,0.05,12,0)" xlink:href="#av"/><use transform="matrix(0.05,0,0,0.05,17,0)" xlink:href="#aA"/><use transform="matrix(0.05,0,0,0.05,22.95,0)" xlink:href="#aK"/><use transform="matrix(0.05,0,0,0.05,26.899999999999995,0)" xlink:href="#az"/><use transform="matrix(0.05,0,0,0.05,36.9,0)" xlink:href="#aC"/></g><path d="M80-196l47-18 7 23-49 13 32 44-20 13-27-46-27 45-21-12 33-44-49-13 8-23 47 19-2-53h23" id="aX"/><use transform="matrix(0.05,0,0,0.05,0,0)" xlink:href="#aX" id="p"/><path d="M212-179c-10-28-35-45-73-45-59 0-87 40-87 99 0 60 29 101 89 101 43 0 62-24 78-52l27 14C228-24 195 4 139 4 59 4 22-46 18-125c-6-104 99-153 187-111 19 9 31 26 39 46" id="aY"/><path d="M100-194c62-1 85 37 85 99 1 63-27 99-86 99S16-35 15-95c0-66 28-99 85-99zM99-20c44 1 53-31 53-75 0-43-8-75-51-75s-53 32-53 75 10 74 51 75" id="aZ"/><path d="M210-169c-67 3-38 105-44 169h-31v-121c0-29-5-50-35-48C34-165 62-65 56 0H25l-1-190h30c1 10-1 24 2 32 10-44 99-50 107 0 11-21 27-35 58-36 85-2 47 119 55 194h-31v-121c0-29-5-49-35-48" id="ba"/><path d="M115-194c55 1 70 41 70 98S169 2 115 4C84 4 66-9 55-30l1 105H24l-1-265h31l2 30c10-21 28-34 59-34zm-8 174c40 0 45-34 45-75s-6-73-45-74c-42 0-51 32-51 76 0 43 10 73 51 73" id="bb"/><path d="M135-143c-3-34-86-38-87 0 15 53 115 12 119 90S17 21 10-45l28-5c4 36 97 45 98 0-10-56-113-15-118-90-4-57 82-63 122-42 12 7 21 19 24 35" id="bc"/><path d="M59-47c-2 24 18 29 38 22v24C64 9 27 4 27-40v-127H5v-23h24l9-43h21v43h35v23H59v120" id="bd"/><g id="q"><use transform="matrix(0.05,0,0,0.05,0,0)" xlink:href="#aY"/><use transform="matrix(0.05,0,0,0.05,12.950000000000001,0)" xlink:href="#aZ"/><use transform="matrix(0.05,0,0,0.05,22.950000000000003,0)" xlink:href="#ba"/><use transform="matrix(0.05,0,0,0.05,37.900000000000006,0)" xlink:href="#bb"/><use transform="matrix(0.05,0,0,0.05,47.900000000000006,0)" xlink:href="#aZ"/><use transform="matrix(0.05,0,0,0.05,57.900000000000006,0)" xlink:href="#bc"/><use transform="matrix(0.05,0,0,0.05,66.9,0)" xlink:href="#bd"/><use transform="matrix(0.05,0,0,0.05,71.9,0)" xlink:href="#aZ"/></g><path d="M114-163C36-179 61-72 57 0H25l-1-190h30c1 12-1 29 2 39 6-27 23-49 58-41v29" id="be"/><g id="r"><use transform="matrix(0.05,0,0,0.05,0,0)" xlink:href="#bb"/><use transform="matrix(0.05,0,0,0.05,10,0)" xlink:href="#aZ"/><use transform="matrix(0.05,0,0,0.05,20,0)" xlink:href="#be"/></g><path d="M27 0v-27h64v-190l-56 39v-29l58-41h29v221h61V0H27" id="bf"/><use transform="matrix(0.05,0,0,0.05,0,0)" xlink:href="#bf" id="s"/><path d="M97-269c9-18 26-28 38-43h36v5l-54 38H97zM30 0v-248h187v28H63v79h144v27H63v87h162V0H30" id="bg"/><use transform="matrix(0.05,0,0,0.05,0,0)" xlink:href="#bg" id="t"/><path d="M85-194c31 0 48 13 60 33l-1-100h32l1 261h-30c-2-10 0-23-3-31C134-8 116 4 85 4 32 4 16-35 15-94c0-66 23-100 70-100zm9 24c-40 0-46 34-46 75 0 40 6 74 45 74 42 0 51-32 51-76 0-42-9-74-50-73" id="bh"/><path d="M100-194c63 0 86 42 84 106H49c0 40 14 67 53 68 26 1 43-12 49-29l28 8c-11 28-37 45-77 45C44 4 14-33 15-96c1-61 26-98 85-98zm52 81c6-60-76-77-97-28-3 7-6 17-6 28h103" id="bi"/><g id="u"><use transform="matrix(0.05,0,0,0.05,0,0)" xlink:href="#bh"/><use transform="matrix(0.05,0,0,0.05,10,0)" xlink:href="#bi"/></g><path d="M84 4C-5 8 30-112 23-190h32v120c0 31 7 50 39 49 72-2 45-101 50-169h31l1 190h-30c-1-10 1-25-2-33-11 22-28 36-60 37" id="bj"/><g id="v"><use transform="matrix(0.05,0,0,0.05,0,0)" xlink:href="#bj"/><use transform="matrix(0.05,0,0,0.05,10,0)" xlink:href="#ba"/></g><path fill="#333" d="M67-125c0 53 21 87 73 88 37 1 54-22 65-47l45 17C233-25 199 4 140 4 58 4 20-42 15-125 8-235 124-281 211-232c18 10 29 29 36 50l-46 12c-8-25-30-41-62-41-52 0-71 34-72 86" id="bk"/><path fill="#333" d="M25 0v-261h50V0H25" id="bl"/><path fill="#333" d="M135-194c87-1 58 113 63 194h-50c-7-57 23-157-34-157-59 0-34 97-39 157H25l-1-190h47c2 12-1 28 3 38 12-26 28-41 61-42" id="bm"/><g id="w"><use transform="matrix(0.05,0,0,0.05,0,0)" xlink:href="#bk"/><use transform="matrix(0.05,0,0,0.05,12.950000000000001,0)" xlink:href="#bl"/><use transform="matrix(0.05,0,0,0.05,17.950000000000003,0)" xlink:href="#as"/><use transform="matrix(0.05,0,0,0.05,22.950000000000003,0)" xlink:href="#aq"/><use transform="matrix(0.05,0,0,0.05,32.95,0)" xlink:href="#bm"/><use transform="matrix(0.05,0,0,0.05,43.900000000000006,0)" xlink:href="#aP"/><use transform="matrix(0.05,0,0,0.05,49.85000000000001,0)" xlink:href="#aq"/></g><path fill="#333" d="M101-234c-31-9-42 10-38 44h38v23H63V0H32v-167H5v-23h27c-7-52 17-82 69-68v24" id="bn"/><g id="x"><use transform="matrix(0.05,0,0,0.05,0,0)" xlink:href="#bn"/><use transform="matrix(0.05,0,0,0.05,5,0)" xlink:href="#aK"/><use transform="matrix(0.05,0,0,0.05,8.95,0)" xlink:href="#aE"/><use transform="matrix(0.05,0,0,0.05,18.95,0)" xlink:href="#aB"/><use transform="matrix(0.05,0,0,0.05,28.950000000000003,0)" xlink:href="#aI"/><use transform="matrix(0.05,0,0,0.05,32.9,0)" xlink:href="#aK"/><use transform="matrix(0.05,0,0,0.05,36.85,0)" xlink:href="#aE"/><use transform="matrix(0.05,0,0,0.05,46.85,0)" xlink:href="#aw"/><use transform="matrix(0.05,0,0,0.05,56.85,0)" xlink:href="#aE"/><use transform="matrix(0.05,0,0,0.05,66.85,0)" xlink:href="#aB"/></g><g id="y"><use transform="matrix(0.05,0,0,0.05,0,0)" xlink:href="#aI"/><use transform="matrix(0.05,0,0,0.05,3.95,0)" xlink:href="#aF"/><use transform="matrix(0.05,0,0,0.05,13.949999999999998,0)" xlink:href="#aC"/><use transform="matrix(0.05,0,0,0.05,23.95,0)" xlink:href="#aA"/><use transform="matrix(0.05,0,0,0.05,29.899999999999995,0)" xlink:href="#aw"/><use transform="matrix(0.05,0,0,0.05,39.9,0)" xlink:href="#aE"/><use transform="matrix(0.05,0,0,0.05,49.9,0)" xlink:href="#aF"/><use transform="matrix(0.05,0,0,0.05,59.900000000000006,0)" xlink:href="#aG"/><use transform="matrix(0.05,0,0,0.05,69.9,0)" xlink:href="#aA"/><use transform="matrix(0.05,0,0,0.05,75.85000000000001,0)" xlink:href="#aF"/></g><g id="z"><use transform="matrix(0.05,0,0,0.05,0,0)" xlink:href="#aH"/><use transform="matrix(0.05,0,0,0.05,10,0)" xlink:href="#aw"/><use transform="matrix(0.05,0,0,0.05,20,0)" xlink:href="#aK"/><use transform="matrix(0.05,0,0,0.05,23.95,0)" xlink:href="#aA"/><use transform="matrix(0.05,0,0,0.05,29.899999999999995,0)" xlink:href="#aA"/><use transform="matrix(0.05,0,0,0.05,35.85,0)" xlink:href="#aF"/><use transform="matrix(0.05,0,0,0.05,45.85,0)" xlink:href="#aD"/></g><g id="A"><use transform="matrix(0.05,0,0,0.05,0,0)" xlink:href="#aM"/><use transform="matrix(0.05,0,0,0.05,9,0)" xlink:href="#aK"/><use transform="matrix(0.05,0,0,0.05,12.949999999999998,0)" xlink:href="#aE"/><use transform="matrix(0.05,0,0,0.05,22.95,0)" xlink:href="#aw"/><use transform="matrix(0.05,0,0,0.05,32.95,0)" xlink:href="#aE"/><use transform="matrix(0.05,0,0,0.05,42.95,0)" xlink:href="#aB"/><use transform="matrix(0.05,0,0,0.05,52.95,0)" xlink:href="#aD"/></g><path fill="#333" d="M85 4C-2 5 27-109 22-190h50c7 57-23 150 33 157 60-5 35-97 40-157h50l1 190h-47c-2-12 1-28-3-38-12 25-28 42-61 42" id="bo"/><path fill="#333" d="M135-194c53 0 70 44 70 98 0 56-19 98-73 100-31 1-45-17-59-34 3 33 2 69 2 105H25l-1-265h48c2 10 0 23 3 31 11-24 29-35 60-35zM114-30c33 0 39-31 40-66 0-38-9-64-40-64-56 0-55 130 0 130" id="bp"/><path fill="#333" d="M24-248c120-7 223 5 221 122C244-46 201 0 124 0H24v-248zM76-40c74 7 117-18 117-86 0-67-45-88-117-82v168" id="bq"/><path fill="#333" d="M137-138c1-29-70-34-71-4 15 46 118 7 119 86 1 83-164 76-172 9l43-7c4 19 20 25 44 25 33 8 57-30 24-41C81-84 22-81 20-136c-2-80 154-74 161-7" id="br"/><path fill="#333" d="M190-63c-7 42-38 67-86 67-59 0-84-38-90-98-12-110 154-137 174-36l-49 2c-2-19-15-32-35-32-30 0-35 28-38 64-6 74 65 87 74 30" id="bs"/><path fill="#333" d="M24 0v-248h195v40H76v63h132v40H76v65h150V0H24" id="bt"/><path fill="#333" d="M135-150c-39-12-60 13-60 57V0H25l-1-190h47c2 13-1 29 3 40 6-28 27-53 61-41v41" id="bu"/><path fill="#333" d="M195-6C206 82 75 100 31 46c-4-6-6-13-8-21l49-6c3 16 16 24 34 25 40 0 42-37 40-79-11 22-30 35-61 35-53 0-70-43-70-97 0-56 18-96 73-97 30 0 46 14 59 34l2-30h47zm-90-29c32 0 41-27 41-63 0-35-9-62-40-62-32 0-39 29-40 63 0 36 9 62 39 62" id="bv"/><path fill="#333" d="M133-34C117-15 103 5 69 4 32 3 11-16 11-54c-1-60 55-63 116-61 1-26-3-47-28-47-18 1-26 9-28 27l-52-2c7-38 36-58 82-57s74 22 75 68l1 82c-1 14 12 18 25 15v27c-30 8-71 5-69-32zm-48 3c29 0 43-24 42-57-32 0-66-3-65 30 0 17 8 27 23 27" id="bw"/><g id="B"><use transform="matrix(0.05,0,0,0.05,0,0)" xlink:href="#bk"/><use transform="matrix(0.05,0,0,0.05,12.950000000000001,0)" xlink:href="#bo"/><use transform="matrix(0.05,0,0,0.05,23.900000000000002,0)" xlink:href="#bp"/><use transform="matrix(0.05,0,0,0.05,34.85,0)" xlink:href="#at"/><use transform="matrix(0.05,0,0,0.05,45.800000000000004,0)" xlink:href="#aQ"/><use transform="matrix(0.05,0,0,0.05,61.800000000000004,0)" xlink:href="#bq"/><use transform="matrix(0.05,0,0,0.05,74.75,0)" xlink:href="#aq"/><use transform="matrix(0.05,0,0,0.05,84.75,0)" xlink:href="#br"/><use transform="matrix(0.05,0,0,0.05,94.75,0)" xlink:href="#bs"/><use transform="matrix(0.05,0,0,0.05,104.75,0)" xlink:href="#at"/><use transform="matrix(0.05,0,0,0.05,115.7,0)" xlink:href="#bm"/><use transform="matrix(0.05,0,0,0.05,126.65,0)" xlink:href="#aP"/><use transform="matrix(0.05,0,0,0.05,132.6,0)" xlink:href="#at"/><use transform="matrix(0.05,0,0,0.05,143.54999999999998,0)" xlink:href="#bt"/><use transform="matrix(0.05,0,0,0.05,155.54999999999998,0)" xlink:href="#bm"/><use transform="matrix(0.05,0,0,0.05,166.49999999999997,0)" xlink:href="#aP"/><use transform="matrix(0.05,0,0,0.05,172.44999999999996,0)" xlink:href="#bu"/><use transform="matrix(0.05,0,0,0.05,179.44999999999996,0)" xlink:href="#aq"/><use transform="matrix(0.05,0,0,0.05,189.44999999999996,0)" xlink:href="#bv"/><use transform="matrix(0.05,0,0,0.05,200.39999999999995,0)" xlink:href="#bw"/></g><path fill="#333" d="M240 0l2-218c-23 76-54 145-80 218h-23L58-218 59 0H30v-248h44l77 211c21-75 51-140 76-211h43V0h-30" id="bx"/><g id="C"><use transform="matrix(0.05,0,0,0.05,0,0)" xlink:href="#az"/><use transform="matrix(0.05,0,0,0.05,10,0)" xlink:href="#aF"/><use transform="matrix(0.05,0,0,0.05,20,0)" xlink:href="#aR"/><use transform="matrix(0.05,0,0,0.05,34.95,0)" xlink:href="#aB"/><use transform="matrix(0.05,0,0,0.05,44.95,0)" xlink:href="#bx"/><use transform="matrix(0.05,0,0,0.05,59.900000000000006,0)" xlink:href="#aB"/><use transform="matrix(0.05,0,0,0.05,69.9,0)" xlink:href="#av"/><use transform="matrix(0.05,0,0,0.05,74.9,0)" xlink:href="#aF"/><use transform="matrix(0.05,0,0,0.05,84.9,0)" xlink:href="#aE"/><use transform="matrix(0.05,0,0,0.05,94.9,0)" xlink:href="#aF"/></g><path fill="#333" d="M135-143c-3-34-86-38-87 0 15 53 115 12 119 90S17 21 10-45l28-5c4 36 97 45 98 0-10-56-113-15-118-90-4-57 82-63 122-42 12 7 21 19 24 35" id="by"/><g id="D"><use transform="matrix(0.05,0,0,0.05,0,0)" xlink:href="#aU"/><use transform="matrix(0.05,0,0,0.05,9,0)" xlink:href="#aw"/><use transform="matrix(0.05,0,0,0.05,19,0)" xlink:href="#aI"/><use transform="matrix(0.05,0,0,0.05,22.95,0)" xlink:href="#aF"/><use transform="matrix(0.05,0,0,0.05,32.95,0)" xlink:href="#aA"/><use transform="matrix(0.05,0,0,0.05,38.900000000000006,0)" xlink:href="#aN"/><use transform="matrix(0.05,0,0,0.05,51.85,0)" xlink:href="#aB"/><use transform="matrix(0.05,0,0,0.05,61.85,0)" xlink:href="#by"/><use transform="matrix(0.05,0,0,0.05,70.85000000000001,0)" xlink:href="#aM"/><use transform="matrix(0.05,0,0,0.05,79.85000000000001,0)" xlink:href="#aF"/><use transform="matrix(0.05,0,0,0.05,89.85000000000001,0)" xlink:href="#az"/><use transform="matrix(0.05,0,0,0.05,99.85000000000001,0)" xlink:href="#av"/><use transform="matrix(0.05,0,0,0.05,104.85000000000001,0)" xlink:href="#aF"/></g><g id="E"><use transform="matrix(0.05,0,0,0.05,0,0)" xlink:href="#aE"/><use transform="matrix(0.05,0,0,0.05,10,0)" xlink:href="#aF"/><use transform="matrix(0.05,0,0,0.05,20,0)" xlink:href="#aG"/><use transform="matrix(0.05,0,0,0.05,30,0)" xlink:href="#aH"/><use transform="matrix(0.05,0,0,0.05,40,0)" xlink:href="#aI"/><use transform="matrix(0.05,0,0,0.05,43.95,0)" xlink:href="#aB"/></g><path d="M16-82v-28h88v28H16" id="bz"/><use transform="matrix(0.05,0,0,0.05,0,0)" xlink:href="#bz" id="F"/><path d="M24-231v-30h32v30H24zM24 0v-190h32V0H24" id="bA"/><path d="M117-194c89-4 53 116 60 194h-32v-121c0-31-8-49-39-48C34-167 62-67 57 0H25l-1-190h30c1 10-1 24 2 32 11-22 29-35 61-36" id="bB"/><g id="G"><use transform="matrix(0.05,0,0,0.05,0,0)" xlink:href="#bA"/><use transform="matrix(0.05,0,0,0.05,3.95,0)" xlink:href="#bd"/><use transform="matrix(0.05,0,0,0.05,8.95,0)" xlink:href="#bi"/><use transform="matrix(0.05,0,0,0.05,18.95,0)" xlink:href="#bB"/><use transform="matrix(0.05,0,0,0.05,28.950000000000003,0)" xlink:href="#bc"/></g><path d="M96-169c-40 0-48 33-48 73s9 75 48 75c24 0 41-14 43-38l32 2c-6 37-31 61-74 61-59 0-76-41-82-99-10-93 101-131 147-64 4 7 5 14 7 22l-32 3c-4-21-16-35-41-35" id="bC"/><path d="M24 0v-261h32V0H24" id="bD"/><g id="H"><use transform="matrix(0.05,0,0,0.05,0,0)" xlink:href="#bC"/><use transform="matrix(0.05,0,0,0.05,9,0)" xlink:href="#bD"/><use transform="matrix(0.05,0,0,0.05,12.949999999999998,0)" xlink:href="#bA"/><use transform="matrix(0.05,0,0,0.05,16.9,0)" xlink:href="#bi"/><use transform="matrix(0.05,0,0,0.05,26.899999999999995,0)" xlink:href="#bB"/><use transform="matrix(0.05,0,0,0.05,36.9,0)" xlink:href="#bd"/><use transform="matrix(0.05,0,0,0.05,41.9,0)" xlink:href="#bi"/></g><path d="M30-248c87 1 191-15 191 75 0 78-77 80-158 76V0H30v-248zm33 125c57 0 124 11 124-50 0-59-68-47-124-48v98" id="bE"/><g id="I"><use transform="matrix(0.05,0,0,0.05,0,0)" xlink:href="#bE"/><use transform="matrix(0.05,0,0,0.05,12,0)" xlink:href="#aZ"/><use transform="matrix(0.05,0,0,0.05,22,0)" xlink:href="#bh"/><use transform="matrix(0.05,0,0,0.05,32,0)" xlink:href="#bi"/></g><g id="J"><use transform="matrix(0.05,0,0,0.05,0,0)" xlink:href="#bd"/><use transform="matrix(0.05,0,0,0.05,5,0)" xlink:href="#bi"/><use transform="matrix(0.05,0,0,0.05,15,0)" xlink:href="#be"/></g><g id="K"><use transform="matrix(0.05,0,0,0.05,0,0)" xlink:href="#bh"/><use transform="matrix(0.05,0,0,0.05,10,0)" xlink:href="#bi"/><use transform="matrix(0.05,0,0,0.05,20,0)" xlink:href="#bc"/><use transform="matrix(0.05,0,0,0.05,29,0)" xlink:href="#bC"/><use transform="matrix(0.05,0,0,0.05,38,0)" xlink:href="#aZ"/><use transform="matrix(0.05,0,0,0.05,48,0)" xlink:href="#bB"/><use transform="matrix(0.05,0,0,0.05,58,0)" xlink:href="#bd"/><use transform="matrix(0.05,0,0,0.05,63,0)" xlink:href="#aZ"/></g><path d="M141-36C126-15 110 5 73 4 37 3 15-17 15-53c-1-64 63-63 125-63 3-35-9-54-41-54-24 1-41 7-42 31l-33-3c5-37 33-52 76-52 45 0 72 20 72 64v82c-1 20 7 32 28 27v20c-31 9-61-2-59-35zM48-53c0 20 12 33 32 33 41-3 63-29 60-74-43 2-92-5-92 41" id="bF"/><g id="L"><use transform="matrix(0.05,0,0,0.05,0,0)" xlink:href="#bB"/><use transform="matrix(0.05,0,0,0.05,10,0)" xlink:href="#bF"/></g><path d="M141 0L90-78 38 0H4l68-98-65-92h35l48 74 47-74h35l-64 92 68 98h-35" id="bG"/><g id="M"><use transform="matrix(0.05,0,0,0.05,0,0)" xlink:href="#bd"/><use transform="matrix(0.05,0,0,0.05,5,0)" xlink:href="#bF"/><use transform="matrix(0.05,0,0,0.05,15,0)" xlink:href="#bG"/><use transform="matrix(0.05,0,0,0.05,24,0)" xlink:href="#bF"/></g><path d="M177-190C167-65 218 103 67 71c-23-6-38-20-44-43l32-5c15 47 100 32 89-28v-30C133-14 115 1 83 1 29 1 15-40 15-95c0-56 16-97 71-98 29-1 48 16 59 35 1-10 0-23 2-32h30zM94-22c36 0 50-32 50-73 0-42-14-75-50-75-39 0-46 34-46 75s6 73 46 73" id="bH"/><g id="N"><use transform="matrix(0.05,0,0,0.05,0,0)" xlink:href="#bi"/><use transform="matrix(0.05,0,0,0.05,10,0)" xlink:href="#bB"/><use transform="matrix(0.05,0,0,0.05,20,0)" xlink:href="#bd"/><use transform="matrix(0.05,0,0,0.05,25,0)" xlink:href="#be"/><use transform="matrix(0.05,0,0,0.05,30.950000000000003,0)" xlink:href="#bi"/><use transform="matrix(0.05,0,0,0.05,40.95,0)" xlink:href="#bH"/><use transform="matrix(0.05,0,0,0.05,50.95,0)" xlink:href="#bF"/></g><path d="M30-248c118-7 216 8 213 122C240-48 200 0 122 0H30v-248zM63-27c89 8 146-16 146-99s-60-101-146-95v194" id="bI"/><path d="M30 0v-248h187v28H63v79h144v27H63v87h162V0H30" id="bJ"/><g id="O"><use transform="matrix(0.05,0,0,0.05,0,0)" xlink:href="#bC"/><use transform="matrix(0.05,0,0,0.05,9,0)" xlink:href="#bj"/><use transform="matrix(0.05,0,0,0.05,19,0)" xlink:href="#bb"/><use transform="matrix(0.05,0,0,0.05,29,0)" xlink:href="#aZ"/><use transform="matrix(0.05,0,0,0.05,39,0)" xlink:href="#bB"/><use transform="matrix(0.05,0,0,0.05,49,0)" xlink:href="#bc"/><use transform="matrix(0.05,0,0,0.05,58,0)" xlink:href="#bI"/><use transform="matrix(0.05,0,0,0.05,70.95,0)" xlink:href="#bi"/><use transform="matrix(0.05,0,0,0.05,80.95,0)" xlink:href="#bc"/><use transform="matrix(0.05,0,0,0.05,89.95,0)" xlink:href="#bC"/><use transform="matrix(0.05,0,0,0.05,98.95,0)" xlink:href="#aZ"/><use transform="matrix(0.05,0,0,0.05,108.95,0)" xlink:href="#bB"/><use transform="matrix(0.05,0,0,0.05,118.95,0)" xlink:href="#bd"/><use transform="matrix(0.05,0,0,0.05,123.95,0)" xlink:href="#aZ"/><use transform="matrix(0.05,0,0,0.05,133.95,0)" xlink:href="#bJ"/><use transform="matrix(0.05,0,0,0.05,145.95,0)" xlink:href="#bB"/><use transform="matrix(0.05,0,0,0.05,155.95,0)" xlink:href="#bd"/><use transform="matrix(0.05,0,0,0.05,160.95,0)" xlink:href="#be"/><use transform="matrix(0.05,0,0,0.05,166.89999999999998,0)" xlink:href="#bi"/><use transform="matrix(0.05,0,0,0.05,176.89999999999998,0)" xlink:href="#bH"/><use transform="matrix(0.05,0,0,0.05,186.89999999999998,0)" xlink:href="#bF"/></g><path fill="#a9afb8" d="M230 0l2-204L168 0h-37L68-204 70 0H24v-248h70l56 185 57-185h69V0h-46" id="bK"/><path fill="#a9afb8" d="M110-194c64 0 96 36 96 99 0 64-35 99-97 99-61 0-95-36-95-99 0-62 34-99 96-99zm-1 164c35 0 45-28 45-65 0-40-10-65-43-65-34 0-45 26-45 65 0 36 10 65 43 65" id="bL"/><path fill="#a9afb8" d="M88-194c31-1 46 15 58 34l-1-101h50l1 261h-48c-2-10 0-23-3-31C134-8 116 4 84 4 32 4 16-41 15-95c0-56 19-97 73-99zm17 164c33 0 40-30 41-66 1-37-9-64-41-64s-38 30-39 65c0 43 13 65 39 65" id="bM"/><path fill="#a9afb8" d="M185-48c-13 30-37 53-82 52C43 2 14-33 14-96s30-98 90-98c62 0 83 45 84 108H66c0 31 8 55 39 56 18 0 30-7 34-22zm-45-69c5-46-57-63-70-21-2 6-4 13-4 21h74" id="bN"/><path fill="#a9afb8" d="M25 0v-261h50V0H25" id="bO"/><g id="P"><use transform="matrix(0.0728395061728395,0,0,0.0728395061728395,0,0)" xlink:href="#bK"/><use transform="matrix(0.0728395061728395,0,0,0.0728395061728395,21.77901234567901,0)" xlink:href="#bL"/><use transform="matrix(0.0728395061728395,0,0,0.0728395061728395,37.73086419753086,0)" xlink:href="#bM"/><use transform="matrix(0.0728395061728395,0,0,0.0728395061728395,53.68271604938271,0)" xlink:href="#bN"/><use transform="matrix(0.0728395061728395,0,0,0.0728395061728395,68.25061728395062,0)" xlink:href="#bO"/><use transform="matrix(0.0728395061728395,0,0,0.0728395061728395,75.53456790123457,0)" xlink:href="#bL"/></g><path fill="#a9afb8" d="M67-125c0 53 21 87 73 88 37 1 54-22 65-47l45 17C233-25 199 4 140 4 58 4 20-42 15-125 8-235 124-281 211-232c18 10 29 29 36 50l-46 12c-8-25-30-41-62-41-52 0-71 34-72 86" id="bP"/><path fill="#a9afb8" d="M135-194c87-1 58 113 63 194h-50c-7-57 23-157-34-157-59 0-34 97-39 157H25l-1-190h47c2 12-1 28 3 38 12-26 28-41 61-42" id="bQ"/><path fill="#a9afb8" d="M190-63c-7 42-38 67-86 67-59 0-84-38-90-98-12-110 154-137 174-36l-49 2c-2-19-15-32-35-32-30 0-35 28-38 64-6 74 65 87 74 30" id="bR"/><path fill="#a9afb8" d="M25-224v-37h50v37H25zM25 0v-190h50V0H25" id="bS"/><path fill="#a9afb8" d="M115-3C79 11 28 4 28-45v-112H4v-33h27l15-45h31v45h36v33H77v99c-1 23 16 31 38 25v30" id="bT"/><path fill="#a9afb8" d="M85 4C-2 5 27-109 22-190h50c7 57-23 150 33 157 60-5 35-97 40-157h50l1 190h-47c-2-12 1-28-3-38-12 25-28 42-61 42" id="bU"/><path fill="#a9afb8" d="M133-34C117-15 103 5 69 4 32 3 11-16 11-54c-1-60 55-63 116-61 1-26-3-47-28-47-18 1-26 9-28 27l-52-2c7-38 36-58 82-57s74 22 75 68l1 82c-1 14 12 18 25 15v27c-30 8-71 5-69-32zm-48 3c29 0 43-24 42-57-32 0-66-3-65 30 0 17 8 27 23 27" id="bV"/><g id="Q"><use transform="matrix(0.0728395061728395,0,0,0.0728395061728395,0,0)" xlink:href="#bP"/><use transform="matrix(0.0728395061728395,0,0,0.0728395061728395,18.86543209876543,0)" xlink:href="#bL"/><use transform="matrix(0.0728395061728395,0,0,0.0728395061728395,34.81728395061728,0)" xlink:href="#bQ"/><use transform="matrix(0.0728395061728395,0,0,0.0728395061728395,50.76913580246913,0)" xlink:href="#bR"/><use transform="matrix(0.0728395061728395,0,0,0.0728395061728395,65.33703703703704,0)" xlink:href="#bN"/><use transform="matrix(0.0728395061728395,0,0,0.0728395061728395,79.90493827160493,0)" xlink:href="#bS"/><use transform="matrix(0.0728395061728395,0,0,0.0728395061728395,87.18888888888888,0)" xlink:href="#bT"/><use transform="matrix(0.0728395061728395,0,0,0.0728395061728395,95.85679012345679,0)" xlink:href="#bU"/><use transform="matrix(0.0728395061728395,0,0,0.0728395061728395,111.80864197530865,0)" xlink:href="#bV"/><use transform="matrix(0.0728395061728395,0,0,0.0728395061728395,126.37654320987654,0)" xlink:href="#bO"/></g><path fill="#a9afb8" d="M14-72v-43h91v43H14" id="bW"/><use transform="matrix(0.0728395061728395,0,0,0.0728395061728395,0,0)" xlink:href="#bW" id="R"/><path fill="#a9afb8" d="M169-182c-1-43-94-46-97-3 18 66 151 10 154 114 3 95-165 93-204 36-6-8-10-19-12-30l50-8c3 46 112 56 116 5-17-69-150-10-154-114-4-87 153-88 188-35 5 8 8 18 10 28" id="bX"/><path fill="#a9afb8" d="M137-138c1-29-70-34-71-4 15 46 118 7 119 86 1 83-164 76-172 9l43-7c4 19 20 25 44 25 33 8 57-30 24-41C81-84 22-81 20-136c-2-80 154-74 161-7" id="bY"/><path fill="#a9afb8" d="M220-157c-53 9-28 100-34 157h-49v-107c1-27-5-49-29-50C55-147 81-57 75 0H25l-1-190h47c2 12-1 28 3 38 10-53 101-56 108 0 13-22 24-43 59-42 82 1 51 116 57 194h-49v-107c-1-25-5-48-29-50" id="bZ"/><g id="S"><use transform="matrix(0.0728395061728395,0,0,0.0728395061728395,0,0)" xlink:href="#bX"/><use transform="matrix(0.0728395061728395,0,0,0.0728395061728395,17.48148148148148,0)" xlink:href="#bS"/><use transform="matrix(0.0728395061728395,0,0,0.0728395061728395,24.76543209876543,0)" xlink:href="#bY"/><use transform="matrix(0.0728395061728395,0,0,0.0728395061728395,39.333333333333336,0)" xlink:href="#bT"/><use transform="matrix(0.0728395061728395,0,0,0.0728395061728395,48.00123456790123,0)" xlink:href="#bN"/><use transform="matrix(0.0728395061728395,0,0,0.0728395061728395,62.56913580246913,0)" xlink:href="#bZ"/><use transform="matrix(0.0728395061728395,0,0,0.0728395061728395,85.87777777777777,0)" xlink:href="#bV"/></g><path fill="#a9afb8" d="M24-248c120-7 223 5 221 122C244-46 201 0 124 0H24v-248zM76-40c74 7 117-18 117-86 0-67-45-88-117-82v168" id="ca"/><path fill="#a9afb8" d="M128 0H69L1-190h53L99-40l48-150h52" id="cb"/><path fill="#a9afb8" d="M135-150c-39-12-60 13-60 57V0H25l-1-190h47c2 13-1 29 3 40 6-28 27-53 61-41v41" id="cc"/><path fill="#a9afb8" d="M123 10C108 53 80 86 19 72V37c35 8 53-11 59-39L3-190h52l48 148c12-52 28-100 44-148h51" id="cd"/><g id="T"><use transform="matrix(0.0728395061728395,0,0,0.0728395061728395,0,0)" xlink:href="#ca"/><use transform="matrix(0.0728395061728395,0,0,0.0728395061728395,18.86543209876543,0)" xlink:href="#bN"/><use transform="matrix(0.0728395061728395,0,0,0.0728395061728395,33.43333333333333,0)" xlink:href="#bO"/><use transform="matrix(0.0728395061728395,0,0,0.0728395061728395,40.717283950617286,0)" xlink:href="#bS"/><use transform="matrix(0.0728395061728395,0,0,0.0728395061728395,48.00123456790123,0)" xlink:href="#cb"/><use transform="matrix(0.0728395061728395,0,0,0.0728395061728395,62.56913580246913,0)" xlink:href="#bN"/><use transform="matrix(0.0728395061728395,0,0,0.0728395061728395,77.13703703703703,0)" xlink:href="#cc"/><use transform="matrix(0.0728395061728395,0,0,0.0728395061728395,87.33456790123456,0)" xlink:href="#cd"/></g><path fill="#a9afb8" d="M143 4C61 4 22-44 18-125c-5-107 100-154 193-111 17 8 29 25 37 43l-32 9c-13-25-37-40-76-40-61 0-88 39-88 99 0 61 29 100 91 101 35 0 62-11 79-27v-45h-74v-28h105v86C228-13 192 4 143 4" id="ce"/><path fill="#a9afb8" d="M141-36C126-15 110 5 73 4 37 3 15-17 15-53c-1-64 63-63 125-63 3-35-9-54-41-54-24 1-41 7-42 31l-33-3c5-37 33-52 76-52 45 0 72 20 72 64v82c-1 20 7 32 28 27v20c-31 9-61-2-59-35zM48-53c0 20 12 33 32 33 41-3 63-29 60-74-43 2-92-5-92 41" id="cf"/><path fill="#a9afb8" d="M115-194c53 0 69 39 70 98 0 66-23 100-70 100C84 3 66-7 56-30L54 0H23l1-261h32v101c10-23 28-34 59-34zm-8 174c40 0 45-34 45-75 0-40-5-75-45-74-42 0-51 32-51 76 0 43 10 73 51 73" id="cg"/><path fill="#a9afb8" d="M114-163C36-179 61-72 57 0H25l-1-190h30c1 12-1 29 2 39 6-27 23-49 58-41v29" id="ch"/><path fill="#a9afb8" d="M24-231v-30h32v30H24zM24 0v-190h32V0H24" id="ci"/><path fill="#a9afb8" d="M100-194c63 0 86 42 84 106H49c0 40 14 67 53 68 26 1 43-12 49-29l28 8c-11 28-37 45-77 45C44 4 14-33 15-96c1-61 26-98 85-98zm52 81c6-60-76-77-97-28-3 7-6 17-6 28h103" id="cj"/><path fill="#a9afb8" d="M24 0v-261h32V0H24" id="ck"/><g id="U"><use transform="matrix(0.04248971193415638,0,0,0.04248971193415638,0,0)" xlink:href="#ce"/><use transform="matrix(0.04248971193415638,0,0,0.04248971193415638,11.897119341563785,0)" xlink:href="#cf"/><use transform="matrix(0.04248971193415638,0,0,0.04248971193415638,20.39506172839506,0)" xlink:href="#cg"/><use transform="matrix(0.04248971193415638,0,0,0.04248971193415638,28.893004115226333,0)" xlink:href="#ch"/><use transform="matrix(0.04248971193415638,0,0,0.04248971193415638,33.94927983539094,0)" xlink:href="#ci"/><use transform="matrix(0.04248971193415638,0,0,0.04248971193415638,37.30596707818929,0)" xlink:href="#cj"/><use transform="matrix(0.04248971193415638,0,0,0.04248971193415638,45.80390946502057,0)" xlink:href="#ck"/></g><path fill="#a9afb8" d="M127-220V0H93v-220H8v-28h204v28h-85" id="cl"/><path fill="#a9afb8" d="M59-47c-2 24 18 29 38 22v24C64 9 27 4 27-40v-127H5v-23h24l9-43h21v43h35v23H59v120" id="cm"/><path fill="#a9afb8" d="M9 0v-24l116-142H16v-24h144v24L44-24h123V0H9" id="cn"/><path fill="#a9afb8" d="M117-194c89-4 53 116 60 194h-32v-121c0-31-8-49-39-48C34-167 62-67 57 0H25l-1-190h30c1 10-1 24 2 32 11-22 29-35 61-36" id="co"/><g id="V"><use transform="matrix(0.04248971193415638,0,0,0.04248971193415638,0,0)" xlink:href="#cl"/><use transform="matrix(0.04248971193415638,0,0,0.04248971193415638,7.605658436213991,0)" xlink:href="#cj"/><use transform="matrix(0.04248971193415638,0,0,0.04248971193415638,16.103600823045266,0)" xlink:href="#cm"/><use transform="matrix(0.04248971193415638,0,0,0.04248971193415638,20.352572016460904,0)" xlink:href="#cn"/><use transform="matrix(0.04248971193415638,0,0,0.04248971193415638,28.000720164609053,0)" xlink:href="#co"/><use transform="matrix(0.04248971193415638,0,0,0.04248971193415638,36.498662551440326,0)" xlink:href="#cj"/><use transform="matrix(0.04248971193415638,0,0,0.04248971193415638,44.9966049382716,0)" xlink:href="#ch"/></g><path fill="#a9afb8" d="M32 76v-337h29V76H32" id="cp"/><use transform="matrix(0.04248971193415638,0,0,0.04248971193415638,0,0)" xlink:href="#cp" id="W"/><path fill="#a9afb8" d="M190 0L58-211 59 0H30v-248h39L202-35l-2-213h31V0h-41" id="cq"/><path fill="#a9afb8" d="M100-194c62-1 85 37 85 99 1 63-27 99-86 99S16-35 15-95c0-66 28-99 85-99zM99-20c44 1 53-31 53-75 0-43-8-75-51-75s-53 32-53 75 10 74 51 75" id="cr"/><path fill="#a9afb8" d="M108 0H70L1-190h34L89-25l56-165h34" id="cs"/><path fill="#a9afb8" d="M210-169c-67 3-38 105-44 169h-31v-121c0-29-5-50-35-48C34-165 62-65 56 0H25l-1-190h30c1 10-1 24 2 32 10-44 99-50 107 0 11-21 27-35 58-36 85-2 47 119 55 194h-31v-121c0-29-5-49-35-48" id="ct"/><g id="X"><use transform="matrix(0.04248971193415638,0,0,0.04248971193415638,0,0)" xlink:href="#cq"/><use transform="matrix(0.04248971193415638,0,0,0.04248971193415638,11.004835390946502,0)" xlink:href="#cr"/><use transform="matrix(0.04248971193415638,0,0,0.04248971193415638,19.502777777777776,0)" xlink:href="#cs"/><use transform="matrix(0.04248971193415638,0,0,0.04248971193415638,27.150925925925925,0)" xlink:href="#cj"/><use transform="matrix(0.04248971193415638,0,0,0.04248971193415638,35.6488683127572,0)" xlink:href="#ct"/><use transform="matrix(0.04248971193415638,0,0,0.04248971193415638,48.35329218106995,0)" xlink:href="#cg"/><use transform="matrix(0.04248971193415638,0,0,0.04248971193415638,56.851234567901244,0)" xlink:href="#cj"/><use transform="matrix(0.04248971193415638,0,0,0.04248971193415638,65.34917695473251,0)" xlink:href="#ch"/></g><path fill="#a9afb8" d="M101-251c82-7 93 87 43 132L82-64C71-53 59-42 53-27h129V0H18c2-99 128-94 128-182 0-28-16-43-45-43s-46 15-49 41l-32-3c6-41 34-60 81-64" id="cu"/><path fill="#a9afb8" d="M126-127c33 6 58 20 58 59 0 88-139 92-164 29-3-8-5-16-6-25l32-3c6 27 21 44 54 44 32 0 52-15 52-46 0-38-36-46-79-43v-28c39 1 72-4 72-42 0-27-17-43-46-43-28 0-47 15-49 41l-32-3c6-42 35-63 81-64 48-1 79 21 79 65 0 36-21 52-52 59" id="cv"/><path fill="#a9afb8" d="M68-38c1 34 0 65-14 84H32c9-13 17-26 17-46H33v-38h35" id="cw"/><g id="Y"><use transform="matrix(0.04248971193415638,0,0,0.04248971193415638,0,0)" xlink:href="#cu"/><use transform="matrix(0.04248971193415638,0,0,0.04248971193415638,8.497942386831275,0)" xlink:href="#cv"/><use transform="matrix(0.04248971193415638,0,0,0.04248971193415638,16.99588477366255,0)" xlink:href="#cw"/></g><path fill="#a9afb8" d="M101-251c68 0 85 55 85 127S166 4 100 4C33 4 14-52 14-124c0-73 17-127 87-127zm-1 229c47 0 54-49 54-102s-4-102-53-102c-51 0-55 48-55 102 0 53 5 102 54 102" id="cx"/><path fill="#a9afb8" d="M155-56V0h-30v-56H8v-25l114-167h33v167h35v25h-35zm-30-156c-27 46-58 90-88 131h88v-131" id="cy"/><g id="Z"><use transform="matrix(0.04248971193415638,0,0,0.04248971193415638,0,0)" xlink:href="#cu"/><use transform="matrix(0.04248971193415638,0,0,0.04248971193415638,8.497942386831275,0)" xlink:href="#cx"/><use transform="matrix(0.04248971193415638,0,0,0.04248971193415638,16.99588477366255,0)" xlink:href="#cu"/><use transform="matrix(0.04248971193415638,0,0,0.04248971193415638,25.493827160493822,0)" xlink:href="#cy"/></g><g id="aa"><use transform="matrix(0.05,0,0,0.05,0,0)" xlink:href="#bt"/><use transform="matrix(0.05,0,0,0.05,12,0)" xlink:href="#br"/><use transform="matrix(0.05,0,0,0.05,22,0)" xlink:href="#aP"/><use transform="matrix(0.05,0,0,0.05,27.950000000000003,0)" xlink:href="#bw"/><use transform="matrix(0.05,0,0,0.05,37.95,0)" xlink:href="#ar"/><use transform="matrix(0.05,0,0,0.05,48.900000000000006,0)" xlink:href="#at"/><use transform="matrix(0.05,0,0,0.05,59.85,0)" xlink:href="#ap"/><use transform="matrix(0.05,0,0,0.05,71.85000000000001,0)" xlink:href="#aq"/><use transform="matrix(0.05,0,0,0.05,81.85000000000001,0)" xlink:href="#ar"/><use transform="matrix(0.05,0,0,0.05,92.80000000000001,0)" xlink:href="#as"/><use transform="matrix(0.05,0,0,0.05,97.80000000000001,0)" xlink:href="#ar"/><use transform="matrix(0.05,0,0,0.05,108.75,0)" xlink:href="#at"/></g><g id="ab"><use transform="matrix(0.05,0,0,0.05,0,0)" xlink:href="#ap"/><use transform="matrix(0.05,0,0,0.05,12,0)" xlink:href="#bw"/><use transform="matrix(0.05,0,0,0.05,22,0)" xlink:href="#bv"/><use transform="matrix(0.05,0,0,0.05,32.95,0)" xlink:href="#bw"/><use transform="matrix(0.05,0,0,0.05,42.95,0)" xlink:href="#aQ"/><use transform="matrix(0.05,0,0,0.05,58.95,0)" xlink:href="#aq"/><use transform="matrix(0.05,0,0,0.05,68.95,0)" xlink:href="#bm"/><use transform="matrix(0.05,0,0,0.05,79.9,0)" xlink:href="#aP"/><use transform="matrix(0.05,0,0,0.05,85.85000000000001,0)" xlink:href="#at"/></g><g id="ac"><use transform="matrix(0.05,0,0,0.05,0,0)" xlink:href="#av"/><use transform="matrix(0.05,0,0,0.05,5,0)" xlink:href="#aK"/><use transform="matrix(0.05,0,0,0.05,8.95,0)" xlink:href="#aW"/><use transform="matrix(0.05,0,0,0.05,18.95,0)" xlink:href="#aF"/><use transform="matrix(0.05,0,0,0.05,28.950000000000003,0)" xlink:href="#aJ"/><use transform="matrix(0.05,0,0,0.05,40.95,0)" xlink:href="#aw"/><use transform="matrix(0.05,0,0,0.05,50.95,0)" xlink:href="#aC"/><use transform="matrix(0.05,0,0,0.05,60.95,0)" xlink:href="#aw"/><use transform="matrix(0.05,0,0,0.05,70.95,0)" xlink:href="#aR"/><use transform="matrix(0.05,0,0,0.05,85.9,0)" xlink:href="#aB"/><use transform="matrix(0.05,0,0,0.05,95.9,0)" xlink:href="#az"/><use transform="matrix(0.05,0,0,0.05,105.9,0)" xlink:href="#av"/><use transform="matrix(0.05,0,0,0.05,110.9,0)" xlink:href="#aF"/></g><g id="ad"><use transform="matrix(0.05,0,0,0.05,0,0)" xlink:href="#aU"/><use transform="matrix(0.05,0,0,0.05,9,0)" xlink:href="#aw"/><use transform="matrix(0.05,0,0,0.05,19,0)" xlink:href="#aI"/><use transform="matrix(0.05,0,0,0.05,22.95,0)" xlink:href="#aF"/><use transform="matrix(0.05,0,0,0.05,32.95,0)" xlink:href="#aA"/></g><g id="ae"><use transform="matrix(0.05,0,0,0.05,0,0)" xlink:href="#aE"/><use transform="matrix(0.05,0,0,0.05,10,0)" xlink:href="#aw"/><use transform="matrix(0.05,0,0,0.05,20,0)" xlink:href="#av"/><use transform="matrix(0.05,0,0,0.05,25,0)" xlink:href="#aw"/><use transform="matrix(0.05,0,0,0.05,35,0)" xlink:href="#aJ"/><use transform="matrix(0.05,0,0,0.05,47,0)" xlink:href="#aw"/><use transform="matrix(0.05,0,0,0.05,57,0)" xlink:href="#aC"/><use transform="matrix(0.05,0,0,0.05,67,0)" xlink:href="#aw"/><use transform="matrix(0.05,0,0,0.05,77,0)" xlink:href="#aR"/><use transform="matrix(0.05,0,0,0.05,91.95,0)" xlink:href="#aB"/><use transform="matrix(0.05,0,0,0.05,101.95,0)" xlink:href="#az"/><use transform="matrix(0.05,0,0,0.05,111.95,0)" xlink:href="#av"/><use transform="matrix(0.05,0,0,0.05,116.95,0)" xlink:href="#aF"/><use transform="matrix(0.05,0,0,0.05,126.95,0)" xlink:href="#aD"/></g><use transform="matrix(0.05,0,0,0.05,0,0)" xlink:href="#bf" id="ag"/><g id="ah"><use transform="matrix(0.05,0,0,0.05,0,0)" xlink:href="#bE"/><use transform="matrix(0.05,0,0,0.05,12,0)" xlink:href="#aZ"/><use transform="matrix(0.05,0,0,0.05,22,0)" xlink:href="#bc"/><use transform="matrix(0.05,0,0,0.05,31,0)" xlink:href="#bc"/><use transform="matrix(0.05,0,0,0.05,40,0)" xlink:href="#bj"/><use transform="matrix(0.05,0,0,0.05,50,0)" xlink:href="#bA"/></g><g id="ai"><use transform="matrix(0.05,0,0,0.05,0,0)" xlink:href="#bj"/><use transform="matrix(0.05,0,0,0.05,10,0)" xlink:href="#ba"/></g><g id="aj"><use transform="matrix(0.05,0,0,0.05,0,0)" xlink:href="#bi"/><use transform="matrix(0.05,0,0,0.05,10,0)" xlink:href="#bc"/><use transform="matrix(0.05,0,0,0.05,19,0)" xlink:href="#bd"/><use transform="matrix(0.05,0,0,0.05,24,0)" xlink:href="#bF"/><use transform="matrix(0.05,0,0,0.05,34,0)" xlink:href="#bh"/><use transform="matrix(0.05,0,0,0.05,44,0)" xlink:href="#aZ"/></g><path d="M158-156l-14 65h45v19h-49L124 0h-19l15-72H56L41 0H22l15-72H2v-19h39l14-65H11v-19h48l15-71h20l-16 71h64l16-71h19l-16 71h37v19h-40zm-83 0L61-91h63l14-65H75" id="cz"/><use transform="matrix(0.05,0,0,0.05,0,0)" xlink:href="#cz" id="ak"/><g id="al"><use transform="matrix(0.05,0,0,0.05,0,0)" xlink:href="#bb"/><use transform="matrix(0.05,0,0,0.05,10,0)" xlink:href="#bi"/><use transform="matrix(0.05,0,0,0.05,20,0)" xlink:href="#bh"/><use transform="matrix(0.05,0,0,0.05,30,0)" xlink:href="#bA"/><use transform="matrix(0.05,0,0,0.05,33.95,0)" xlink:href="#bh"/><use transform="matrix(0.05,0,0,0.05,43.95,0)" xlink:href="#aZ"/></g><path d="M101-234c-31-9-42 10-38 44h38v23H63V0H32v-167H5v-23h27c-7-52 17-82 69-68v24" id="cA"/><g id="am"><use transform="matrix(0.05,0,0,0.05,0,0)" xlink:href="#cA"/><use transform="matrix(0.05,0,0,0.05,5,0)" xlink:href="#aZ"/><use transform="matrix(0.05,0,0,0.05,15,0)" xlink:href="#be"/><use transform="matrix(0.05,0,0,0.05,20.95,0)" xlink:href="#ba"/><use transform="matrix(0.05,0,0,0.05,35.9,0)" xlink:href="#bF"/><use transform="matrix(0.05,0,0,0.05,45.9,0)" xlink:href="#bc"/></g><g id="an"><use transform="matrix(0.05,0,0,0.05,0,0)" xlink:href="#bh"/><use transform="matrix(0.05,0,0,0.05,10,0)" xlink:href="#bi"/></g><g id="ao"><use transform="matrix(0.05,0,0,0.05,0,0)" xlink:href="#cA"/><use transform="matrix(0.05,0,0,0.05,5,0)" xlink:href="#aZ"/><use transform="matrix(0.05,0,0,0.05,15,0)" xlink:href="#be"/><use transform="matrix(0.05,0,0,0.05,20.95,0)" xlink:href="#ba"/><use transform="matrix(0.05,0,0,0.05,35.9,0)" xlink:href="#bF"/><use transform="matrix(0.05,0,0,0.05,45.9,0)" xlink:href="#bc"/><use transform="matrix(0.05,0,0,0.05,54.900000000000006,0)" xlink:href="#bE"/><use transform="matrix(0.05,0,0,0.05,66.9,0)" xlink:href="#bF"/><use transform="matrix(0.05,0,0,0.05,76.9,0)" xlink:href="#bH"/><use transform="matrix(0.05,0,0,0.05,86.9,0)" xlink:href="#bF"/><use transform="matrix(0.05,0,0,0.05,96.9,0)" xlink:href="#ba"/><use transform="matrix(0.05,0,0,0.05,111.85000000000001,0)" xlink:href="#bi"/><use transform="matrix(0.05,0,0,0.05,121.85000000000001,0)" xlink:href="#bB"/><use transform="matrix(0.05,0,0,0.05,131.85000000000002,0)" xlink:href="#bd"/><use transform="matrix(0.05,0,0,0.05,136.85000000000002,0)" xlink:href="#aZ"/></g></defs></g></svg>