<svg xmlns="http://www.w3.org/2000/svg" xmlns:xlink="http://www.w3.org/1999/xlink" xmlns:lucid="lucid" width="1796.38" height="1033.59"><g transform="translate(0 0)" lucid:page-tab-id="HWEp-vi-RSFO"><path d="M0 0h1796.38v1033.6H0z" fill="#fff"/><path d="M426.57 8a8 8 0 0 1 8-8h949.77a8 8 0 0 1 8 8v66.3a8 8 0 0 1-8 8H434.57a8 8 0 0 1-8-8z" stroke="#000" stroke-opacity="0" fill="#fff" fill-opacity="0"/><use xlink:href="#a" transform="matrix(1,0,0,1,430.5732763926713,3.9999999999999645) translate(252.53777777777776 44.08444444444444)"/><use xlink:href="#b" transform="matrix(1,0,0,1,430.5732763926713,3.9999999999999645) translate(351.3081481481481 44.08444444444444)"/><use xlink:href="#c" transform="matrix(1,0,0,1,430.5732763926713,3.9999999999999645) translate(389.11185185185184 44.08444444444444)"/><use xlink:href="#d" transform="matrix(1,0,0,1,430.5732763926713,3.9999999999999645) translate(486.4982716049383 44.08444444444444)"/><use xlink:href="#e" transform="matrix(1,0,0,1,430.5732763926713,3.9999999999999645) translate(502.45012345679015 44.08444444444444)"/><use xlink:href="#f" transform="matrix(1,0,0,1,430.5732763926713,3.9999999999999645) translate(610.1797530864199 44.08444444444444)"/><path d="M739.06 79.63h351.63M739.08 79.63h-.52M1090.68 79.63h.5" stroke="#a9afb8" fill="none"/><path d="M426.57 90.3a8 8 0 0 1 8-8h950.86a8 8 0 0 1 8 8V112a8 8 0 0 1-8 8H434.57a8 8 0 0 1-8-8z" stroke="#000" stroke-opacity="0" fill="#fff" fill-opacity="0"/><use xlink:href="#g" transform="matrix(1,0,0,1,430.5732763926717,86.31044791347817) translate(353.5350514403292 19.39925925925926)"/><use xlink:href="#h" transform="matrix(1,0,0,1,430.5732763926717,86.31044791347817) translate(406.94461934156374 19.39925925925926)"/><use xlink:href="#i" transform="matrix(1,0,0,1,430.5732763926717,86.31044791347817) translate(465.4954423868312 19.39925925925926)"/><use xlink:href="#j" transform="matrix(1,0,0,1,430.5732763926717,86.31044791347817) translate(477.94492798353906 19.39925925925926)"/><use xlink:href="#k" transform="matrix(1,0,0,1,430.5732763926717,86.31044791347817) translate(552.5993518518518 19.39925925925926)"/><use xlink:href="#l" transform="matrix(1,0,0,1,430.5732763926717,86.31044791347817) translate(578.0931790123457 19.39925925925926)"/><path d="M237.58 120H760v159H237.58z" stroke="#333" fill="#fff"/><path d="M237.58 157.6H760m-522.42 39.02H760" stroke="#333" fill="none"/><use xlink:href="#m" transform="matrix(1,0,0,1,245.57788866986067,127.99999999999994) translate(97.95000000000002 14.6)"/><use xlink:href="#n" transform="matrix(1,0,0,1,249.57788866986067,204.61786436459832) translate(0 15.500000000000002)"/><use xlink:href="#o" transform="matrix(1,0,0,1,249.57788866986067,204.61786436459832) translate(15.5 15.500000000000002)"/><use xlink:href="#p" transform="matrix(1,0,0,1,249.57788866986067,204.61786436459832) translate(0 37.1)"/><use xlink:href="#q" transform="matrix(1,0,0,1,249.57788866986067,204.61786436459832) translate(15.5 37.1)"/><use xlink:href="#r" transform="matrix(1,0,0,1,249.57788866986067,204.61786436459832) translate(262.09999999999997 37.1)"/><use xlink:href="#s" transform="matrix(1,0,0,1,249.57788866986067,204.61786436459832) translate(272.09999999999997 37.1)"/><use xlink:href="#p" transform="matrix(1,0,0,1,249.57788866986067,204.61786436459832) translate(0 58.7)"/><use xlink:href="#t" transform="matrix(1,0,0,1,249.57788866986067,204.61786436459832) translate(15.5 58.7)"/><path d="M237.58 420.3H760v129H237.58z" stroke="#333" fill="#fff"/><path d="M237.58 481.9H760" stroke="#333" fill="none"/><use xlink:href="#u" transform="matrix(1,0,0,1,245.57788866986067,428.3030206874709) translate(208.49444444444444 16.2)"/><use xlink:href="#v" transform="matrix(1,0,0,1,245.57788866986067,428.3030206874709) translate(125.02500000000003 38.6)"/><use xlink:href="#p" transform="matrix(1,0,0,1,249.57788866986067,489.9030206874709) translate(0 18.799999999999997)"/><use xlink:href="#w" transform="matrix(1,0,0,1,249.57788866986067,489.9030206874709) translate(15.5 18.799999999999997)"/><use xlink:href="#r" transform="matrix(1,0,0,1,249.57788866986067,489.9030206874709) translate(224.14999999999998 18.799999999999997)"/><use xlink:href="#s" transform="matrix(1,0,0,1,249.57788866986067,489.9030206874709) translate(234.14999999999998 18.799999999999997)"/><use xlink:href="#p" transform="matrix(1,0,0,1,249.57788866986067,489.9030206874709) translate(0 40.4)"/><use xlink:href="#x" transform="matrix(1,0,0,1,249.57788866986067,489.9030206874709) translate(15.5 40.4)"/><use xlink:href="#r" transform="matrix(1,0,0,1,249.57788866986067,489.9030206874709) translate(154.25 40.4)"/><use xlink:href="#y" transform="matrix(1,0,0,1,249.57788866986067,489.9030206874709) translate(164.25 40.4)"/><path d="M20 621.77h440v164H20z" stroke="#333" fill="#fff"/><path d="M20 659.37h440m-440 41.6h440" stroke="#333" fill="none"/><use xlink:href="#z" transform="matrix(1,0,0,1,28,629.7663540208628) translate(102.02500000000003 14.6)"/><use xlink:href="#A" transform="matrix(1,0,0,1,32,667.3663540208628) translate(0 16.6)"/><use xlink:href="#B" transform="matrix(1,0,0,1,32,667.3663540208628) translate(10.95 16.6)"/><use xlink:href="#r" transform="matrix(1,0,0,1,32,667.3663540208628) translate(195.09999999999997 16.6)"/><use xlink:href="#C" transform="matrix(1,0,0,1,32,667.3663540208628) translate(205.09999999999997 16.6)"/><use xlink:href="#D" transform="matrix(1,0,0,1,32,667.3663540208628) translate(307.45 16.6)"/><use xlink:href="#p" transform="matrix(1,0,0,1,32,708.9663540208628) translate(0 16.5)"/><use xlink:href="#E" transform="matrix(1,0,0,1,32,708.9663540208628) translate(15.5 16.5)"/><use xlink:href="#p" transform="matrix(1,0,0,1,32,708.9663540208628) translate(0 38.1)"/><use xlink:href="#F" transform="matrix(1,0,0,1,32,708.9663540208628) translate(15.5 38.1)"/><use xlink:href="#G" transform="matrix(1,0,0,1,32,708.9663540208628) translate(220.2 38.1)"/><use xlink:href="#r" transform="matrix(1,0,0,1,32,708.9663540208628) translate(285.1 38.1)"/><use xlink:href="#s" transform="matrix(1,0,0,1,32,708.9663540208628) translate(295.1 38.1)"/><use xlink:href="#p" transform="matrix(1,0,0,1,32,708.9663540208628) translate(0 59.7)"/><use xlink:href="#x" transform="matrix(1,0,0,1,32,708.9663540208628) translate(15.5 59.7)"/><use xlink:href="#r" transform="matrix(1,0,0,1,32,708.9663540208628) translate(154.25 59.7)"/><use xlink:href="#y" transform="matrix(1,0,0,1,32,708.9663540208628) translate(164.25 59.7)"/><path d="M677.58 617.77H1140v164H677.58z" stroke="#333" fill="#fff"/><path d="M677.58 655.37H1140m-462.42 41.6H1140" stroke="#333" fill="none"/><use xlink:href="#H" transform="matrix(1,0,0,1,685.5778886698607,625.7663540208628) translate(89.52500000000003 14.6)"/><use xlink:href="#A" transform="matrix(1,0,0,1,689.5778886698607,663.3663540208628) translate(0 16.6)"/><use xlink:href="#I" transform="matrix(1,0,0,1,689.5778886698607,663.3663540208628) translate(10.95 16.6)"/><use xlink:href="#r" transform="matrix(1,0,0,1,689.5778886698607,663.3663540208628) translate(173.74999999999994 16.6)"/><use xlink:href="#C" transform="matrix(1,0,0,1,689.5778886698607,663.3663540208628) translate(183.74999999999994 16.6)"/><use xlink:href="#D" transform="matrix(1,0,0,1,689.5778886698607,663.3663540208628) translate(286.09999999999997 16.6)"/><g><use xlink:href="#p" transform="matrix(1,0,0,1,689.5778886698607,704.9798159092605) translate(0 16.5)"/><use xlink:href="#J" transform="matrix(1,0,0,1,689.5778886698607,704.9798159092605) translate(15.5 16.5)"/><use xlink:href="#p" transform="matrix(1,0,0,1,689.5778886698607,704.9798159092605) translate(0 38.1)"/><use xlink:href="#F" transform="matrix(1,0,0,1,689.5778886698607,704.9798159092605) translate(15.5 38.1)"/><use xlink:href="#G" transform="matrix(1,0,0,1,689.5778886698607,704.9798159092605) translate(220.2 38.1)"/><use xlink:href="#r" transform="matrix(1,0,0,1,689.5778886698607,704.9798159092605) translate(285.1 38.1)"/><use xlink:href="#s" transform="matrix(1,0,0,1,689.5778886698607,704.9798159092605) translate(295.1 38.1)"/><use xlink:href="#p" transform="matrix(1,0,0,1,689.5778886698607,704.9798159092605) translate(0 59.7)"/><use xlink:href="#x" transform="matrix(1,0,0,1,689.5778886698607,704.9798159092605) translate(15.5 59.7)"/><use xlink:href="#r" transform="matrix(1,0,0,1,689.5778886698607,704.9798159092605) translate(154.25 59.7)"/><use xlink:href="#y" transform="matrix(1,0,0,1,689.5778886698607,704.9798159092605) translate(164.25 59.7)"/></g><path d="M20 845.27h440v178H20z" stroke="#333" fill="#fff"/><path d="M20 882.87h440m-440 59.2h440" stroke="#333" fill="none"/><g><use xlink:href="#K" transform="matrix(1,0,0,1,28,853.2663540208628) translate(87.35000000000004 14.6)"/></g><g><use xlink:href="#A" transform="matrix(1,0,0,1,32,890.8663540208628) translate(0 14.799999999999999)"/><use xlink:href="#L" transform="matrix(1,0,0,1,32,890.8663540208628) translate(10.95 14.799999999999999)"/><use xlink:href="#r" transform="matrix(1,0,0,1,32,890.8663540208628) translate(154.25 14.799999999999999)"/><use xlink:href="#M" transform="matrix(1,0,0,1,32,890.8663540208628) translate(164.25 14.799999999999999)"/><use xlink:href="#N" transform="matrix(1,0,0,1,32,890.8663540208628) translate(0 36.4)"/><use xlink:href="#O" transform="matrix(1,0,0,1,32,890.8663540208628) translate(10.95 36.4)"/><use xlink:href="#P" transform="matrix(1,0,0,1,32,890.8663540208628) translate(186.99999999999997 36.4)"/><use xlink:href="#Q" transform="matrix(1,0,0,1,32,890.8663540208628) translate(196.99999999999997 36.4)"/><use xlink:href="#R" transform="matrix(1,0,0,1,32,890.8663540208628) translate(255.95 36.4)"/><use xlink:href="#S" transform="matrix(1,0,0,1,32,890.8663540208628) translate(271.45 36.4)"/></g><g><use xlink:href="#p" transform="matrix(1,0,0,1,32,950.0663540208628) translate(0 14.500000000000002)"/><use xlink:href="#T" transform="matrix(1,0,0,1,32,950.0663540208628) translate(15.5 14.500000000000002)"/><use xlink:href="#p" transform="matrix(1,0,0,1,32,950.0663540208628) translate(0 36.1)"/><use xlink:href="#F" transform="matrix(1,0,0,1,32,950.0663540208628) translate(15.5 36.1)"/><use xlink:href="#G" transform="matrix(1,0,0,1,32,950.0663540208628) translate(220.2 36.1)"/><use xlink:href="#r" transform="matrix(1,0,0,1,32,950.0663540208628) translate(285.1 36.1)"/><use xlink:href="#s" transform="matrix(1,0,0,1,32,950.0663540208628) translate(295.1 36.1)"/><use xlink:href="#p" transform="matrix(1,0,0,1,32,950.0663540208628) translate(0 57.7)"/><use xlink:href="#x" transform="matrix(1,0,0,1,32,950.0663540208628) translate(15.5 57.7)"/><use xlink:href="#r" transform="matrix(1,0,0,1,32,950.0663540208628) translate(154.25 57.7)"/><use xlink:href="#y" transform="matrix(1,0,0,1,32,950.0663540208628) translate(164.25 57.7)"/></g><path d="M680 842.77h460v183H680z" stroke="#333" fill="#fff"/><path d="M680 880.37h460M680 931.7h460" stroke="#333" fill="none"/><g><use xlink:href="#U" transform="matrix(1,0,0,1,688.0000000000001,850.7663540208628) translate(65.80000000000004 14.6)"/></g><g><use xlink:href="#A" transform="matrix(1,0,0,1,692.0000000000001,888.3663540208628) translate(0 21.6)"/><use xlink:href="#V" transform="matrix(1,0,0,1,692.0000000000001,888.3663540208628) translate(10.95 21.6)"/><use xlink:href="#r" transform="matrix(1,0,0,1,692.0000000000001,888.3663540208628) translate(215.99999999999994 21.6)"/><use xlink:href="#C" transform="matrix(1,0,0,1,692.0000000000001,888.3663540208628) translate(225.99999999999994 21.6)"/><use xlink:href="#D" transform="matrix(1,0,0,1,692.0000000000001,888.3663540208628) translate(328.34999999999997 21.6)"/></g><g><use xlink:href="#p" transform="matrix(1,0,0,1,692.0000000000001,939.6957448394779) translate(0 21.5)"/><use xlink:href="#W" transform="matrix(1,0,0,1,692.0000000000001,939.6957448394779) translate(15.5 21.5)"/><use xlink:href="#p" transform="matrix(1,0,0,1,692.0000000000001,939.6957448394779) translate(0 43.1)"/><use xlink:href="#F" transform="matrix(1,0,0,1,692.0000000000001,939.6957448394779) translate(15.5 43.1)"/><use xlink:href="#G" transform="matrix(1,0,0,1,692.0000000000001,939.6957448394779) translate(220.2 43.1)"/><use xlink:href="#r" transform="matrix(1,0,0,1,692.0000000000001,939.6957448394779) translate(285.1 43.1)"/><use xlink:href="#s" transform="matrix(1,0,0,1,692.0000000000001,939.6957448394779) translate(295.1 43.1)"/><use xlink:href="#p" transform="matrix(1,0,0,1,692.0000000000001,939.6957448394779) translate(0 64.7)"/><use xlink:href="#x" transform="matrix(1,0,0,1,692.0000000000001,939.6957448394779) translate(15.5 64.7)"/><use xlink:href="#r" transform="matrix(1,0,0,1,692.0000000000001,939.6957448394779) translate(154.25 64.7)"/><use xlink:href="#y" transform="matrix(1,0,0,1,692.0000000000001,939.6957448394779) translate(164.25 64.7)"/></g><path d="M488.05 418.9h-.95V317.35h.95zm0-123.14h-.95V280h.95z" stroke="#333" stroke-width=".05" fill="#333"/><path d="M488.05 280h-.95v-.5h.95z" fill="#333"/><path stroke="#333" stroke-width=".05" fill="#333"/><path d="M498 401.72l-10.42 18.03-10.4-18.03.8-.48 9.6 16.6 9.6-16.6z" stroke="#333" stroke-width=".05" fill="#333"/><g><use xlink:href="#X" transform="matrix(1,0,0,1,462.5778886698607,380.93623829128967) translate(0 14.4)"/></g><g><use xlink:href="#Y" transform="matrix(1,0,0,1,483.07788866986067,295.76211101506277) translate(0.004999999999999893 14.4)"/></g><path d="M500 380.3h200v20H500z" fill="none"/><g><use xlink:href="#Z" transform="matrix(1,0,0,1,500,380.3030206874709) translate(10.599999999999994 14.4)"/><use xlink:href="#aa" transform="matrix(1,0,0,1,500,380.3030206874709) translate(21.549999999999994 14.4)"/></g><path d="M461 934.27h5.2m5.17 0h10.38m5.2 0h10.36m5.2 0h10.37m5.2 0h10.36m5.2 0h5.18l1.88-.15 1.83-.44 1.75-.72.54-.33m4.37-4.38l.33-.54.72-1.73.44-1.83.15-1.87v-5.07m0-5.06v-10.12m0-5.07v-10.12m0-5.06v-10.13m0-5.06v-10.13m0-5.06v-10.13m0-5.07v-10.12m0-5.06V810.9m0-5.07V795.7m0-5.06v-10.12m0-5.07v-10.12m0-5.06v-10.13m0-5.06v-10.13m0-5.06v-10.13m0-5.07v-10.12m0-5.06V689.4m0-5.07V674.2m0-5.06v-10.12m0-5.07v-10.12m0-5.06v-10.13m0-5.06v-10.13m0-5.06v-10.13m0-5.07v-10.12m0-5.06v-5.07" stroke="#333" fill="none"/><path d="M461 934.74h-.5v-.95h.5z" stroke="#333" stroke-width=".05" fill="#333"/><path d="M550.8 550.8l12.5 21.65h-25zM1240 610.27h540v179h-540z" stroke="#333" fill="#fff"/><path d="M1240 647.87h540m-540 48.93h540" stroke="#333" fill="none"/><g><use xlink:href="#ab" transform="matrix(1,0,0,1,1248,618.2663540208628) translate(124.90000000000003 14.6)"/></g><g><use xlink:href="#A" transform="matrix(1,0,0,1,1252,655.8663540208628) translate(0 20.1)"/><use xlink:href="#ac" transform="matrix(1,0,0,1,1252,655.8663540208628) translate(10.95 20.1)"/><use xlink:href="#r" transform="matrix(1,0,0,1,1252,655.8663540208628) translate(163.85 20.1)"/><use xlink:href="#ad" transform="matrix(1,0,0,1,1252,655.8663540208628) translate(173.85 20.1)"/><use xlink:href="#D" transform="matrix(1,0,0,1,1252,655.8663540208628) translate(310.20000000000005 20.1)"/></g><g><use xlink:href="#p" transform="matrix(1,0,0,1,1252,704.8013817887295) translate(0 20.5)"/><use xlink:href="#ae" transform="matrix(1,0,0,1,1252,704.8013817887295) translate(15.5 20.5)"/><use xlink:href="#p" transform="matrix(1,0,0,1,1252,704.8013817887295) translate(0 42.1)"/><use xlink:href="#F" transform="matrix(1,0,0,1,1252,704.8013817887295) translate(15.5 42.1)"/><use xlink:href="#G" transform="matrix(1,0,0,1,1252,704.8013817887295) translate(220.2 42.1)"/><use xlink:href="#r" transform="matrix(1,0,0,1,1252,704.8013817887295) translate(285.1 42.1)"/><use xlink:href="#s" transform="matrix(1,0,0,1,1252,704.8013817887295) translate(295.1 42.1)"/><use xlink:href="#p" transform="matrix(1,0,0,1,1252,704.8013817887295) translate(0 63.7)"/><use xlink:href="#x" transform="matrix(1,0,0,1,1252,704.8013817887295) translate(15.5 63.7)"/><use xlink:href="#r" transform="matrix(1,0,0,1,1252,704.8013817887295) translate(154.25 63.7)"/><use xlink:href="#y" transform="matrix(1,0,0,1,1252,704.8013817887295) translate(164.25 63.7)"/></g><path d="M162.2 620.77v-5.17m0-5.16V600.1m0-5.16V584.6m0-5.15V569.1m0-5.15v-10.33m0-5.17v-10.33m0-5.16v-10.33m0-5.17v-10.33m0-5.16v-5.17l.16-1.87.44-1.83.72-1.75.33-.53m4.38-4.38l.53-.33 1.74-.7 1.84-.45 1.87-.15h4.43m4.4 0h8.83m4.42 0h8.82m4.4 0h4.43" stroke="#333" fill="none"/><path d="M162.7 621.27h-.96v-.52h.95z" stroke="#333" stroke-width=".05" fill="#333"/><path d="M236.08 484.8l-21.65 12.5v-25z" stroke="#333" fill="#fff"/><path d="M679 934.27h-5.53m-5.53 0h-11.06m-5.53 0H640.3m-5.54 0h-5.53l-1.87-.15-1.84-.44-1.74-.72-.53-.33m-4.38-4.38l-.33-.54-.72-1.73-.44-1.83-.15-1.87v-5.07m0-5.06v-10.12m0-5.07v-10.12m0-5.06v-10.13m0-5.06v-10.13m0-5.06v-10.13m0-5.07v-10.12m0-5.06V810.9m0-5.07V795.7m0-5.06v-10.12m0-5.07v-10.12m0-5.06v-10.13m0-5.06v-10.13m0-5.06v-10.13m0-5.07v-10.12m0-5.06V689.4m0-5.07V674.2m0-5.06v-10.12m0-5.07v-10.12m0-5.06v-10.13m0-5.06v-10.13m0-5.06v-10.13m0-5.07v-10.12m0-5.06v-5.07" stroke="#333" fill="none"/><path d="M679.5 934.74h-.5v-.95h.5z" stroke="#333" stroke-width=".05" fill="#333"/><path d="M617.23 550.8l12.5 21.65h-25z" stroke="#333" fill="#fff"/><path d="M913 616.77v-4.62m0-4.62v-9.24m0-4.63v-9.23m0-4.62v-9.24m0-4.62v-9.23m0-4.62v-9.23m0-4.62v-4.6l-.15-1.9-.44-1.82-.7-1.74-.34-.55m-4.38-4.38l-.53-.33-1.74-.72-1.82-.44-1.88-.14h-4.9m-4.88 0h-9.78m-4.9 0h-9.77m-4.9 0h-9.77m-4.88 0h-9.78m-4.9 0h-9.77m-4.9 0h-9.77m-4.9 0h-9.77m-4.9 0h-4.88" stroke="#333" fill="none"/><path d="M913.48 617.27h-.95v-.52h.95z" stroke="#333" stroke-width=".05" fill="#333"/><path d="M761.5 521.64l21.65-12.5v25z" stroke="#333" fill="#fff"/><path d="M1510 609.27v-5.36m0-5.34v-10.7m0-5.37v-10.72m0-5.36v-10.7m0-5.36v-10.7m0-5.37v-10.72m0-5.36v-10.7m0-5.36v-5.36l-.15-1.87-.44-1.83-.7-1.75-.34-.53m-4.38-4.38l-.53-.33-1.74-.7-1.82-.45-1.88-.15h-4.96m-4.96 0h-9.92m-4.96 0h-9.92m-4.97 0h-9.9m-4.97 0h-9.92m-4.95 0h-9.92m-4.96 0h-9.92m-4.96 0h-9.94m-4.96 0h-9.92m-4.96 0h-9.92m-4.96 0h-9.92m-4.96 0h-9.93m-4.96 0h-9.92m-4.96 0h-9.93m-4.96 0h-9.9m-4.97 0h-9.92m-4.96 0h-9.92m-4.96 0h-9.92m-4.96 0h-9.92m-4.96 0h-9.92m-4.96 0h-9.93m-4.97 0h-9.92m-4.95 0h-9.92m-4.96 0h-9.92m-4.96 0h-9.93m-4.97 0h-9.92m-4.96 0h-9.92m-4.96 0h-9.92m-4.96 0h-9.92m-4.96 0h-9.93m-4.96 0h-9.93m-4.96 0h-9.9m-4.97 0h-9.92m-4.95 0h-9.93m-4.96 0h-9.92m-4.96 0h-9.92m-4.96 0h-9.92m-4.96 0h-9.93m-4.97 0h-9.92m-4.95 0h-9.92m-4.96 0h-9.92m-4.96 0h-9.93m-4.97 0H868m-4.96 0h-9.92m-4.96 0h-9.92m-4.96 0h-9.92m-4.96 0h-9.93m-4.96 0h-9.93m-4.96 0h-4.95" stroke="#333" fill="none"/><path d="M1510.47 609.77h-.94v-.52h.94z" stroke="#333" stroke-width=".05" fill="#333"/><path d="M761.5 484.8l21.65-12.5v25z" stroke="#333" fill="#fff"/><defs><path fill="#a9afb8" d="M230 0l2-204L168 0h-37L68-204 70 0H24v-248h70l56 185 57-185h69V0h-46" id="af"/><path fill="#a9afb8" d="M110-194c64 0 96 36 96 99 0 64-35 99-97 99-61 0-95-36-95-99 0-62 34-99 96-99zm-1 164c35 0 45-28 45-65 0-40-10-65-43-65-34 0-45 26-45 65 0 36 10 65 43 65" id="ag"/><path fill="#a9afb8" d="M88-194c31-1 46 15 58 34l-1-101h50l1 261h-48c-2-10 0-23-3-31C134-8 116 4 84 4 32 4 16-41 15-95c0-56 19-97 73-99zm17 164c33 0 40-30 41-66 1-37-9-64-41-64s-38 30-39 65c0 43 13 65 39 65" id="ah"/><path fill="#a9afb8" d="M185-48c-13 30-37 53-82 52C43 2 14-33 14-96s30-98 90-98c62 0 83 45 84 108H66c0 31 8 55 39 56 18 0 30-7 34-22zm-45-69c5-46-57-63-70-21-2 6-4 13-4 21h74" id="ai"/><path fill="#a9afb8" d="M25 0v-261h50V0H25" id="aj"/><g id="a"><use transform="matrix(0.0728395061728395,0,0,0.0728395061728395,0,0)" xlink:href="#af"/><use transform="matrix(0.0728395061728395,0,0,0.0728395061728395,21.77901234567901,0)" xlink:href="#ag"/><use transform="matrix(0.0728395061728395,0,0,0.0728395061728395,37.73086419753086,0)" xlink:href="#ah"/><use transform="matrix(0.0728395061728395,0,0,0.0728395061728395,53.68271604938271,0)" xlink:href="#ai"/><use transform="matrix(0.0728395061728395,0,0,0.0728395061728395,68.25061728395062,0)" xlink:href="#aj"/><use transform="matrix(0.0728395061728395,0,0,0.0728395061728395,75.53456790123457,0)" xlink:href="#ag"/></g><g id="b"><use transform="matrix(0.0728395061728395,0,0,0.0728395061728395,0,0)" xlink:href="#ah"/><use transform="matrix(0.0728395061728395,0,0,0.0728395061728395,15.95185185185185,0)" xlink:href="#ai"/></g><path fill="#a9afb8" d="M24-248c93 1 206-16 204 79-1 75-69 88-152 82V0H24v-248zm52 121c47 0 100 7 100-41 0-47-54-39-100-39v80" id="ak"/><path fill="#a9afb8" d="M135-150c-39-12-60 13-60 57V0H25l-1-190h47c2 13-1 29 3 40 6-28 27-53 61-41v41" id="al"/><path fill="#a9afb8" d="M25-224v-37h50v37H25zM75 22c2 45-34 59-81 51V38c22 5 31-5 31-27v-201h50V22" id="am"/><path fill="#a9afb8" d="M115-3C79 11 28 4 28-45v-112H4v-33h27l15-45h31v45h36v33H77v99c-1 23 16 31 38 25v30" id="an"/><g id="c"><use transform="matrix(0.0728395061728395,0,0,0.0728395061728395,0,0)" xlink:href="#ak"/><use transform="matrix(0.0728395061728395,0,0,0.0728395061728395,17.48148148148148,0)" xlink:href="#al"/><use transform="matrix(0.0728395061728395,0,0,0.0728395061728395,27.679012345679013,0)" xlink:href="#ag"/><use transform="matrix(0.0728395061728395,0,0,0.0728395061728395,43.63086419753086,0)" xlink:href="#am"/><use transform="matrix(0.0728395061728395,0,0,0.0728395061728395,50.91481481481481,0)" xlink:href="#ai"/><use transform="matrix(0.0728395061728395,0,0,0.0728395061728395,65.48271604938272,0)" xlink:href="#an"/><use transform="matrix(0.0728395061728395,0,0,0.0728395061728395,74.15061728395062,0)" xlink:href="#ag"/></g><path fill="#a9afb8" d="M14-72v-43h91v43H14" id="ao"/><use transform="matrix(0.0728395061728395,0,0,0.0728395061728395,0,0)" xlink:href="#ao" id="d"/><path fill="#a9afb8" d="M169-182c-1-43-94-46-97-3 18 66 151 10 154 114 3 95-165 93-204 36-6-8-10-19-12-30l50-8c3 46 112 56 116 5-17-69-150-10-154-114-4-87 153-88 188-35 5 8 8 18 10 28" id="ap"/><path fill="#a9afb8" d="M25-224v-37h50v37H25zM25 0v-190h50V0H25" id="aq"/><path fill="#a9afb8" d="M137-138c1-29-70-34-71-4 15 46 118 7 119 86 1 83-164 76-172 9l43-7c4 19 20 25 44 25 33 8 57-30 24-41C81-84 22-81 20-136c-2-80 154-74 161-7" id="ar"/><path fill="#a9afb8" d="M220-157c-53 9-28 100-34 157h-49v-107c1-27-5-49-29-50C55-147 81-57 75 0H25l-1-190h47c2 12-1 28 3 38 10-53 101-56 108 0 13-22 24-43 59-42 82 1 51 116 57 194h-49v-107c-1-25-5-48-29-50" id="as"/><path fill="#a9afb8" d="M133-34C117-15 103 5 69 4 32 3 11-16 11-54c-1-60 55-63 116-61 1-26-3-47-28-47-18 1-26 9-28 27l-52-2c7-38 36-58 82-57s74 22 75 68l1 82c-1 14 12 18 25 15v27c-30 8-71 5-69-32zm-48 3c29 0 43-24 42-57-32 0-66-3-65 30 0 17 8 27 23 27" id="at"/><g id="e"><use transform="matrix(0.0728395061728395,0,0,0.0728395061728395,0,0)" xlink:href="#ap"/><use transform="matrix(0.0728395061728395,0,0,0.0728395061728395,17.48148148148148,0)" xlink:href="#aq"/><use transform="matrix(0.0728395061728395,0,0,0.0728395061728395,24.76543209876543,0)" xlink:href="#ar"/><use transform="matrix(0.0728395061728395,0,0,0.0728395061728395,39.333333333333336,0)" xlink:href="#an"/><use transform="matrix(0.0728395061728395,0,0,0.0728395061728395,48.00123456790123,0)" xlink:href="#ai"/><use transform="matrix(0.0728395061728395,0,0,0.0728395061728395,62.56913580246913,0)" xlink:href="#as"/><use transform="matrix(0.0728395061728395,0,0,0.0728395061728395,85.87777777777777,0)" xlink:href="#at"/></g><path fill="#a9afb8" d="M24-248c120-7 223 5 221 122C244-46 201 0 124 0H24v-248zM76-40c74 7 117-18 117-86 0-67-45-88-117-82v168" id="au"/><path fill="#a9afb8" d="M128 0H69L1-190h53L99-40l48-150h52" id="av"/><path fill="#a9afb8" d="M123 10C108 53 80 86 19 72V37c35 8 53-11 59-39L3-190h52l48 148c12-52 28-100 44-148h51" id="aw"/><g id="f"><use transform="matrix(0.0728395061728395,0,0,0.0728395061728395,0,0)" xlink:href="#au"/><use transform="matrix(0.0728395061728395,0,0,0.0728395061728395,18.86543209876543,0)" xlink:href="#ai"/><use transform="matrix(0.0728395061728395,0,0,0.0728395061728395,33.43333333333333,0)" xlink:href="#aj"/><use transform="matrix(0.0728395061728395,0,0,0.0728395061728395,40.717283950617286,0)" xlink:href="#aq"/><use transform="matrix(0.0728395061728395,0,0,0.0728395061728395,48.00123456790123,0)" xlink:href="#av"/><use transform="matrix(0.0728395061728395,0,0,0.0728395061728395,62.56913580246913,0)" xlink:href="#ai"/><use transform="matrix(0.0728395061728395,0,0,0.0728395061728395,77.13703703703703,0)" xlink:href="#al"/><use transform="matrix(0.0728395061728395,0,0,0.0728395061728395,87.33456790123456,0)" xlink:href="#aw"/></g><path fill="#a9afb8" d="M143 4C61 4 22-44 18-125c-5-107 100-154 193-111 17 8 29 25 37 43l-32 9c-13-25-37-40-76-40-61 0-88 39-88 99 0 61 29 100 91 101 35 0 62-11 79-27v-45h-74v-28h105v86C228-13 192 4 143 4" id="ax"/><path fill="#a9afb8" d="M141-36C126-15 110 5 73 4 37 3 15-17 15-53c-1-64 63-63 125-63 3-35-9-54-41-54-24 1-41 7-42 31l-33-3c5-37 33-52 76-52 45 0 72 20 72 64v82c-1 20 7 32 28 27v20c-31 9-61-2-59-35zM48-53c0 20 12 33 32 33 41-3 63-29 60-74-43 2-92-5-92 41" id="ay"/><path fill="#a9afb8" d="M115-194c53 0 69 39 70 98 0 66-23 100-70 100C84 3 66-7 56-30L54 0H23l1-261h32v101c10-23 28-34 59-34zm-8 174c40 0 45-34 45-75 0-40-5-75-45-74-42 0-51 32-51 76 0 43 10 73 51 73" id="az"/><path fill="#a9afb8" d="M114-163C36-179 61-72 57 0H25l-1-190h30c1 12-1 29 2 39 6-27 23-49 58-41v29" id="aA"/><path fill="#a9afb8" d="M24-231v-30h32v30H24zM24 0v-190h32V0H24" id="aB"/><path fill="#a9afb8" d="M100-194c63 0 86 42 84 106H49c0 40 14 67 53 68 26 1 43-12 49-29l28 8c-11 28-37 45-77 45C44 4 14-33 15-96c1-61 26-98 85-98zm52 81c6-60-76-77-97-28-3 7-6 17-6 28h103" id="aC"/><path fill="#a9afb8" d="M24 0v-261h32V0H24" id="aD"/><g id="g"><use transform="matrix(0.04248971193415638,0,0,0.04248971193415638,0,0)" xlink:href="#ax"/><use transform="matrix(0.04248971193415638,0,0,0.04248971193415638,11.897119341563785,0)" xlink:href="#ay"/><use transform="matrix(0.04248971193415638,0,0,0.04248971193415638,20.39506172839506,0)" xlink:href="#az"/><use transform="matrix(0.04248971193415638,0,0,0.04248971193415638,28.893004115226333,0)" xlink:href="#aA"/><use transform="matrix(0.04248971193415638,0,0,0.04248971193415638,33.94927983539094,0)" xlink:href="#aB"/><use transform="matrix(0.04248971193415638,0,0,0.04248971193415638,37.30596707818929,0)" xlink:href="#aC"/><use transform="matrix(0.04248971193415638,0,0,0.04248971193415638,45.80390946502057,0)" xlink:href="#aD"/></g><path fill="#a9afb8" d="M127-220V0H93v-220H8v-28h204v28h-85" id="aE"/><path fill="#a9afb8" d="M59-47c-2 24 18 29 38 22v24C64 9 27 4 27-40v-127H5v-23h24l9-43h21v43h35v23H59v120" id="aF"/><path fill="#a9afb8" d="M9 0v-24l116-142H16v-24h144v24L44-24h123V0H9" id="aG"/><path fill="#a9afb8" d="M117-194c89-4 53 116 60 194h-32v-121c0-31-8-49-39-48C34-167 62-67 57 0H25l-1-190h30c1 10-1 24 2 32 11-22 29-35 61-36" id="aH"/><g id="h"><use transform="matrix(0.04248971193415638,0,0,0.04248971193415638,0,0)" xlink:href="#aE"/><use transform="matrix(0.04248971193415638,0,0,0.04248971193415638,7.605658436213991,0)" xlink:href="#aC"/><use transform="matrix(0.04248971193415638,0,0,0.04248971193415638,16.103600823045266,0)" xlink:href="#aF"/><use transform="matrix(0.04248971193415638,0,0,0.04248971193415638,20.352572016460904,0)" xlink:href="#aG"/><use transform="matrix(0.04248971193415638,0,0,0.04248971193415638,28.000720164609053,0)" xlink:href="#aH"/><use transform="matrix(0.04248971193415638,0,0,0.04248971193415638,36.498662551440326,0)" xlink:href="#aC"/><use transform="matrix(0.04248971193415638,0,0,0.04248971193415638,44.9966049382716,0)" xlink:href="#aA"/></g><path fill="#a9afb8" d="M32 76v-337h29V76H32" id="aI"/><use transform="matrix(0.04248971193415638,0,0,0.04248971193415638,0,0)" xlink:href="#aI" id="i"/><path fill="#a9afb8" d="M190 0L58-211 59 0H30v-248h39L202-35l-2-213h31V0h-41" id="aJ"/><path fill="#a9afb8" d="M100-194c62-1 85 37 85 99 1 63-27 99-86 99S16-35 15-95c0-66 28-99 85-99zM99-20c44 1 53-31 53-75 0-43-8-75-51-75s-53 32-53 75 10 74 51 75" id="aK"/><path fill="#a9afb8" d="M108 0H70L1-190h34L89-25l56-165h34" id="aL"/><path fill="#a9afb8" d="M210-169c-67 3-38 105-44 169h-31v-121c0-29-5-50-35-48C34-165 62-65 56 0H25l-1-190h30c1 10-1 24 2 32 10-44 99-50 107 0 11-21 27-35 58-36 85-2 47 119 55 194h-31v-121c0-29-5-49-35-48" id="aM"/><g id="j"><use transform="matrix(0.04248971193415638,0,0,0.04248971193415638,0,0)" xlink:href="#aJ"/><use transform="matrix(0.04248971193415638,0,0,0.04248971193415638,11.004835390946502,0)" xlink:href="#aK"/><use transform="matrix(0.04248971193415638,0,0,0.04248971193415638,19.502777777777776,0)" xlink:href="#aL"/><use transform="matrix(0.04248971193415638,0,0,0.04248971193415638,27.150925925925925,0)" xlink:href="#aC"/><use transform="matrix(0.04248971193415638,0,0,0.04248971193415638,35.6488683127572,0)" xlink:href="#aM"/><use transform="matrix(0.04248971193415638,0,0,0.04248971193415638,48.35329218106995,0)" xlink:href="#az"/><use transform="matrix(0.04248971193415638,0,0,0.04248971193415638,56.851234567901244,0)" xlink:href="#aC"/><use transform="matrix(0.04248971193415638,0,0,0.04248971193415638,65.34917695473251,0)" xlink:href="#aA"/></g><path fill="#a9afb8" d="M101-251c82-7 93 87 43 132L82-64C71-53 59-42 53-27h129V0H18c2-99 128-94 128-182 0-28-16-43-45-43s-46 15-49 41l-32-3c6-41 34-60 81-64" id="aN"/><path fill="#a9afb8" d="M110-160c48 1 74 30 74 79 0 53-28 85-80 85-65 0-83-55-86-122-5-90 50-162 133-122 14 7 22 21 27 39l-31 6c-5-40-67-38-82-6-9 19-15 44-15 74 11-20 30-34 60-33zm-7 138c34 0 49-23 49-58s-16-56-50-56c-29 0-50 16-49 49 1 36 15 65 50 65" id="aO"/><path fill="#a9afb8" d="M68-38c1 34 0 65-14 84H32c9-13 17-26 17-46H33v-38h35" id="aP"/><g id="k"><use transform="matrix(0.04248971193415638,0,0,0.04248971193415638,0,0)" xlink:href="#aN"/><use transform="matrix(0.04248971193415638,0,0,0.04248971193415638,8.497942386831275,0)" xlink:href="#aO"/><use transform="matrix(0.04248971193415638,0,0,0.04248971193415638,16.99588477366255,0)" xlink:href="#aP"/></g><path fill="#a9afb8" d="M101-251c68 0 85 55 85 127S166 4 100 4C33 4 14-52 14-124c0-73 17-127 87-127zm-1 229c47 0 54-49 54-102s-4-102-53-102c-51 0-55 48-55 102 0 53 5 102 54 102" id="aQ"/><path fill="#a9afb8" d="M155-56V0h-30v-56H8v-25l114-167h33v167h35v25h-35zm-30-156c-27 46-58 90-88 131h88v-131" id="aR"/><g id="l"><use transform="matrix(0.04248971193415638,0,0,0.04248971193415638,0,0)" xlink:href="#aN"/><use transform="matrix(0.04248971193415638,0,0,0.04248971193415638,8.497942386831275,0)" xlink:href="#aQ"/><use transform="matrix(0.04248971193415638,0,0,0.04248971193415638,16.99588477366255,0)" xlink:href="#aN"/><use transform="matrix(0.04248971193415638,0,0,0.04248971193415638,25.493827160493822,0)" xlink:href="#aR"/></g><path fill="#333" d="M67-125c0 53 21 87 73 88 37 1 54-22 65-47l45 17C233-25 199 4 140 4 58 4 20-42 15-125 8-235 124-281 211-232c18 10 29 29 36 50l-46 12c-8-25-30-41-62-41-52 0-71 34-72 86" id="aS"/><path fill="#333" d="M133-34C117-15 103 5 69 4 32 3 11-16 11-54c-1-60 55-63 116-61 1-26-3-47-28-47-18 1-26 9-28 27l-52-2c7-38 36-58 82-57s74 22 75 68l1 82c-1 14 12 18 25 15v27c-30 8-71 5-69-32zm-48 3c29 0 43-24 42-57-32 0-66-3-65 30 0 17 8 27 23 27" id="aT"/><path fill="#333" d="M25 0v-261h50V0H25" id="aU"/><path fill="#333" d="M190-63c-7 42-38 67-86 67-59 0-84-38-90-98-12-110 154-137 174-36l-49 2c-2-19-15-32-35-32-30 0-35 28-38 64-6 74 65 87 74 30" id="aV"/><path fill="#333" d="M85 4C-2 5 27-109 22-190h50c7 57-23 150 33 157 60-5 35-97 40-157h50l1 190h-47c-2-12 1-28-3-38-12 25-28 42-61 42" id="aW"/><path fill="#333" d="M88-194c31-1 46 15 58 34l-1-101h50l1 261h-48c-2-10 0-23-3-31C134-8 116 4 84 4 32 4 16-41 15-95c0-56 19-97 73-99zm17 164c33 0 40-30 41-66 1-37-9-64-41-64s-38 30-39 65c0 43 13 65 39 65" id="aX"/><path fill="#333" d="M110-194c64 0 96 36 96 99 0 64-35 99-97 99-61 0-95-36-95-99 0-62 34-99 96-99zm-1 164c35 0 45-28 45-65 0-40-10-65-43-65-34 0-45 26-45 65 0 36 10 65 43 65" id="aY"/><path fill="#333" d="M135-150c-39-12-60 13-60 57V0H25l-1-190h47c2 13-1 29 3 40 6-28 27-53 61-41v41" id="aZ"/><path fill="#333" d="M24-248c120-7 223 5 221 122C244-46 201 0 124 0H24v-248zM76-40c74 7 117-18 117-86 0-67-45-88-117-82v168" id="ba"/><path fill="#333" d="M185-48c-13 30-37 53-82 52C43 2 14-33 14-96s30-98 90-98c62 0 83 45 84 108H66c0 31 8 55 39 56 18 0 30-7 34-22zm-45-69c5-46-57-63-70-21-2 6-4 13-4 21h74" id="bb"/><path fill="#333" d="M136-208V0H84v-208H4v-40h212v40h-80" id="bc"/><path fill="#333" d="M144 0l-44-69L55 0H2l70-98-66-92h53l41 62 40-62h54l-67 91 71 99h-54" id="bd"/><path fill="#333" d="M137-138c1-29-70-34-71-4 15 46 118 7 119 86 1 83-164 76-172 9l43-7c4 19 20 25 44 25 33 8 57-30 24-41C81-84 22-81 20-136c-2-80 154-74 161-7" id="be"/><path fill="#333" d="M135-194c87-1 58 113 63 194h-50c-7-57 23-157-34-157-59 0-34 97-39 157H25l-1-190h47c2 12-1 28 3 38 12-26 28-41 61-42" id="bf"/><path fill="#333" d="M115-3C79 11 28 4 28-45v-112H4v-33h27l15-45h31v45h36v33H77v99c-1 23 16 31 38 25v30" id="bg"/><path fill="#333" d="M169-182c-1-43-94-46-97-3 18 66 151 10 154 114 3 95-165 93-204 36-6-8-10-19-12-30l50-8c3 46 112 56 116 5-17-69-150-10-154-114-4-87 153-88 188-35 5 8 8 18 10 28" id="bh"/><path fill="#333" d="M128 0H69L1-190h53L99-40l48-150h52" id="bi"/><path fill="#333" d="M25-224v-37h50v37H25zM25 0v-190h50V0H25" id="bj"/><g id="m"><use transform="matrix(0.05,0,0,0.05,0,0)" xlink:href="#aS"/><use transform="matrix(0.05,0,0,0.05,12.950000000000001,0)" xlink:href="#aT"/><use transform="matrix(0.05,0,0,0.05,22.950000000000003,0)" xlink:href="#aU"/><use transform="matrix(0.05,0,0,0.05,27.950000000000003,0)" xlink:href="#aV"/><use transform="matrix(0.05,0,0,0.05,37.95,0)" xlink:href="#aW"/><use transform="matrix(0.05,0,0,0.05,48.900000000000006,0)" xlink:href="#aU"/><use transform="matrix(0.05,0,0,0.05,53.900000000000006,0)" xlink:href="#aT"/><use transform="matrix(0.05,0,0,0.05,63.900000000000006,0)" xlink:href="#aX"/><use transform="matrix(0.05,0,0,0.05,74.85000000000001,0)" xlink:href="#aY"/><use transform="matrix(0.05,0,0,0.05,85.80000000000001,0)" xlink:href="#aZ"/><use transform="matrix(0.05,0,0,0.05,92.80000000000001,0)" xlink:href="#aT"/><use transform="matrix(0.05,0,0,0.05,102.80000000000001,0)" xlink:href="#ba"/><use transform="matrix(0.05,0,0,0.05,115.75,0)" xlink:href="#bb"/><use transform="matrix(0.05,0,0,0.05,125.75,0)" xlink:href="#bc"/><use transform="matrix(0.05,0,0,0.05,135.35000000000002,0)" xlink:href="#aT"/><use transform="matrix(0.05,0,0,0.05,145.35000000000002,0)" xlink:href="#bd"/><use transform="matrix(0.05,0,0,0.05,155.35000000000002,0)" xlink:href="#aT"/><use transform="matrix(0.05,0,0,0.05,165.35000000000002,0)" xlink:href="#ba"/><use transform="matrix(0.05,0,0,0.05,178.3,0)" xlink:href="#bb"/><use transform="matrix(0.05,0,0,0.05,188.3,0)" xlink:href="#be"/><use transform="matrix(0.05,0,0,0.05,198.3,0)" xlink:href="#aV"/><use transform="matrix(0.05,0,0,0.05,208.3,0)" xlink:href="#aY"/><use transform="matrix(0.05,0,0,0.05,219.25,0)" xlink:href="#bf"/><use transform="matrix(0.05,0,0,0.05,230.19999999999996,0)" xlink:href="#bg"/><use transform="matrix(0.05,0,0,0.05,236.14999999999998,0)" xlink:href="#aY"/><use transform="matrix(0.05,0,0,0.05,247.09999999999997,0)" xlink:href="#bh"/><use transform="matrix(0.05,0,0,0.05,259.09999999999997,0)" xlink:href="#bb"/><use transform="matrix(0.05,0,0,0.05,269.09999999999997,0)" xlink:href="#aZ"/><use transform="matrix(0.05,0,0,0.05,276.09999999999997,0)" xlink:href="#bi"/><use transform="matrix(0.05,0,0,0.05,286.09999999999997,0)" xlink:href="#bj"/><use transform="matrix(0.05,0,0,0.05,291.09999999999997,0)" xlink:href="#aV"/><use transform="matrix(0.05,0,0,0.05,301.09999999999997,0)" xlink:href="#bb"/></g><path fill="#333" d="M118-107v75H92v-75H18v-26h74v-75h26v75h74v26h-74" id="bk"/><use transform="matrix(0.05,0,0,0.05,0,0)" xlink:href="#bk" id="n"/><path fill="#333" d="M212-179c-10-28-35-45-73-45-59 0-87 40-87 99 0 60 29 101 89 101 43 0 62-24 78-52l27 14C228-24 195 4 139 4 59 4 22-46 18-125c-6-104 99-153 187-111 19 9 31 26 39 46" id="bl"/><path fill="#333" d="M141-36C126-15 110 5 73 4 37 3 15-17 15-53c-1-64 63-63 125-63 3-35-9-54-41-54-24 1-41 7-42 31l-33-3c5-37 33-52 76-52 45 0 72 20 72 64v82c-1 20 7 32 28 27v20c-31 9-61-2-59-35zM48-53c0 20 12 33 32 33 41-3 63-29 60-74-43 2-92-5-92 41" id="bm"/><path fill="#333" d="M24 0v-261h32V0H24" id="bn"/><path fill="#333" d="M96-169c-40 0-48 33-48 73s9 75 48 75c24 0 41-14 43-38l32 2c-6 37-31 61-74 61-59 0-76-41-82-99-10-93 101-131 147-64 4 7 5 14 7 22l-32 3c-4-21-16-35-41-35" id="bo"/><path fill="#333" d="M84 4C-5 8 30-112 23-190h32v120c0 31 7 50 39 49 72-2 45-101 50-169h31l1 190h-30c-1-10 1-25-2-33-11 22-28 36-60 37" id="bp"/><path fill="#333" d="M85-194c31 0 48 13 60 33l-1-100h32l1 261h-30c-2-10 0-23-3-31C134-8 116 4 85 4 32 4 16-35 15-94c0-66 23-100 70-100zm9 24c-40 0-46 34-46 75 0 40 6 74 45 74 42 0 51-32 51-76 0-42-9-74-50-73" id="bq"/><path fill="#333" d="M100-194c62-1 85 37 85 99 1 63-27 99-86 99S16-35 15-95c0-66 28-99 85-99zM99-20c44 1 53-31 53-75 0-43-8-75-51-75s-53 32-53 75 10 74 51 75" id="br"/><path fill="#333" d="M114-163C36-179 61-72 57 0H25l-1-190h30c1 12-1 29 2 39 6-27 23-49 58-41v29" id="bs"/><path fill="#333" d="M30-248c118-7 216 8 213 122C240-48 200 0 122 0H30v-248zM63-27c89 8 146-16 146-99s-60-101-146-95v194" id="bt"/><path fill="#333" d="M100-194c63 0 86 42 84 106H49c0 40 14 67 53 68 26 1 43-12 49-29l28 8c-11 28-37 45-77 45C44 4 14-33 15-96c1-61 26-98 85-98zm52 81c6-60-76-77-97-28-3 7-6 17-6 28h103" id="bu"/><path fill="#333" d="M127-220V0H93v-220H8v-28h204v28h-85" id="bv"/><path fill="#333" d="M141 0L90-78 38 0H4l68-98-65-92h35l48 74 47-74h35l-64 92 68 98h-35" id="bw"/><path fill="#333" d="M135-143c-3-34-86-38-87 0 15 53 115 12 119 90S17 21 10-45l28-5c4 36 97 45 98 0-10-56-113-15-118-90-4-57 82-63 122-42 12 7 21 19 24 35" id="bx"/><path fill="#333" d="M117-194c89-4 53 116 60 194h-32v-121c0-31-8-49-39-48C34-167 62-67 57 0H25l-1-190h30c1 10-1 24 2 32 11-22 29-35 61-36" id="by"/><path fill="#333" d="M59-47c-2 24 18 29 38 22v24C64 9 27 4 27-40v-127H5v-23h24l9-43h21v43h35v23H59v120" id="bz"/><path fill="#333" d="M185-189c-5-48-123-54-124 2 14 75 158 14 163 119 3 78-121 87-175 55-17-10-28-26-33-46l33-7c5 56 141 63 141-1 0-78-155-14-162-118-5-82 145-84 179-34 5 7 8 16 11 25" id="bA"/><path fill="#333" d="M108 0H70L1-190h34L89-25l56-165h34" id="bB"/><path fill="#333" d="M24-231v-30h32v30H24zM24 0v-190h32V0H24" id="bC"/><path fill="#333" d="M87 75C49 33 22-17 22-94c0-76 28-126 65-167h31c-38 41-64 92-64 168S80 34 118 75H87" id="bD"/><path fill="#333" d="M33-261c38 41 65 92 65 168S71 34 33 75H2C39 34 66-17 66-93S39-220 2-261h31" id="bE"/><g id="o"><use transform="matrix(0.05,0,0,0.05,0,0)" xlink:href="#bl"/><use transform="matrix(0.05,0,0,0.05,12.950000000000001,0)" xlink:href="#bm"/><use transform="matrix(0.05,0,0,0.05,22.950000000000003,0)" xlink:href="#bn"/><use transform="matrix(0.05,0,0,0.05,26.900000000000002,0)" xlink:href="#bo"/><use transform="matrix(0.05,0,0,0.05,35.900000000000006,0)" xlink:href="#bp"/><use transform="matrix(0.05,0,0,0.05,45.900000000000006,0)" xlink:href="#bn"/><use transform="matrix(0.05,0,0,0.05,49.85000000000001,0)" xlink:href="#bm"/><use transform="matrix(0.05,0,0,0.05,59.85,0)" xlink:href="#bq"/><use transform="matrix(0.05,0,0,0.05,69.85000000000001,0)" xlink:href="#br"/><use transform="matrix(0.05,0,0,0.05,79.85000000000001,0)" xlink:href="#bs"/><use transform="matrix(0.05,0,0,0.05,85.80000000000001,0)" xlink:href="#bm"/><use transform="matrix(0.05,0,0,0.05,95.80000000000001,0)" xlink:href="#bt"/><use transform="matrix(0.05,0,0,0.05,108.75,0)" xlink:href="#bu"/><use transform="matrix(0.05,0,0,0.05,118.75,0)" xlink:href="#bv"/><use transform="matrix(0.05,0,0,0.05,127.7,0)" xlink:href="#bm"/><use transform="matrix(0.05,0,0,0.05,137.70000000000002,0)" xlink:href="#bw"/><use transform="matrix(0.05,0,0,0.05,146.70000000000002,0)" xlink:href="#bm"/><use transform="matrix(0.05,0,0,0.05,156.70000000000002,0)" xlink:href="#bt"/><use transform="matrix(0.05,0,0,0.05,169.65,0)" xlink:href="#bu"/><use transform="matrix(0.05,0,0,0.05,179.65,0)" xlink:href="#bx"/><use transform="matrix(0.05,0,0,0.05,188.65,0)" xlink:href="#bo"/><use transform="matrix(0.05,0,0,0.05,197.65,0)" xlink:href="#br"/><use transform="matrix(0.05,0,0,0.05,207.65,0)" xlink:href="#by"/><use transform="matrix(0.05,0,0,0.05,217.65,0)" xlink:href="#bz"/><use transform="matrix(0.05,0,0,0.05,222.65,0)" xlink:href="#br"/><use transform="matrix(0.05,0,0,0.05,232.65,0)" xlink:href="#bA"/><use transform="matrix(0.05,0,0,0.05,244.65,0)" xlink:href="#bu"/><use transform="matrix(0.05,0,0,0.05,254.65,0)" xlink:href="#bs"/><use transform="matrix(0.05,0,0,0.05,260.6,0)" xlink:href="#bB"/><use transform="matrix(0.05,0,0,0.05,269.6,0)" xlink:href="#bC"/><use transform="matrix(0.05,0,0,0.05,273.55,0)" xlink:href="#bo"/><use transform="matrix(0.05,0,0,0.05,282.55,0)" xlink:href="#bu"/><use transform="matrix(0.05,0,0,0.05,292.55,0)" xlink:href="#bD"/><use transform="matrix(0.05,0,0,0.05,298.5,0)" xlink:href="#bE"/></g><use transform="matrix(0.05,0,0,0.05,0,0)" xlink:href="#bk" id="p"/><path fill="#333" d="M115-194c55 1 70 41 70 98S169 2 115 4C84 4 66-9 55-30l1 105H24l-1-265h31l2 30c10-21 28-34 59-34zm-8 174c40 0 45-34 45-75s-6-73-45-74c-42 0-51 32-51 76 0 43 10 73 51 73" id="bF"/><g id="q"><use transform="matrix(0.05,0,0,0.05,0,0)" xlink:href="#bo"/><use transform="matrix(0.05,0,0,0.05,9,0)" xlink:href="#bm"/><use transform="matrix(0.05,0,0,0.05,19,0)" xlink:href="#bn"/><use transform="matrix(0.05,0,0,0.05,22.95,0)" xlink:href="#bo"/><use transform="matrix(0.05,0,0,0.05,31.950000000000003,0)" xlink:href="#bp"/><use transform="matrix(0.05,0,0,0.05,41.95,0)" xlink:href="#bn"/><use transform="matrix(0.05,0,0,0.05,45.900000000000006,0)" xlink:href="#bm"/><use transform="matrix(0.05,0,0,0.05,55.900000000000006,0)" xlink:href="#bs"/><use transform="matrix(0.05,0,0,0.05,61.85,0)" xlink:href="#bt"/><use transform="matrix(0.05,0,0,0.05,74.80000000000001,0)" xlink:href="#bu"/><use transform="matrix(0.05,0,0,0.05,84.80000000000001,0)" xlink:href="#bx"/><use transform="matrix(0.05,0,0,0.05,93.80000000000001,0)" xlink:href="#bo"/><use transform="matrix(0.05,0,0,0.05,102.80000000000001,0)" xlink:href="#br"/><use transform="matrix(0.05,0,0,0.05,112.80000000000001,0)" xlink:href="#by"/><use transform="matrix(0.05,0,0,0.05,122.80000000000001,0)" xlink:href="#bz"/><use transform="matrix(0.05,0,0,0.05,127.80000000000001,0)" xlink:href="#br"/><use transform="matrix(0.05,0,0,0.05,137.8,0)" xlink:href="#bv"/><use transform="matrix(0.05,0,0,0.05,146.75,0)" xlink:href="#bm"/><use transform="matrix(0.05,0,0,0.05,156.75,0)" xlink:href="#bw"/><use transform="matrix(0.05,0,0,0.05,165.75,0)" xlink:href="#bm"/><use transform="matrix(0.05,0,0,0.05,175.75,0)" xlink:href="#bD"/><use transform="matrix(0.05,0,0,0.05,181.7,0)" xlink:href="#bF"/><use transform="matrix(0.05,0,0,0.05,191.7,0)" xlink:href="#bu"/><use transform="matrix(0.05,0,0,0.05,201.7,0)" xlink:href="#bq"/><use transform="matrix(0.05,0,0,0.05,211.69999999999996,0)" xlink:href="#bC"/><use transform="matrix(0.05,0,0,0.05,215.64999999999998,0)" xlink:href="#bq"/><use transform="matrix(0.05,0,0,0.05,225.64999999999998,0)" xlink:href="#br"/><use transform="matrix(0.05,0,0,0.05,235.64999999999998,0)" xlink:href="#bE"/></g><path fill="#333" d="M33-154v-36h34v36H33zM33 0v-36h34V0H33" id="bG"/><use transform="matrix(0.05,0,0,0.05,0,0)" xlink:href="#bG" id="r"/><g id="s"><use transform="matrix(0.05,0,0,0.05,0,0)" xlink:href="#bB"/><use transform="matrix(0.05,0,0,0.05,9,0)" xlink:href="#br"/><use transform="matrix(0.05,0,0,0.05,19,0)" xlink:href="#bC"/><use transform="matrix(0.05,0,0,0.05,22.95,0)" xlink:href="#bq"/></g><path fill="#333" d="M240 0l2-218c-23 76-54 145-80 218h-23L58-218 59 0H30v-248h44l77 211c21-75 51-140 76-211h43V0h-30" id="bH"/><path fill="#333" d="M210-169c-67 3-38 105-44 169h-31v-121c0-29-5-50-35-48C34-165 62-65 56 0H25l-1-190h30c1 10-1 24 2 32 10-44 99-50 107 0 11-21 27-35 58-36 85-2 47 119 55 194h-31v-121c0-29-5-49-35-48" id="bI"/><g id="t"><use transform="matrix(0.05,0,0,0.05,0,0)" xlink:href="#bm"/><use transform="matrix(0.05,0,0,0.05,10,0)" xlink:href="#bq"/><use transform="matrix(0.05,0,0,0.05,20,0)" xlink:href="#bC"/><use transform="matrix(0.05,0,0,0.05,23.95,0)" xlink:href="#bo"/><use transform="matrix(0.05,0,0,0.05,32.95,0)" xlink:href="#bC"/><use transform="matrix(0.05,0,0,0.05,36.900000000000006,0)" xlink:href="#br"/><use transform="matrix(0.05,0,0,0.05,46.900000000000006,0)" xlink:href="#by"/><use transform="matrix(0.05,0,0,0.05,56.900000000000006,0)" xlink:href="#bm"/><use transform="matrix(0.05,0,0,0.05,66.9,0)" xlink:href="#bs"/><use transform="matrix(0.05,0,0,0.05,72.85000000000001,0)" xlink:href="#bH"/><use transform="matrix(0.05,0,0,0.05,87.80000000000001,0)" xlink:href="#bu"/><use transform="matrix(0.05,0,0,0.05,97.80000000000001,0)" xlink:href="#bz"/><use transform="matrix(0.05,0,0,0.05,102.80000000000001,0)" xlink:href="#br"/><use transform="matrix(0.05,0,0,0.05,112.80000000000001,0)" xlink:href="#bq"/><use transform="matrix(0.05,0,0,0.05,122.80000000000001,0)" xlink:href="#br"/><use transform="matrix(0.05,0,0,0.05,132.8,0)" xlink:href="#bt"/><use transform="matrix(0.05,0,0,0.05,145.75,0)" xlink:href="#bu"/><use transform="matrix(0.05,0,0,0.05,155.75,0)" xlink:href="#bx"/><use transform="matrix(0.05,0,0,0.05,164.75,0)" xlink:href="#bo"/><use transform="matrix(0.05,0,0,0.05,173.75,0)" xlink:href="#br"/><use transform="matrix(0.05,0,0,0.05,183.75,0)" xlink:href="#by"/><use transform="matrix(0.05,0,0,0.05,193.75,0)" xlink:href="#bz"/><use transform="matrix(0.05,0,0,0.05,198.75,0)" xlink:href="#br"/><use transform="matrix(0.05,0,0,0.05,208.75,0)" xlink:href="#bD"/><use transform="matrix(0.05,0,0,0.05,214.69999999999996,0)" xlink:href="#bI"/><use transform="matrix(0.05,0,0,0.05,229.64999999999998,0)" xlink:href="#bu"/><use transform="matrix(0.05,0,0,0.05,239.64999999999998,0)" xlink:href="#bz"/><use transform="matrix(0.05,0,0,0.05,244.64999999999998,0)" xlink:href="#br"/><use transform="matrix(0.05,0,0,0.05,254.64999999999998,0)" xlink:href="#bq"/><use transform="matrix(0.05,0,0,0.05,264.65,0)" xlink:href="#br"/><use transform="matrix(0.05,0,0,0.05,274.65,0)" xlink:href="#bt"/><use transform="matrix(0.05,0,0,0.05,287.59999999999997,0)" xlink:href="#bu"/><use transform="matrix(0.05,0,0,0.05,297.59999999999997,0)" xlink:href="#bx"/><use transform="matrix(0.05,0,0,0.05,306.59999999999997,0)" xlink:href="#bo"/><use transform="matrix(0.05,0,0,0.05,315.59999999999997,0)" xlink:href="#br"/><use transform="matrix(0.05,0,0,0.05,325.59999999999997,0)" xlink:href="#by"/><use transform="matrix(0.05,0,0,0.05,335.59999999999997,0)" xlink:href="#bz"/><use transform="matrix(0.05,0,0,0.05,340.59999999999997,0)" xlink:href="#br"/><use transform="matrix(0.05,0,0,0.05,350.59999999999997,0)" xlink:href="#bE"/></g><path fill="#333" d="M156-25L96-89v-11l60-65h29v5l-59 66 60 64v5h-30zm-82 0L15-89v-11l59-65h29v5L44-94l59 64v5H74" id="bJ"/><path fill="#333" d="M101-234c-31-9-42 10-38 44h38v23H63V0H32v-167H5v-23h27c-7-52 17-82 69-68v24" id="bK"/><path fill="#333" d="M126-25H97v-5l59-64-59-66v-5h29l60 65v11zm-82 0H15v-5l59-64-59-66v-5h29l59 65v11" id="bL"/><g id="u"><use transform="matrix(0.05555555555555555,0,0,0.05555555555555555,0,0)" xlink:href="#bJ"/><use transform="matrix(0.05,0,0,0.05,11.11111111111111,0)" xlink:href="#bC"/><use transform="matrix(0.05,0,0,0.05,15.06111111111111,0)" xlink:href="#by"/><use transform="matrix(0.05,0,0,0.05,25.06111111111111,0)" xlink:href="#bz"/><use transform="matrix(0.05,0,0,0.05,30.06111111111111,0)" xlink:href="#bu"/><use transform="matrix(0.05,0,0,0.05,40.06111111111111,0)" xlink:href="#bs"/><use transform="matrix(0.05,0,0,0.05,46.01111111111111,0)" xlink:href="#bK"/><use transform="matrix(0.05,0,0,0.05,51.01111111111111,0)" xlink:href="#bm"/><use transform="matrix(0.05,0,0,0.05,61.01111111111111,0)" xlink:href="#bo"/><use transform="matrix(0.05,0,0,0.05,70.01111111111112,0)" xlink:href="#bu"/><use transform="matrix(0.05,0,0,0.05,80.01111111111112,0)" xlink:href="#bL"/></g><path fill="#333" d="M24 0v-248h52V0H24" id="bM"/><path fill="#333" d="M230 0l2-204L168 0h-37L68-204 70 0H24v-248h70l56 185 57-185h69V0h-46" id="bN"/><path fill="#333" d="M24 0v-248h195v40H76v63h132v40H76v65h150V0H24" id="bO"/><path fill="#333" d="M195-6C206 82 75 100 31 46c-4-6-6-13-8-21l49-6c3 16 16 24 34 25 40 0 42-37 40-79-11 22-30 35-61 35-53 0-70-43-70-97 0-56 18-96 73-97 30 0 46 14 59 34l2-30h47zm-90-29c32 0 41-27 41-63 0-35-9-62-40-62-32 0-39 29-40 63 0 36 9 62 39 62" id="bP"/><g id="v"><use transform="matrix(0.05,0,0,0.05,0,0)" xlink:href="#bM"/><use transform="matrix(0.05,0,0,0.05,5,0)" xlink:href="#bN"/><use transform="matrix(0.05,0,0,0.05,19.950000000000003,0)" xlink:href="#bb"/><use transform="matrix(0.05,0,0,0.05,29.950000000000003,0)" xlink:href="#bg"/><use transform="matrix(0.05,0,0,0.05,35.900000000000006,0)" xlink:href="#aY"/><use transform="matrix(0.05,0,0,0.05,46.85000000000001,0)" xlink:href="#aX"/><use transform="matrix(0.05,0,0,0.05,57.80000000000001,0)" xlink:href="#aY"/><use transform="matrix(0.05,0,0,0.05,68.75000000000001,0)" xlink:href="#ba"/><use transform="matrix(0.05,0,0,0.05,81.70000000000002,0)" xlink:href="#bb"/><use transform="matrix(0.05,0,0,0.05,91.70000000000002,0)" xlink:href="#be"/><use transform="matrix(0.05,0,0,0.05,101.70000000000002,0)" xlink:href="#aV"/><use transform="matrix(0.05,0,0,0.05,111.7,0)" xlink:href="#aY"/><use transform="matrix(0.05,0,0,0.05,122.65000000000003,0)" xlink:href="#bf"/><use transform="matrix(0.05,0,0,0.05,133.60000000000002,0)" xlink:href="#bg"/><use transform="matrix(0.05,0,0,0.05,139.55,0)" xlink:href="#aY"/><use transform="matrix(0.05,0,0,0.05,150.5,0)" xlink:href="#bc"/><use transform="matrix(0.05,0,0,0.05,160.1,0)" xlink:href="#aT"/><use transform="matrix(0.05,0,0,0.05,170.1,0)" xlink:href="#bd"/><use transform="matrix(0.05,0,0,0.05,180.1,0)" xlink:href="#aT"/><use transform="matrix(0.05,0,0,0.05,190.1,0)" xlink:href="#bO"/><use transform="matrix(0.05,0,0,0.05,202.1,0)" xlink:href="#bf"/><use transform="matrix(0.05,0,0,0.05,213.04999999999995,0)" xlink:href="#bg"/><use transform="matrix(0.05,0,0,0.05,218.99999999999997,0)" xlink:href="#aZ"/><use transform="matrix(0.05,0,0,0.05,225.99999999999997,0)" xlink:href="#bb"/><use transform="matrix(0.05,0,0,0.05,235.99999999999997,0)" xlink:href="#bP"/><use transform="matrix(0.05,0,0,0.05,246.94999999999996,0)" xlink:href="#aT"/></g><g id="w"><use transform="matrix(0.05,0,0,0.05,0,0)" xlink:href="#bo"/><use transform="matrix(0.05,0,0,0.05,9,0)" xlink:href="#bm"/><use transform="matrix(0.05,0,0,0.05,19,0)" xlink:href="#bn"/><use transform="matrix(0.05,0,0,0.05,22.95,0)" xlink:href="#bo"/><use transform="matrix(0.05,0,0,0.05,31.950000000000003,0)" xlink:href="#bp"/><use transform="matrix(0.05,0,0,0.05,41.95,0)" xlink:href="#bn"/><use transform="matrix(0.05,0,0,0.05,45.900000000000006,0)" xlink:href="#bm"/><use transform="matrix(0.05,0,0,0.05,55.900000000000006,0)" xlink:href="#bs"/><use transform="matrix(0.05,0,0,0.05,61.85,0)" xlink:href="#bt"/><use transform="matrix(0.05,0,0,0.05,74.80000000000001,0)" xlink:href="#bu"/><use transform="matrix(0.05,0,0,0.05,84.80000000000001,0)" xlink:href="#bx"/><use transform="matrix(0.05,0,0,0.05,93.80000000000001,0)" xlink:href="#bo"/><use transform="matrix(0.05,0,0,0.05,102.80000000000001,0)" xlink:href="#br"/><use transform="matrix(0.05,0,0,0.05,112.80000000000001,0)" xlink:href="#by"/><use transform="matrix(0.05,0,0,0.05,122.80000000000001,0)" xlink:href="#bz"/><use transform="matrix(0.05,0,0,0.05,127.80000000000001,0)" xlink:href="#br"/><use transform="matrix(0.05,0,0,0.05,137.8,0)" xlink:href="#bD"/><use transform="matrix(0.05,0,0,0.05,143.75,0)" xlink:href="#bF"/><use transform="matrix(0.05,0,0,0.05,153.75,0)" xlink:href="#bu"/><use transform="matrix(0.05,0,0,0.05,163.75,0)" xlink:href="#bq"/><use transform="matrix(0.05,0,0,0.05,173.75,0)" xlink:href="#bC"/><use transform="matrix(0.05,0,0,0.05,177.7,0)" xlink:href="#bq"/><use transform="matrix(0.05,0,0,0.05,187.7,0)" xlink:href="#br"/><use transform="matrix(0.05,0,0,0.05,197.7,0)" xlink:href="#bE"/></g><path fill="#333" d="M205 0l-28-72H64L36 0H1l101-248h38L239 0h-34zm-38-99l-47-123c-12 45-31 82-46 123h93" id="bQ"/><g id="x"><use transform="matrix(0.05,0,0,0.05,0,0)" xlink:href="#bx"/><use transform="matrix(0.05,0,0,0.05,9,0)" xlink:href="#bu"/><use transform="matrix(0.05,0,0,0.05,19,0)" xlink:href="#bQ"/><use transform="matrix(0.05,0,0,0.05,31,0)" xlink:href="#bF"/><use transform="matrix(0.05,0,0,0.05,41,0)" xlink:href="#bn"/><use transform="matrix(0.05,0,0,0.05,44.95,0)" xlink:href="#bC"/><use transform="matrix(0.05,0,0,0.05,48.900000000000006,0)" xlink:href="#bo"/><use transform="matrix(0.05,0,0,0.05,57.900000000000006,0)" xlink:href="#bm"/><use transform="matrix(0.05,0,0,0.05,67.9,0)" xlink:href="#bD"/><use transform="matrix(0.05,0,0,0.05,73.85000000000001,0)" xlink:href="#bF"/><use transform="matrix(0.05,0,0,0.05,83.85000000000001,0)" xlink:href="#bu"/><use transform="matrix(0.05,0,0,0.05,93.85000000000001,0)" xlink:href="#bq"/><use transform="matrix(0.05,0,0,0.05,103.85000000000001,0)" xlink:href="#bC"/><use transform="matrix(0.05,0,0,0.05,107.80000000000001,0)" xlink:href="#bq"/><use transform="matrix(0.05,0,0,0.05,117.80000000000001,0)" xlink:href="#br"/><use transform="matrix(0.05,0,0,0.05,127.80000000000001,0)" xlink:href="#bE"/></g><path fill="#333" d="M115-194c53 0 69 39 70 98 0 66-23 100-70 100C84 3 66-7 56-30L54 0H23l1-261h32v101c10-23 28-34 59-34zm-8 174c40 0 45-34 45-75 0-40-5-75-45-74-42 0-51 32-51 76 0 43 10 73 51 73" id="bR"/><g id="y"><use transform="matrix(0.05,0,0,0.05,0,0)" xlink:href="#bR"/><use transform="matrix(0.05,0,0,0.05,10,0)" xlink:href="#br"/><use transform="matrix(0.05,0,0,0.05,20,0)" xlink:href="#br"/><use transform="matrix(0.05,0,0,0.05,30,0)" xlink:href="#bn"/><use transform="matrix(0.05,0,0,0.05,33.95,0)" xlink:href="#bu"/><use transform="matrix(0.05,0,0,0.05,43.95,0)" xlink:href="#bm"/><use transform="matrix(0.05,0,0,0.05,53.95,0)" xlink:href="#by"/></g><path fill="#333" d="M135-194c53 0 70 44 70 98 0 56-19 98-73 100-31 1-45-17-59-34 3 33 2 69 2 105H25l-1-265h48c2 10 0 23 3 31 11-24 29-35 60-35zM114-30c33 0 39-31 40-66 0-38-9-64-40-64-56 0-55 130 0 130" id="bS"/><path fill="#333" d="M220-157c-53 9-28 100-34 157h-49v-107c1-27-5-49-29-50C55-147 81-57 75 0H25l-1-190h47c2 12-1 28 3 38 10-53 101-56 108 0 13-22 24-43 59-42 82 1 51 116 57 194h-49v-107c-1-25-5-48-29-50" id="bT"/><g id="z"><use transform="matrix(0.05,0,0,0.05,0,0)" xlink:href="#bN"/><use transform="matrix(0.05,0,0,0.05,14.950000000000001,0)" xlink:href="#bb"/><use transform="matrix(0.05,0,0,0.05,24.950000000000003,0)" xlink:href="#bg"/><use transform="matrix(0.05,0,0,0.05,30.900000000000002,0)" xlink:href="#aY"/><use transform="matrix(0.05,0,0,0.05,41.85,0)" xlink:href="#aX"/><use transform="matrix(0.05,0,0,0.05,52.800000000000004,0)" xlink:href="#aY"/><use transform="matrix(0.05,0,0,0.05,63.75,0)" xlink:href="#ba"/><use transform="matrix(0.05,0,0,0.05,76.7,0)" xlink:href="#bb"/><use transform="matrix(0.05,0,0,0.05,86.7,0)" xlink:href="#be"/><use transform="matrix(0.05,0,0,0.05,96.7,0)" xlink:href="#aV"/><use transform="matrix(0.05,0,0,0.05,106.7,0)" xlink:href="#aY"/><use transform="matrix(0.05,0,0,0.05,117.65,0)" xlink:href="#bf"/><use transform="matrix(0.05,0,0,0.05,128.6,0)" xlink:href="#bg"/><use transform="matrix(0.05,0,0,0.05,134.54999999999998,0)" xlink:href="#aY"/><use transform="matrix(0.05,0,0,0.05,145.49999999999997,0)" xlink:href="#bc"/><use transform="matrix(0.05,0,0,0.05,156.09999999999997,0)" xlink:href="#bj"/><use transform="matrix(0.05,0,0,0.05,161.09999999999997,0)" xlink:href="#bS"/><use transform="matrix(0.05,0,0,0.05,172.04999999999995,0)" xlink:href="#aY"/><use transform="matrix(0.05,0,0,0.05,182.99999999999994,0)" xlink:href="#bM"/><use transform="matrix(0.05,0,0,0.05,187.99999999999994,0)" xlink:href="#bg"/><use transform="matrix(0.05,0,0,0.05,193.94999999999993,0)" xlink:href="#bb"/><use transform="matrix(0.05,0,0,0.05,203.94999999999993,0)" xlink:href="#bT"/></g><path fill="#333" d="M16-82v-28h88v28H16" id="bU"/><use transform="matrix(0.05,0,0,0.05,0,0)" xlink:href="#bU" id="A"/><path fill="#333" d="M30-248c87 1 191-15 191 75 0 78-77 80-158 76V0H30v-248zm33 125c57 0 124 11 124-50 0-59-68-47-124-48v98" id="bV"/><path fill="#333" d="M33 0v-248h34V0H33" id="bW"/><g id="B"><use transform="matrix(0.05,0,0,0.05,0,0)" xlink:href="#bq"/><use transform="matrix(0.05,0,0,0.05,10,0)" xlink:href="#bu"/><use transform="matrix(0.05,0,0,0.05,20,0)" xlink:href="#bx"/><use transform="matrix(0.05,0,0,0.05,29,0)" xlink:href="#bo"/><use transform="matrix(0.05,0,0,0.05,38,0)" xlink:href="#br"/><use transform="matrix(0.05,0,0,0.05,48,0)" xlink:href="#by"/><use transform="matrix(0.05,0,0,0.05,58,0)" xlink:href="#bz"/><use transform="matrix(0.05,0,0,0.05,63,0)" xlink:href="#br"/><use transform="matrix(0.05,0,0,0.05,73,0)" xlink:href="#bx"/><use transform="matrix(0.05,0,0,0.05,82,0)" xlink:href="#bV"/><use transform="matrix(0.05,0,0,0.05,94,0)" xlink:href="#br"/><use transform="matrix(0.05,0,0,0.05,104,0)" xlink:href="#bs"/><use transform="matrix(0.05,0,0,0.05,109.95,0)" xlink:href="#bv"/><use transform="matrix(0.05,0,0,0.05,120.25,0)" xlink:href="#bC"/><use transform="matrix(0.05,0,0,0.05,124.2,0)" xlink:href="#bF"/><use transform="matrix(0.05,0,0,0.05,134.2,0)" xlink:href="#br"/><use transform="matrix(0.05,0,0,0.05,144.2,0)" xlink:href="#bW"/><use transform="matrix(0.05,0,0,0.05,149.2,0)" xlink:href="#bz"/><use transform="matrix(0.05,0,0,0.05,154.2,0)" xlink:href="#bu"/><use transform="matrix(0.05,0,0,0.05,164.2,0)" xlink:href="#bI"/></g><path fill="#333" d="M18-100v-36l175-74v27L42-118l151 64v27" id="bX"/><path fill="#333" d="M177-190C167-65 218 103 67 71c-23-6-38-20-44-43l32-5c15 47 100 32 89-28v-30C133-14 115 1 83 1 29 1 15-40 15-95c0-56 16-97 71-98 29-1 48 16 59 35 1-10 0-23 2-32h30zM94-22c36 0 50-32 50-73 0-42-14-75-50-75-39 0-46 34-46 75s6 73 46 73" id="bY"/><path fill="#333" d="M68-38c1 34 0 65-14 84H32c9-13 17-26 17-46H33v-38h35" id="bZ"/><g id="C"><use transform="matrix(0.05,0,0,0.05,0,0)" xlink:href="#bH"/><use transform="matrix(0.05,0,0,0.05,14.950000000000001,0)" xlink:href="#bm"/><use transform="matrix(0.05,0,0,0.05,24.950000000000003,0)" xlink:href="#bF"/><use transform="matrix(0.05,0,0,0.05,34.95,0)" xlink:href="#bX"/><use transform="matrix(0.05,0,0,0.05,45.45,0)" xlink:href="#bA"/><use transform="matrix(0.05,0,0,0.05,57.45,0)" xlink:href="#bz"/><use transform="matrix(0.05,0,0,0.05,62.45,0)" xlink:href="#bs"/><use transform="matrix(0.05,0,0,0.05,68.4,0)" xlink:href="#bC"/><use transform="matrix(0.05,0,0,0.05,72.35000000000001,0)" xlink:href="#by"/><use transform="matrix(0.05,0,0,0.05,82.35000000000001,0)" xlink:href="#bY"/><use transform="matrix(0.05,0,0,0.05,92.35000000000001,0)" xlink:href="#bZ"/></g><path fill="#333" d="M18-27v-27l151-64-151-65v-27l175 74v36" id="ca"/><g id="D"><use transform="matrix(0.05,0,0,0.05,0,0)" xlink:href="#bt"/><use transform="matrix(0.05,0,0,0.05,12.950000000000001,0)" xlink:href="#br"/><use transform="matrix(0.05,0,0,0.05,22.950000000000003,0)" xlink:href="#bp"/><use transform="matrix(0.05,0,0,0.05,32.95,0)" xlink:href="#bR"/><use transform="matrix(0.05,0,0,0.05,42.95,0)" xlink:href="#bn"/><use transform="matrix(0.05,0,0,0.05,46.900000000000006,0)" xlink:href="#bu"/><use transform="matrix(0.05,0,0,0.05,56.900000000000006,0)" xlink:href="#ca"/></g><g id="E"><use transform="matrix(0.05,0,0,0.05,0,0)" xlink:href="#bH"/><use transform="matrix(0.05,0,0,0.05,14.950000000000001,0)" xlink:href="#bu"/><use transform="matrix(0.05,0,0,0.05,24.950000000000003,0)" xlink:href="#bz"/><use transform="matrix(0.05,0,0,0.05,29.950000000000003,0)" xlink:href="#br"/><use transform="matrix(0.05,0,0,0.05,39.95,0)" xlink:href="#bq"/><use transform="matrix(0.05,0,0,0.05,49.95,0)" xlink:href="#br"/><use transform="matrix(0.05,0,0,0.05,59.95,0)" xlink:href="#bt"/><use transform="matrix(0.05,0,0,0.05,72.9,0)" xlink:href="#bu"/><use transform="matrix(0.05,0,0,0.05,82.9,0)" xlink:href="#bx"/><use transform="matrix(0.05,0,0,0.05,91.9,0)" xlink:href="#bo"/><use transform="matrix(0.05,0,0,0.05,100.9,0)" xlink:href="#br"/><use transform="matrix(0.05,0,0,0.05,110.9,0)" xlink:href="#by"/><use transform="matrix(0.05,0,0,0.05,120.9,0)" xlink:href="#bz"/><use transform="matrix(0.05,0,0,0.05,125.9,0)" xlink:href="#br"/><use transform="matrix(0.05,0,0,0.05,135.9,0)" xlink:href="#bv"/><use transform="matrix(0.05,0,0,0.05,146.2,0)" xlink:href="#bC"/><use transform="matrix(0.05,0,0,0.05,150.14999999999998,0)" xlink:href="#bF"/><use transform="matrix(0.05,0,0,0.05,160.14999999999998,0)" xlink:href="#br"/><use transform="matrix(0.05,0,0,0.05,170.14999999999998,0)" xlink:href="#bW"/><use transform="matrix(0.05,0,0,0.05,175.14999999999998,0)" xlink:href="#bz"/><use transform="matrix(0.05,0,0,0.05,180.14999999999998,0)" xlink:href="#bu"/><use transform="matrix(0.05,0,0,0.05,190.14999999999998,0)" xlink:href="#bI"/><use transform="matrix(0.05,0,0,0.05,205.09999999999997,0)" xlink:href="#bD"/><use transform="matrix(0.05,0,0,0.05,211.04999999999995,0)" xlink:href="#bE"/></g><g id="F"><use transform="matrix(0.05,0,0,0.05,0,0)" xlink:href="#bo"/><use transform="matrix(0.05,0,0,0.05,9,0)" xlink:href="#bm"/><use transform="matrix(0.05,0,0,0.05,19,0)" xlink:href="#bn"/><use transform="matrix(0.05,0,0,0.05,22.95,0)" xlink:href="#bo"/><use transform="matrix(0.05,0,0,0.05,31.950000000000003,0)" xlink:href="#bp"/><use transform="matrix(0.05,0,0,0.05,41.95,0)" xlink:href="#bn"/><use transform="matrix(0.05,0,0,0.05,45.900000000000006,0)" xlink:href="#bm"/><use transform="matrix(0.05,0,0,0.05,55.900000000000006,0)" xlink:href="#bs"/><use transform="matrix(0.05,0,0,0.05,61.85,0)" xlink:href="#bt"/><use transform="matrix(0.05,0,0,0.05,74.80000000000001,0)" xlink:href="#bu"/><use transform="matrix(0.05,0,0,0.05,84.80000000000001,0)" xlink:href="#bx"/><use transform="matrix(0.05,0,0,0.05,93.80000000000001,0)" xlink:href="#bo"/><use transform="matrix(0.05,0,0,0.05,102.80000000000001,0)" xlink:href="#br"/><use transform="matrix(0.05,0,0,0.05,112.80000000000001,0)" xlink:href="#by"/><use transform="matrix(0.05,0,0,0.05,122.80000000000001,0)" xlink:href="#bz"/><use transform="matrix(0.05,0,0,0.05,127.80000000000001,0)" xlink:href="#br"/><use transform="matrix(0.05,0,0,0.05,137.8,0)" xlink:href="#bD"/><use transform="matrix(0.05,0,0,0.05,143.75,0)" xlink:href="#bV"/><use transform="matrix(0.05,0,0,0.05,155.75,0)" xlink:href="#bu"/><use transform="matrix(0.05,0,0,0.05,165.75,0)" xlink:href="#bq"/><use transform="matrix(0.05,0,0,0.05,175.75,0)" xlink:href="#bC"/><use transform="matrix(0.05,0,0,0.05,179.7,0)" xlink:href="#bq"/><use transform="matrix(0.05,0,0,0.05,189.7,0)" xlink:href="#br"/></g><g id="G"><use transform="matrix(0.05,0,0,0.05,0,0)" xlink:href="#bF"/><use transform="matrix(0.05,0,0,0.05,10,0)" xlink:href="#bu"/><use transform="matrix(0.05,0,0,0.05,20,0)" xlink:href="#bq"/><use transform="matrix(0.05,0,0,0.05,30,0)" xlink:href="#bC"/><use transform="matrix(0.05,0,0,0.05,33.95,0)" xlink:href="#bq"/><use transform="matrix(0.05,0,0,0.05,43.95,0)" xlink:href="#br"/><use transform="matrix(0.05,0,0,0.05,53.95,0)" xlink:href="#bE"/></g><path fill="#333" d="M24-248c93 1 206-16 204 79-1 75-69 88-152 82V0H24v-248zm52 121c47 0 100 7 100-41 0-47-54-39-100-39v80" id="cb"/><path fill="#333" d="M182-130c37 4 62 22 62 59C244 23 116-4 24 0v-248c84 5 203-23 205 63 0 31-19 50-47 55zM76-148c40-3 101 13 101-30 0-44-60-28-101-31v61zm0 110c48-3 116 14 116-37 0-48-69-32-116-35v72" id="cc"/><g id="H"><use transform="matrix(0.05,0,0,0.05,0,0)" xlink:href="#bN"/><use transform="matrix(0.05,0,0,0.05,14.950000000000001,0)" xlink:href="#bb"/><use transform="matrix(0.05,0,0,0.05,24.950000000000003,0)" xlink:href="#bg"/><use transform="matrix(0.05,0,0,0.05,30.900000000000002,0)" xlink:href="#aY"/><use transform="matrix(0.05,0,0,0.05,41.85,0)" xlink:href="#aX"/><use transform="matrix(0.05,0,0,0.05,52.800000000000004,0)" xlink:href="#aY"/><use transform="matrix(0.05,0,0,0.05,63.75,0)" xlink:href="#ba"/><use transform="matrix(0.05,0,0,0.05,76.7,0)" xlink:href="#bb"/><use transform="matrix(0.05,0,0,0.05,86.7,0)" xlink:href="#be"/><use transform="matrix(0.05,0,0,0.05,96.7,0)" xlink:href="#aV"/><use transform="matrix(0.05,0,0,0.05,106.7,0)" xlink:href="#aY"/><use transform="matrix(0.05,0,0,0.05,117.65,0)" xlink:href="#bf"/><use transform="matrix(0.05,0,0,0.05,128.6,0)" xlink:href="#bg"/><use transform="matrix(0.05,0,0,0.05,134.54999999999998,0)" xlink:href="#aY"/><use transform="matrix(0.05,0,0,0.05,145.49999999999997,0)" xlink:href="#bc"/><use transform="matrix(0.05,0,0,0.05,155.09999999999997,0)" xlink:href="#aT"/><use transform="matrix(0.05,0,0,0.05,165.09999999999997,0)" xlink:href="#bd"/><use transform="matrix(0.05,0,0,0.05,175.09999999999997,0)" xlink:href="#aT"/><use transform="matrix(0.05,0,0,0.05,185.09999999999997,0)" xlink:href="#cb"/><use transform="matrix(0.05,0,0,0.05,197.09999999999997,0)" xlink:href="#aY"/><use transform="matrix(0.05,0,0,0.05,208.04999999999995,0)" xlink:href="#aZ"/><use transform="matrix(0.05,0,0,0.05,215.04999999999995,0)" xlink:href="#cc"/><use transform="matrix(0.05,0,0,0.05,227.99999999999991,0)" xlink:href="#aT"/><use transform="matrix(0.05,0,0,0.05,237.99999999999991,0)" xlink:href="#bj"/><use transform="matrix(0.05,0,0,0.05,242.99999999999991,0)" xlink:href="#aZ"/><use transform="matrix(0.05,0,0,0.05,249.99999999999991,0)" xlink:href="#aZ"/><use transform="matrix(0.05,0,0,0.05,256.99999999999994,0)" xlink:href="#aY"/></g><path fill="#333" d="M160-131c35 5 61 23 61 61C221 17 115-2 30 0v-248c76 3 177-17 177 60 0 33-19 50-47 57zm-97-11c50-1 110 9 110-42 0-47-63-36-110-37v79zm0 115c55-2 124 14 124-45 0-56-70-42-124-44v89" id="cd"/><g id="I"><use transform="matrix(0.05,0,0,0.05,0,0)" xlink:href="#bq"/><use transform="matrix(0.05,0,0,0.05,10,0)" xlink:href="#bu"/><use transform="matrix(0.05,0,0,0.05,20,0)" xlink:href="#bx"/><use transform="matrix(0.05,0,0,0.05,29,0)" xlink:href="#bo"/><use transform="matrix(0.05,0,0,0.05,38,0)" xlink:href="#br"/><use transform="matrix(0.05,0,0,0.05,48,0)" xlink:href="#by"/><use transform="matrix(0.05,0,0,0.05,58,0)" xlink:href="#bz"/><use transform="matrix(0.05,0,0,0.05,63,0)" xlink:href="#br"/><use transform="matrix(0.05,0,0,0.05,73,0)" xlink:href="#bx"/><use transform="matrix(0.05,0,0,0.05,82,0)" xlink:href="#bV"/><use transform="matrix(0.05,0,0,0.05,94,0)" xlink:href="#br"/><use transform="matrix(0.05,0,0,0.05,104,0)" xlink:href="#bs"/><use transform="matrix(0.05,0,0,0.05,109.95,0)" xlink:href="#cd"/><use transform="matrix(0.05,0,0,0.05,121.95,0)" xlink:href="#bm"/><use transform="matrix(0.05,0,0,0.05,131.95,0)" xlink:href="#bC"/><use transform="matrix(0.05,0,0,0.05,135.89999999999998,0)" xlink:href="#bs"/><use transform="matrix(0.05,0,0,0.05,141.84999999999997,0)" xlink:href="#bs"/><use transform="matrix(0.05,0,0,0.05,147.79999999999995,0)" xlink:href="#br"/></g><g id="J"><use transform="matrix(0.05,0,0,0.05,0,0)" xlink:href="#bH"/><use transform="matrix(0.05,0,0,0.05,14.950000000000001,0)" xlink:href="#bu"/><use transform="matrix(0.05,0,0,0.05,24.950000000000003,0)" xlink:href="#bz"/><use transform="matrix(0.05,0,0,0.05,29.950000000000003,0)" xlink:href="#br"/><use transform="matrix(0.05,0,0,0.05,39.95,0)" xlink:href="#bq"/><use transform="matrix(0.05,0,0,0.05,49.95,0)" xlink:href="#br"/><use transform="matrix(0.05,0,0,0.05,59.95,0)" xlink:href="#bt"/><use transform="matrix(0.05,0,0,0.05,72.9,0)" xlink:href="#bu"/><use transform="matrix(0.05,0,0,0.05,82.9,0)" xlink:href="#bx"/><use transform="matrix(0.05,0,0,0.05,91.9,0)" xlink:href="#bo"/><use transform="matrix(0.05,0,0,0.05,100.9,0)" xlink:href="#br"/><use transform="matrix(0.05,0,0,0.05,110.9,0)" xlink:href="#by"/><use transform="matrix(0.05,0,0,0.05,120.9,0)" xlink:href="#bz"/><use transform="matrix(0.05,0,0,0.05,125.9,0)" xlink:href="#br"/><use transform="matrix(0.05,0,0,0.05,135.9,0)" xlink:href="#bv"/><use transform="matrix(0.05,0,0,0.05,144.85,0)" xlink:href="#bm"/><use transform="matrix(0.05,0,0,0.05,154.85,0)" xlink:href="#bw"/><use transform="matrix(0.05,0,0,0.05,163.85,0)" xlink:href="#bm"/><use transform="matrix(0.05,0,0,0.05,173.85,0)" xlink:href="#bV"/><use transform="matrix(0.05,0,0,0.05,185.85,0)" xlink:href="#br"/><use transform="matrix(0.05,0,0,0.05,195.85,0)" xlink:href="#bs"/><use transform="matrix(0.05,0,0,0.05,201.79999999999998,0)" xlink:href="#cd"/><use transform="matrix(0.05,0,0,0.05,213.79999999999995,0)" xlink:href="#bm"/><use transform="matrix(0.05,0,0,0.05,223.79999999999995,0)" xlink:href="#bC"/><use transform="matrix(0.05,0,0,0.05,227.74999999999997,0)" xlink:href="#bs"/><use transform="matrix(0.05,0,0,0.05,233.69999999999996,0)" xlink:href="#bs"/><use transform="matrix(0.05,0,0,0.05,239.64999999999998,0)" xlink:href="#br"/><use transform="matrix(0.05,0,0,0.05,249.64999999999998,0)" xlink:href="#bD"/><use transform="matrix(0.05,0,0,0.05,255.5999999999999,0)" xlink:href="#bE"/></g><path fill="#333" d="M147 0H94L2-248h55l64 206c17-72 42-137 63-206h54" id="ce"/><g id="K"><use transform="matrix(0.05,0,0,0.05,0,0)" xlink:href="#bN"/><use transform="matrix(0.05,0,0,0.05,14.950000000000001,0)" xlink:href="#bb"/><use transform="matrix(0.05,0,0,0.05,24.950000000000003,0)" xlink:href="#bg"/><use transform="matrix(0.05,0,0,0.05,30.900000000000002,0)" xlink:href="#aY"/><use transform="matrix(0.05,0,0,0.05,41.85,0)" xlink:href="#aX"/><use transform="matrix(0.05,0,0,0.05,52.800000000000004,0)" xlink:href="#aY"/><use transform="matrix(0.05,0,0,0.05,63.75,0)" xlink:href="#ba"/><use transform="matrix(0.05,0,0,0.05,76.7,0)" xlink:href="#bb"/><use transform="matrix(0.05,0,0,0.05,86.7,0)" xlink:href="#be"/><use transform="matrix(0.05,0,0,0.05,96.7,0)" xlink:href="#aV"/><use transform="matrix(0.05,0,0,0.05,106.7,0)" xlink:href="#aY"/><use transform="matrix(0.05,0,0,0.05,117.65,0)" xlink:href="#bf"/><use transform="matrix(0.05,0,0,0.05,128.6,0)" xlink:href="#bg"/><use transform="matrix(0.05,0,0,0.05,134.54999999999998,0)" xlink:href="#aY"/><use transform="matrix(0.05,0,0,0.05,145.49999999999997,0)" xlink:href="#ce"/><use transform="matrix(0.05,0,0,0.05,156.49999999999997,0)" xlink:href="#aT"/><use transform="matrix(0.05,0,0,0.05,166.49999999999997,0)" xlink:href="#aU"/><use transform="matrix(0.05,0,0,0.05,171.49999999999997,0)" xlink:href="#aY"/><use transform="matrix(0.05,0,0,0.05,182.44999999999996,0)" xlink:href="#aZ"/><use transform="matrix(0.05,0,0,0.05,189.44999999999996,0)" xlink:href="#cb"/><use transform="matrix(0.05,0,0,0.05,201.44999999999996,0)" xlink:href="#bb"/><use transform="matrix(0.05,0,0,0.05,211.44999999999996,0)" xlink:href="#aX"/><use transform="matrix(0.05,0,0,0.05,222.39999999999998,0)" xlink:href="#bj"/><use transform="matrix(0.05,0,0,0.05,227.39999999999998,0)" xlink:href="#aX"/><use transform="matrix(0.05,0,0,0.05,238.3499999999999,0)" xlink:href="#aY"/></g><path fill="#333" d="M137 0h-34L2-248h35l83 218 83-218h36" id="cf"/><g id="L"><use transform="matrix(0.05,0,0,0.05,0,0)" xlink:href="#bn"/><use transform="matrix(0.05,0,0,0.05,3.95,0)" xlink:href="#bC"/><use transform="matrix(0.05,0,0,0.05,7.9,0)" xlink:href="#bI"/><use transform="matrix(0.05,0,0,0.05,22.85,0)" xlink:href="#bC"/><use transform="matrix(0.05,0,0,0.05,26.8,0)" xlink:href="#bz"/><use transform="matrix(0.05,0,0,0.05,31.8,0)" xlink:href="#bu"/><use transform="matrix(0.05,0,0,0.05,41.8,0)" xlink:href="#cf"/><use transform="matrix(0.05,0,0,0.05,52.44999999999999,0)" xlink:href="#bm"/><use transform="matrix(0.05,0,0,0.05,62.44999999999999,0)" xlink:href="#bn"/><use transform="matrix(0.05,0,0,0.05,66.39999999999999,0)" xlink:href="#br"/><use transform="matrix(0.05,0,0,0.05,76.39999999999999,0)" xlink:href="#bs"/><use transform="matrix(0.05,0,0,0.05,82.35,0)" xlink:href="#bV"/><use transform="matrix(0.05,0,0,0.05,94.35,0)" xlink:href="#bu"/><use transform="matrix(0.05,0,0,0.05,104.34999999999998,0)" xlink:href="#bq"/><use transform="matrix(0.05,0,0,0.05,114.34999999999998,0)" xlink:href="#bC"/><use transform="matrix(0.05,0,0,0.05,118.30000000000001,0)" xlink:href="#bq"/><use transform="matrix(0.05,0,0,0.05,128.3,0)" xlink:href="#br"/></g><g id="M"><use transform="matrix(0.05,0,0,0.05,0,0)" xlink:href="#bq"/><use transform="matrix(0.05,0,0,0.05,10,0)" xlink:href="#br"/><use transform="matrix(0.05,0,0,0.05,20,0)" xlink:href="#bp"/><use transform="matrix(0.05,0,0,0.05,30,0)" xlink:href="#bR"/><use transform="matrix(0.05,0,0,0.05,40,0)" xlink:href="#bn"/><use transform="matrix(0.05,0,0,0.05,43.95,0)" xlink:href="#bu"/></g><g id="N"><use transform="matrix(0.05,0,0,0.05,0,0)" xlink:href="#bU"/><path fill="#333" d="M-.9 1.25h12.75v1.32H-.9z"/></g><path fill="#333" d="M30 0v-248h33v221h125V0H30" id="cg"/><path fill="#333" d="M140-251c81 0 123 46 123 126C263-46 219 4 140 4 59 4 17-45 17-125s42-126 123-126zm0 227c63 0 89-41 89-101s-29-99-89-99c-61 0-89 39-89 99S79-25 140-24" id="ch"/><path fill="#333" d="M233-177c-1 41-23 64-60 70L243 0h-38l-65-103H63V0H30v-248c88 3 205-21 203 71zM63-129c60-2 137 13 137-47 0-61-80-42-137-45v92" id="ci"/><path fill="#333" d="M-5 72V49h209v23H-5" id="cj"/><path fill="#333" d="M30 0v-248h187v28H63v79h144v27H63v87h162V0H30" id="ck"/><path fill="#333" d="M190 0L58-211 59 0H30v-248h39L202-35l-2-213h31V0h-41" id="cl"/><g id="O"><use transform="matrix(0.05,0,0,0.05,0,0)" xlink:href="#cf"/><use transform="matrix(0.05,0,0,0.05,10.65,0)" xlink:href="#bQ"/><use transform="matrix(0.05,0,0,0.05,22.65,0)" xlink:href="#cg"/><use transform="matrix(0.05,0,0,0.05,32.65,0)" xlink:href="#ch"/><use transform="matrix(0.05,0,0,0.05,46.65,0)" xlink:href="#ci"/><use transform="matrix(0.05,0,0,0.05,59.6,0)" xlink:href="#cj"/><use transform="matrix(0.05,0,0,0.05,69.6,0)" xlink:href="#bt"/><use transform="matrix(0.05,0,0,0.05,82.55,0)" xlink:href="#ck"/><use transform="matrix(0.05,0,0,0.05,94.55,0)" xlink:href="#bA"/><use transform="matrix(0.05,0,0,0.05,106.55000000000001,0)" xlink:href="#bl"/><use transform="matrix(0.05,0,0,0.05,119.5,0)" xlink:href="#ch"/><use transform="matrix(0.05,0,0,0.05,133.5,0)" xlink:href="#cl"/><use transform="matrix(0.05,0,0,0.05,146.45,0)" xlink:href="#bv"/><use transform="matrix(0.05,0,0,0.05,157.04999999999998,0)" xlink:href="#ch"/><path fill="#333" d="M-.9 1.25h177.85v1.32H-.9z"/></g><g id="P"><use transform="matrix(0.05,0,0,0.05,0,0)" xlink:href="#bG"/><path fill="#333" d="M-.9 1.25h11.8v1.32H-.9z"/></g><g id="Q"><use transform="matrix(0.05,0,0,0.05,0,0)" xlink:href="#bq"/><use transform="matrix(0.05,0,0,0.05,10,0)" xlink:href="#br"/><use transform="matrix(0.05,0,0,0.05,20,0)" xlink:href="#bp"/><use transform="matrix(0.05,0,0,0.05,30,0)" xlink:href="#bR"/><use transform="matrix(0.05,0,0,0.05,40,0)" xlink:href="#bn"/><use transform="matrix(0.05,0,0,0.05,43.95,0)" xlink:href="#bu"/><path fill="#333" d="M-.9 1.25h60.75v1.32H-.9z"/></g><path fill="#333" d="M18-150v-26h174v26H18zm0 90v-26h174v26H18" id="cm"/><g id="R"><use transform="matrix(0.05,0,0,0.05,0,0)" xlink:href="#cm"/><path fill="#333" d="M-.9 1.25h17.3v1.32H-.9z"/></g><path fill="#333" d="M54-142c48-35 137-8 131 61C196 18 31 33 14-55l32-4c7 23 22 37 52 37 35-1 51-22 54-58 4-55-73-65-99-34H22l8-134h141v27H59" id="cn"/><path fill="#333" d="M33 0v-38h34V0H33" id="co"/><path fill="#333" d="M101-251c68 0 85 55 85 127S166 4 100 4C33 4 14-52 14-124c0-73 17-127 87-127zm-1 229c47 0 54-49 54-102s-4-102-53-102c-51 0-55 48-55 102 0 53 5 102 54 102" id="cp"/><g id="S"><use transform="matrix(0.05,0,0,0.05,0,0)" xlink:href="#cn"/><use transform="matrix(0.05,0,0,0.05,10,0)" xlink:href="#co"/><use transform="matrix(0.05,0,0,0.05,15,0)" xlink:href="#cp"/><path fill="#333" d="M-.9 1.25h26.8v1.32H-.9z"/></g><g id="T"><use transform="matrix(0.05,0,0,0.05,0,0)" xlink:href="#bH"/><use transform="matrix(0.05,0,0,0.05,14.950000000000001,0)" xlink:href="#bu"/><use transform="matrix(0.05,0,0,0.05,24.950000000000003,0)" xlink:href="#bz"/><use transform="matrix(0.05,0,0,0.05,29.950000000000003,0)" xlink:href="#br"/><use transform="matrix(0.05,0,0,0.05,39.95,0)" xlink:href="#bq"/><use transform="matrix(0.05,0,0,0.05,49.95,0)" xlink:href="#br"/><use transform="matrix(0.05,0,0,0.05,59.95,0)" xlink:href="#bt"/><use transform="matrix(0.05,0,0,0.05,72.9,0)" xlink:href="#bu"/><use transform="matrix(0.05,0,0,0.05,82.9,0)" xlink:href="#bx"/><use transform="matrix(0.05,0,0,0.05,91.9,0)" xlink:href="#bo"/><use transform="matrix(0.05,0,0,0.05,100.9,0)" xlink:href="#br"/><use transform="matrix(0.05,0,0,0.05,110.9,0)" xlink:href="#by"/><use transform="matrix(0.05,0,0,0.05,120.9,0)" xlink:href="#bz"/><use transform="matrix(0.05,0,0,0.05,125.9,0)" xlink:href="#br"/><use transform="matrix(0.05,0,0,0.05,135.9,0)" xlink:href="#cf"/><use transform="matrix(0.05,0,0,0.05,146.55,0)" xlink:href="#bm"/><use transform="matrix(0.05,0,0,0.05,156.55,0)" xlink:href="#bn"/><use transform="matrix(0.05,0,0,0.05,160.5,0)" xlink:href="#br"/><use transform="matrix(0.05,0,0,0.05,170.5,0)" xlink:href="#bs"/><use transform="matrix(0.05,0,0,0.05,176.45,0)" xlink:href="#bV"/><use transform="matrix(0.05,0,0,0.05,188.45,0)" xlink:href="#bu"/><use transform="matrix(0.05,0,0,0.05,198.45,0)" xlink:href="#bq"/><use transform="matrix(0.05,0,0,0.05,208.44999999999996,0)" xlink:href="#bC"/><use transform="matrix(0.05,0,0,0.05,212.39999999999998,0)" xlink:href="#bq"/><use transform="matrix(0.05,0,0,0.05,222.39999999999998,0)" xlink:href="#br"/><use transform="matrix(0.05,0,0,0.05,232.39999999999998,0)" xlink:href="#bD"/><use transform="matrix(0.05,0,0,0.05,238.34999999999997,0)" xlink:href="#bn"/><use transform="matrix(0.05,0,0,0.05,242.29999999999995,0)" xlink:href="#bC"/><use transform="matrix(0.05,0,0,0.05,246.24999999999991,0)" xlink:href="#bI"/><use transform="matrix(0.05,0,0,0.05,261.19999999999993,0)" xlink:href="#bC"/><use transform="matrix(0.05,0,0,0.05,265.1499999999999,0)" xlink:href="#bz"/><use transform="matrix(0.05,0,0,0.05,270.1499999999999,0)" xlink:href="#bu"/><use transform="matrix(0.05,0,0,0.05,280.1499999999999,0)" xlink:href="#cf"/><use transform="matrix(0.05,0,0,0.05,290.7999999999999,0)" xlink:href="#bm"/><use transform="matrix(0.05,0,0,0.05,300.7999999999999,0)" xlink:href="#bn"/><use transform="matrix(0.05,0,0,0.05,304.7499999999999,0)" xlink:href="#br"/><use transform="matrix(0.05,0,0,0.05,314.7499999999999,0)" xlink:href="#bs"/><use transform="matrix(0.05,0,0,0.05,320.6999999999999,0)" xlink:href="#bV"/><use transform="matrix(0.05,0,0,0.05,332.6999999999999,0)" xlink:href="#bu"/><use transform="matrix(0.05,0,0,0.05,342.6999999999999,0)" xlink:href="#bq"/><use transform="matrix(0.05,0,0,0.05,352.6999999999999,0)" xlink:href="#bC"/><use transform="matrix(0.05,0,0,0.05,356.64999999999986,0)" xlink:href="#bq"/><use transform="matrix(0.05,0,0,0.05,366.64999999999986,0)" xlink:href="#br"/><use transform="matrix(0.05,0,0,0.05,376.64999999999986,0)" xlink:href="#bE"/></g><g id="U"><use transform="matrix(0.05,0,0,0.05,0,0)" xlink:href="#bN"/><use transform="matrix(0.05,0,0,0.05,14.950000000000001,0)" xlink:href="#bb"/><use transform="matrix(0.05,0,0,0.05,24.950000000000003,0)" xlink:href="#bg"/><use transform="matrix(0.05,0,0,0.05,30.900000000000002,0)" xlink:href="#aY"/><use transform="matrix(0.05,0,0,0.05,41.85,0)" xlink:href="#aX"/><use transform="matrix(0.05,0,0,0.05,52.800000000000004,0)" xlink:href="#aY"/><use transform="matrix(0.05,0,0,0.05,63.75,0)" xlink:href="#ba"/><use transform="matrix(0.05,0,0,0.05,76.7,0)" xlink:href="#bb"/><use transform="matrix(0.05,0,0,0.05,86.7,0)" xlink:href="#be"/><use transform="matrix(0.05,0,0,0.05,96.7,0)" xlink:href="#aV"/><use transform="matrix(0.05,0,0,0.05,106.7,0)" xlink:href="#aY"/><use transform="matrix(0.05,0,0,0.05,117.65,0)" xlink:href="#bf"/><use transform="matrix(0.05,0,0,0.05,128.6,0)" xlink:href="#bg"/><use transform="matrix(0.05,0,0,0.05,134.54999999999998,0)" xlink:href="#aY"/><use transform="matrix(0.05,0,0,0.05,145.49999999999997,0)" xlink:href="#bc"/><use transform="matrix(0.05,0,0,0.05,155.09999999999997,0)" xlink:href="#aT"/><use transform="matrix(0.05,0,0,0.05,165.09999999999997,0)" xlink:href="#bd"/><use transform="matrix(0.05,0,0,0.05,175.09999999999997,0)" xlink:href="#aT"/><use transform="matrix(0.05,0,0,0.05,185.09999999999997,0)" xlink:href="#cb"/><use transform="matrix(0.05,0,0,0.05,197.09999999999997,0)" xlink:href="#aY"/><use transform="matrix(0.05,0,0,0.05,208.04999999999995,0)" xlink:href="#aZ"/><use transform="matrix(0.05,0,0,0.05,215.04999999999995,0)" xlink:href="#bc"/><use transform="matrix(0.05,0,0,0.05,225.64999999999998,0)" xlink:href="#bj"/><use transform="matrix(0.05,0,0,0.05,230.64999999999998,0)" xlink:href="#bS"/><use transform="matrix(0.05,0,0,0.05,241.5999999999999,0)" xlink:href="#aY"/><use transform="matrix(0.05,0,0,0.05,252.54999999999993,0)" xlink:href="#aS"/><use transform="matrix(0.05,0,0,0.05,265.49999999999994,0)" xlink:href="#aU"/><use transform="matrix(0.05,0,0,0.05,270.49999999999994,0)" xlink:href="#bj"/><use transform="matrix(0.05,0,0,0.05,275.49999999999994,0)" xlink:href="#bb"/><use transform="matrix(0.05,0,0,0.05,285.49999999999994,0)" xlink:href="#bf"/><use transform="matrix(0.05,0,0,0.05,296.44999999999993,0)" xlink:href="#bg"/><use transform="matrix(0.05,0,0,0.05,302.3999999999999,0)" xlink:href="#bb"/></g><g id="V"><use transform="matrix(0.05,0,0,0.05,0,0)" xlink:href="#bq"/><use transform="matrix(0.05,0,0,0.05,10,0)" xlink:href="#bu"/><use transform="matrix(0.05,0,0,0.05,20,0)" xlink:href="#bx"/><use transform="matrix(0.05,0,0,0.05,29,0)" xlink:href="#bo"/><use transform="matrix(0.05,0,0,0.05,38,0)" xlink:href="#br"/><use transform="matrix(0.05,0,0,0.05,48,0)" xlink:href="#by"/><use transform="matrix(0.05,0,0,0.05,58,0)" xlink:href="#bz"/><use transform="matrix(0.05,0,0,0.05,63,0)" xlink:href="#br"/><use transform="matrix(0.05,0,0,0.05,73,0)" xlink:href="#bx"/><use transform="matrix(0.05,0,0,0.05,82,0)" xlink:href="#bV"/><use transform="matrix(0.05,0,0,0.05,94,0)" xlink:href="#br"/><use transform="matrix(0.05,0,0,0.05,104,0)" xlink:href="#bs"/><use transform="matrix(0.05,0,0,0.05,109.95,0)" xlink:href="#bv"/><use transform="matrix(0.05,0,0,0.05,120.25,0)" xlink:href="#bC"/><use transform="matrix(0.05,0,0,0.05,124.2,0)" xlink:href="#bF"/><use transform="matrix(0.05,0,0,0.05,134.2,0)" xlink:href="#br"/><use transform="matrix(0.05,0,0,0.05,144.2,0)" xlink:href="#bl"/><use transform="matrix(0.05,0,0,0.05,157.14999999999998,0)" xlink:href="#bn"/><use transform="matrix(0.05,0,0,0.05,161.09999999999997,0)" xlink:href="#bC"/><use transform="matrix(0.05,0,0,0.05,165.04999999999995,0)" xlink:href="#bu"/><use transform="matrix(0.05,0,0,0.05,175.04999999999995,0)" xlink:href="#by"/><use transform="matrix(0.05,0,0,0.05,185.04999999999995,0)" xlink:href="#bz"/><use transform="matrix(0.05,0,0,0.05,190.04999999999995,0)" xlink:href="#bu"/></g><g id="W"><use transform="matrix(0.05,0,0,0.05,0,0)" xlink:href="#bH"/><use transform="matrix(0.05,0,0,0.05,14.950000000000001,0)" xlink:href="#bu"/><use transform="matrix(0.05,0,0,0.05,24.950000000000003,0)" xlink:href="#bz"/><use transform="matrix(0.05,0,0,0.05,29.950000000000003,0)" xlink:href="#br"/><use transform="matrix(0.05,0,0,0.05,39.95,0)" xlink:href="#bq"/><use transform="matrix(0.05,0,0,0.05,49.95,0)" xlink:href="#br"/><use transform="matrix(0.05,0,0,0.05,59.95,0)" xlink:href="#bt"/><use transform="matrix(0.05,0,0,0.05,72.9,0)" xlink:href="#bu"/><use transform="matrix(0.05,0,0,0.05,82.9,0)" xlink:href="#bx"/><use transform="matrix(0.05,0,0,0.05,91.9,0)" xlink:href="#bo"/><use transform="matrix(0.05,0,0,0.05,100.9,0)" xlink:href="#br"/><use transform="matrix(0.05,0,0,0.05,110.9,0)" xlink:href="#by"/><use transform="matrix(0.05,0,0,0.05,120.9,0)" xlink:href="#bz"/><use transform="matrix(0.05,0,0,0.05,125.9,0)" xlink:href="#br"/><use transform="matrix(0.05,0,0,0.05,135.9,0)" xlink:href="#bv"/><use transform="matrix(0.05,0,0,0.05,144.85,0)" xlink:href="#bm"/><use transform="matrix(0.05,0,0,0.05,154.85,0)" xlink:href="#bw"/><use transform="matrix(0.05,0,0,0.05,163.85,0)" xlink:href="#bm"/><use transform="matrix(0.05,0,0,0.05,173.85,0)" xlink:href="#bV"/><use transform="matrix(0.05,0,0,0.05,185.85,0)" xlink:href="#br"/><use transform="matrix(0.05,0,0,0.05,195.85,0)" xlink:href="#bs"/><use transform="matrix(0.05,0,0,0.05,201.79999999999998,0)" xlink:href="#bv"/><use transform="matrix(0.05,0,0,0.05,212.09999999999997,0)" xlink:href="#bC"/><use transform="matrix(0.05,0,0,0.05,216.04999999999995,0)" xlink:href="#bF"/><use transform="matrix(0.05,0,0,0.05,226.04999999999995,0)" xlink:href="#br"/><use transform="matrix(0.05,0,0,0.05,236.04999999999995,0)" xlink:href="#bl"/><use transform="matrix(0.05,0,0,0.05,248.99999999999991,0)" xlink:href="#bn"/><use transform="matrix(0.05,0,0,0.05,252.94999999999993,0)" xlink:href="#bC"/><use transform="matrix(0.05,0,0,0.05,256.8999999999999,0)" xlink:href="#bu"/><use transform="matrix(0.05,0,0,0.05,266.8999999999999,0)" xlink:href="#by"/><use transform="matrix(0.05,0,0,0.05,276.8999999999999,0)" xlink:href="#bz"/><use transform="matrix(0.05,0,0,0.05,281.8999999999999,0)" xlink:href="#bu"/><use transform="matrix(0.05,0,0,0.05,291.8999999999999,0)" xlink:href="#bD"/><use transform="matrix(0.05,0,0,0.05,297.8499999999999,0)" xlink:href="#bE"/></g><path d="M80-196l47-18 7 23-49 13 32 44-20 13-27-46-27 45-21-12 33-44-49-13 8-23 47 19-2-53h23" id="cq"/><use transform="matrix(0.05,0,0,0.05,0,0)" xlink:href="#cq" id="X"/><path d="M141 0L90-78 38 0H4l68-98-65-92h35l48 74 47-74h35l-64 92 68 98h-35" id="cr"/><use transform="matrix(0.05,0,0,0.05,0,0)" xlink:href="#cr" id="Y"/><path d="M16-82v-28h88v28H16" id="cs"/><use transform="matrix(0.05,0,0,0.05,0,0)" xlink:href="#cs" id="Z"/><path d="M210-169c-67 3-38 105-44 169h-31v-121c0-29-5-50-35-48C34-165 62-65 56 0H25l-1-190h30c1 10-1 24 2 32 10-44 99-50 107 0 11-21 27-35 58-36 85-2 47 119 55 194h-31v-121c0-29-5-49-35-48" id="ct"/><path d="M100-194c63 0 86 42 84 106H49c0 40 14 67 53 68 26 1 43-12 49-29l28 8c-11 28-37 45-77 45C44 4 14-33 15-96c1-61 26-98 85-98zm52 81c6-60-76-77-97-28-3 7-6 17-6 28h103" id="cu"/><path d="M59-47c-2 24 18 29 38 22v24C64 9 27 4 27-40v-127H5v-23h24l9-43h21v43h35v23H59v120" id="cv"/><path d="M100-194c62-1 85 37 85 99 1 63-27 99-86 99S16-35 15-95c0-66 28-99 85-99zM99-20c44 1 53-31 53-75 0-43-8-75-51-75s-53 32-53 75 10 74 51 75" id="cw"/><path d="M85-194c31 0 48 13 60 33l-1-100h32l1 261h-30c-2-10 0-23-3-31C134-8 116 4 85 4 32 4 16-35 15-94c0-66 23-100 70-100zm9 24c-40 0-46 34-46 75 0 40 6 74 45 74 42 0 51-32 51-76 0-42-9-74-50-73" id="cx"/><path d="M135-143c-3-34-86-38-87 0 15 53 115 12 119 90S17 21 10-45l28-5c4 36 97 45 98 0-10-56-113-15-118-90-4-57 82-63 122-42 12 7 21 19 24 35" id="cy"/><path d="M30-248c118-7 216 8 213 122C240-48 200 0 122 0H30v-248zM63-27c89 8 146-16 146-99s-60-101-146-95v194" id="cz"/><path d="M96-169c-40 0-48 33-48 73s9 75 48 75c24 0 41-14 43-38l32 2c-6 37-31 61-74 61-59 0-76-41-82-99-10-93 101-131 147-64 4 7 5 14 7 22l-32 3c-4-21-16-35-41-35" id="cA"/><path d="M117-194c89-4 53 116 60 194h-32v-121c0-31-8-49-39-48C34-167 62-67 57 0H25l-1-190h30c1 10-1 24 2 32 11-22 29-35 61-36" id="cB"/><g id="aa"><use transform="matrix(0.05,0,0,0.05,0,0)" xlink:href="#ct"/><use transform="matrix(0.05,0,0,0.05,14.950000000000001,0)" xlink:href="#cu"/><use transform="matrix(0.05,0,0,0.05,24.950000000000003,0)" xlink:href="#cv"/><use transform="matrix(0.05,0,0,0.05,29.950000000000003,0)" xlink:href="#cw"/><use transform="matrix(0.05,0,0,0.05,39.95,0)" xlink:href="#cx"/><use transform="matrix(0.05,0,0,0.05,49.95,0)" xlink:href="#cw"/><use transform="matrix(0.05,0,0,0.05,59.95,0)" xlink:href="#cy"/><use transform="matrix(0.05,0,0,0.05,68.95,0)" xlink:href="#cz"/><use transform="matrix(0.05,0,0,0.05,81.9,0)" xlink:href="#cu"/><use transform="matrix(0.05,0,0,0.05,91.9,0)" xlink:href="#cz"/><use transform="matrix(0.05,0,0,0.05,104.85000000000001,0)" xlink:href="#cu"/><use transform="matrix(0.05,0,0,0.05,114.85000000000001,0)" xlink:href="#cy"/><use transform="matrix(0.05,0,0,0.05,123.85000000000001,0)" xlink:href="#cA"/><use transform="matrix(0.05,0,0,0.05,132.85000000000002,0)" xlink:href="#cw"/><use transform="matrix(0.05,0,0,0.05,142.85000000000002,0)" xlink:href="#cB"/><use transform="matrix(0.05,0,0,0.05,152.85000000000002,0)" xlink:href="#cv"/><use transform="matrix(0.05,0,0,0.05,157.85000000000002,0)" xlink:href="#cw"/></g><g id="ab"><use transform="matrix(0.05,0,0,0.05,0,0)" xlink:href="#bN"/><use transform="matrix(0.05,0,0,0.05,14.950000000000001,0)" xlink:href="#bb"/><use transform="matrix(0.05,0,0,0.05,24.950000000000003,0)" xlink:href="#bg"/><use transform="matrix(0.05,0,0,0.05,30.900000000000002,0)" xlink:href="#aY"/><use transform="matrix(0.05,0,0,0.05,41.85,0)" xlink:href="#aX"/><use transform="matrix(0.05,0,0,0.05,52.800000000000004,0)" xlink:href="#aY"/><use transform="matrix(0.05,0,0,0.05,63.75,0)" xlink:href="#ba"/><use transform="matrix(0.05,0,0,0.05,76.7,0)" xlink:href="#bb"/><use transform="matrix(0.05,0,0,0.05,86.7,0)" xlink:href="#be"/><use transform="matrix(0.05,0,0,0.05,96.7,0)" xlink:href="#aV"/><use transform="matrix(0.05,0,0,0.05,106.7,0)" xlink:href="#aY"/><use transform="matrix(0.05,0,0,0.05,117.65,0)" xlink:href="#bf"/><use transform="matrix(0.05,0,0,0.05,128.6,0)" xlink:href="#bg"/><use transform="matrix(0.05,0,0,0.05,134.54999999999998,0)" xlink:href="#aY"/><use transform="matrix(0.05,0,0,0.05,145.49999999999997,0)" xlink:href="#cb"/><use transform="matrix(0.05,0,0,0.05,157.49999999999997,0)" xlink:href="#aY"/><use transform="matrix(0.05,0,0,0.05,168.44999999999996,0)" xlink:href="#aZ"/><use transform="matrix(0.05,0,0,0.05,175.44999999999996,0)" xlink:href="#ba"/><use transform="matrix(0.05,0,0,0.05,188.39999999999995,0)" xlink:href="#aT"/><use transform="matrix(0.05,0,0,0.05,198.39999999999995,0)" xlink:href="#bg"/><use transform="matrix(0.05,0,0,0.05,204.34999999999994,0)" xlink:href="#aT"/><use transform="matrix(0.05,0,0,0.05,214.3499999999999,0)" xlink:href="#cb"/><use transform="matrix(0.05,0,0,0.05,226.3499999999999,0)" xlink:href="#bb"/><use transform="matrix(0.05,0,0,0.05,236.3499999999999,0)" xlink:href="#aX"/><use transform="matrix(0.05,0,0,0.05,247.29999999999993,0)" xlink:href="#bj"/><use transform="matrix(0.05,0,0,0.05,252.29999999999993,0)" xlink:href="#aX"/><use transform="matrix(0.05,0,0,0.05,263.24999999999994,0)" xlink:href="#aY"/></g><g id="ac"><use transform="matrix(0.05,0,0,0.05,0,0)" xlink:href="#bq"/><use transform="matrix(0.05,0,0,0.05,10,0)" xlink:href="#bu"/><use transform="matrix(0.05,0,0,0.05,20,0)" xlink:href="#bx"/><use transform="matrix(0.05,0,0,0.05,29,0)" xlink:href="#bo"/><use transform="matrix(0.05,0,0,0.05,38,0)" xlink:href="#br"/><use transform="matrix(0.05,0,0,0.05,48,0)" xlink:href="#by"/><use transform="matrix(0.05,0,0,0.05,58,0)" xlink:href="#bz"/><use transform="matrix(0.05,0,0,0.05,63,0)" xlink:href="#br"/><use transform="matrix(0.05,0,0,0.05,73,0)" xlink:href="#bx"/><use transform="matrix(0.05,0,0,0.05,82,0)" xlink:href="#bV"/><use transform="matrix(0.05,0,0,0.05,94,0)" xlink:href="#br"/><use transform="matrix(0.05,0,0,0.05,104,0)" xlink:href="#bs"/><use transform="matrix(0.05,0,0,0.05,109.95,0)" xlink:href="#bt"/><use transform="matrix(0.05,0,0,0.05,122.9,0)" xlink:href="#bm"/><use transform="matrix(0.05,0,0,0.05,132.9,0)" xlink:href="#bz"/><use transform="matrix(0.05,0,0,0.05,137.9,0)" xlink:href="#bm"/></g><g id="ad"><use transform="matrix(0.05,0,0,0.05,0,0)" xlink:href="#bH"/><use transform="matrix(0.05,0,0,0.05,14.950000000000001,0)" xlink:href="#bm"/><use transform="matrix(0.05,0,0,0.05,24.950000000000003,0)" xlink:href="#bF"/><use transform="matrix(0.05,0,0,0.05,34.95,0)" xlink:href="#bX"/><use transform="matrix(0.05,0,0,0.05,45.45,0)" xlink:href="#cg"/><use transform="matrix(0.05,0,0,0.05,55.45,0)" xlink:href="#br"/><use transform="matrix(0.05,0,0,0.05,65.45,0)" xlink:href="#bo"/><use transform="matrix(0.05,0,0,0.05,74.45,0)" xlink:href="#bm"/><use transform="matrix(0.05,0,0,0.05,84.45,0)" xlink:href="#bn"/><use transform="matrix(0.05,0,0,0.05,88.4,0)" xlink:href="#bt"/><use transform="matrix(0.05,0,0,0.05,101.35000000000001,0)" xlink:href="#bm"/><use transform="matrix(0.05,0,0,0.05,111.35000000000001,0)" xlink:href="#bz"/><use transform="matrix(0.05,0,0,0.05,116.35000000000001,0)" xlink:href="#bu"/><use transform="matrix(0.05,0,0,0.05,126.35000000000001,0)" xlink:href="#bZ"/></g><g id="ae"><use transform="matrix(0.05,0,0,0.05,0,0)" xlink:href="#bH"/><use transform="matrix(0.05,0,0,0.05,14.950000000000001,0)" xlink:href="#bu"/><use transform="matrix(0.05,0,0,0.05,24.950000000000003,0)" xlink:href="#bz"/><use transform="matrix(0.05,0,0,0.05,29.950000000000003,0)" xlink:href="#br"/><use transform="matrix(0.05,0,0,0.05,39.95,0)" xlink:href="#bq"/><use transform="matrix(0.05,0,0,0.05,49.95,0)" xlink:href="#br"/><use transform="matrix(0.05,0,0,0.05,59.95,0)" xlink:href="#bt"/><use transform="matrix(0.05,0,0,0.05,72.9,0)" xlink:href="#bu"/><use transform="matrix(0.05,0,0,0.05,82.9,0)" xlink:href="#bx"/><use transform="matrix(0.05,0,0,0.05,91.9,0)" xlink:href="#bo"/><use transform="matrix(0.05,0,0,0.05,100.9,0)" xlink:href="#br"/><use transform="matrix(0.05,0,0,0.05,110.9,0)" xlink:href="#by"/><use transform="matrix(0.05,0,0,0.05,120.9,0)" xlink:href="#bz"/><use transform="matrix(0.05,0,0,0.05,125.9,0)" xlink:href="#br"/><use transform="matrix(0.05,0,0,0.05,135.9,0)" xlink:href="#bV"/><use transform="matrix(0.05,0,0,0.05,147.9,0)" xlink:href="#br"/><use transform="matrix(0.05,0,0,0.05,157.9,0)" xlink:href="#bs"/><use transform="matrix(0.05,0,0,0.05,163.85,0)" xlink:href="#bt"/><use transform="matrix(0.05,0,0,0.05,176.79999999999998,0)" xlink:href="#bm"/><use transform="matrix(0.05,0,0,0.05,186.79999999999998,0)" xlink:href="#bz"/><use transform="matrix(0.05,0,0,0.05,191.79999999999998,0)" xlink:href="#bm"/><use transform="matrix(0.05,0,0,0.05,201.79999999999998,0)" xlink:href="#bV"/><use transform="matrix(0.05,0,0,0.05,213.79999999999995,0)" xlink:href="#bu"/><use transform="matrix(0.05,0,0,0.05,223.79999999999995,0)" xlink:href="#bq"/><use transform="matrix(0.05,0,0,0.05,233.79999999999995,0)" xlink:href="#bC"/><use transform="matrix(0.05,0,0,0.05,237.74999999999997,0)" xlink:href="#bq"/><use transform="matrix(0.05,0,0,0.05,247.74999999999997,0)" xlink:href="#br"/><use transform="matrix(0.05,0,0,0.05,257.75,0)" xlink:href="#bD"/><use transform="matrix(0.05,0,0,0.05,263.7,0)" xlink:href="#bE"/></g></defs></g></svg>